<svg width="336" height="200" viewBox="0 0 336 200" fill="none" xmlns="http://www.w3.org/2000/svg">
<rect opacity="0.2" width="336" height="200" rx="20" fill="#534B4B"/>
<g opacity="0.2">
<path d="M52.1731 113.475C52.5101 114.121 52.6786 114.698 52.6786 115.208C52.7123 115.684 52.5775 116.109 52.2742 116.483C51.971 116.823 51.4655 117.18 50.7579 117.554C49.6796 118.064 48.8372 118.2 48.2307 117.962C47.6578 117.724 47.1187 117.061 46.6132 115.973L35.3418 91.9573L24.1209 115.973C23.6155 117.027 23.0595 117.656 22.453 117.86C21.8464 118.098 21.004 117.979 19.9257 117.503C19.2518 117.163 18.7464 116.806 18.4094 116.432C18.1061 116.058 17.9714 115.616 18.0051 115.106C18.0724 114.562 18.2915 113.917 18.6621 113.169L32.5619 83.952C32.8314 83.4082 33.2189 82.9833 33.7244 82.6773C34.2635 82.3374 34.8195 82.1674 35.3924 82.1674C35.7967 82.1674 36.1674 82.2354 36.5043 82.3714C36.8413 82.5074 37.1446 82.7113 37.4141 82.9833C37.7174 83.2552 37.9701 83.5951 38.1723 84.003L52.1731 113.475ZM26.3449 108.529L28.771 103.277H41.9631L44.3893 108.529H26.3449Z" fill="white"/>
<path d="M59.151 117.758C58.2075 117.758 57.5168 117.622 57.0787 117.35C56.6407 117.078 56.3711 116.704 56.27 116.228C56.1689 115.718 56.1184 115.191 56.1184 114.647V85.2268C56.1184 84.6829 56.1689 84.19 56.27 83.7481C56.4048 83.2722 56.6912 82.8983 57.1293 82.6263C57.5673 82.3204 58.2581 82.1674 59.2016 82.1674H69.917C71.3997 82.1674 72.8486 82.4224 74.2638 82.9323C75.6791 83.4422 76.9427 84.207 78.0547 85.2268C79.2003 86.2466 80.0933 87.5043 80.7335 89C81.4075 90.4956 81.7444 92.2463 81.7444 94.2518C81.7444 96.2234 81.4075 97.9571 80.7335 99.4527C80.0933 100.914 79.2003 102.155 78.0547 103.175C76.909 104.195 75.6285 104.96 74.2133 105.469C72.8317 105.979 71.3828 106.234 69.8665 106.234H62.2342V114.698C62.2342 115.242 62.1669 115.752 62.0321 116.228C61.931 116.704 61.6614 117.078 61.2234 117.35C60.819 117.622 60.1282 117.758 59.151 117.758ZM62.2342 100.014H69.917C70.9616 100.014 71.9051 99.8097 72.7475 99.4017C73.6236 98.9598 74.3312 98.314 74.8704 97.4642C75.4095 96.5803 75.6791 95.4756 75.6791 94.1499C75.6791 92.9601 75.4264 91.9403 74.9209 91.0905C74.4492 90.2067 73.7752 89.5269 72.8991 89.051C72.0567 88.5751 71.0458 88.3371 69.8665 88.3371H62.2342V100.014Z" fill="white"/>
<path d="M113.922 113.475C114.259 114.121 114.428 114.698 114.428 115.208C114.461 115.684 114.327 116.109 114.023 116.483C113.72 116.823 113.215 117.18 112.507 117.554C111.429 118.064 110.586 118.2 109.98 117.962C109.407 117.724 108.868 117.061 108.362 115.973L97.091 91.9573L85.8701 115.973C85.3647 117.027 84.8087 117.656 84.2021 117.86C83.5956 118.098 82.7532 117.979 81.6749 117.503C81.001 117.163 80.4955 116.806 80.1586 116.432C79.8553 116.058 79.7205 115.616 79.7542 115.106C79.8216 114.562 80.0407 113.917 80.4113 113.169L94.311 83.952C94.5806 83.4082 94.9681 82.9833 95.4736 82.6773C96.0127 82.3374 96.5687 82.1674 97.1415 82.1674C97.5459 82.1674 97.9166 82.2354 98.2535 82.3714C98.5905 82.5074 98.8937 82.7113 99.1633 82.9833C99.4666 83.2552 99.7193 83.5951 99.9215 84.003L113.922 113.475ZM88.0941 108.529L90.5202 103.277H103.712L106.138 108.529H88.0941Z" fill="white"/>
<path d="M120.647 117.758C119.771 117.758 119.114 117.605 118.676 117.299C118.238 117.027 117.952 116.653 117.817 116.177C117.682 115.701 117.615 115.191 117.615 114.647V85.1758C117.615 84.6319 117.665 84.139 117.766 83.6971C117.901 83.2212 118.188 82.8473 118.626 82.5753C119.064 82.2694 119.755 82.1164 120.698 82.1164L130.2 82.1674C132.66 82.1674 134.918 82.5923 136.973 83.4422C139.063 84.292 140.865 85.4987 142.382 87.0624C143.898 88.626 145.06 90.4956 145.869 92.6712C146.712 94.8127 147.133 97.1752 147.133 99.7587C147.133 102.41 146.712 104.841 145.869 107.05C145.027 109.26 143.847 111.163 142.331 112.761C140.815 114.359 139.012 115.599 136.923 116.483C134.867 117.333 132.576 117.758 130.049 117.758H120.647ZM123.731 111.588H130.2C132.357 111.588 134.244 111.112 135.861 110.16C137.479 109.175 138.726 107.815 139.602 106.081C140.511 104.348 140.966 102.325 140.966 100.014C140.966 97.6681 140.511 95.6285 139.602 93.8949C138.726 92.1273 137.462 90.7676 135.811 89.8158C134.193 88.83 132.306 88.3371 130.15 88.3371H123.731V111.588Z" fill="white"/>
<path d="M155.457 117.758C154.513 117.758 153.823 117.622 153.385 117.35C152.98 117.078 152.711 116.704 152.576 116.228C152.475 115.718 152.424 115.191 152.424 114.647V85.2268C152.424 84.6829 152.492 84.19 152.626 83.7481C152.761 83.2722 153.031 82.8983 153.435 82.6263C153.873 82.3204 154.564 82.1674 155.507 82.1674H166.324C167.874 82.1674 169.34 82.4224 170.721 82.9323C172.137 83.4082 173.4 84.156 174.512 85.1758C175.624 86.1616 176.5 87.4193 177.14 88.949C177.814 90.4447 178.151 92.1953 178.151 94.2009C178.151 95.5266 177.949 96.8523 177.545 98.178C177.14 99.4697 176.534 100.676 175.725 101.798C174.95 102.886 173.956 103.821 172.743 104.603C171.53 105.384 170.098 105.894 168.447 106.132H158.54V114.698C158.54 115.242 158.473 115.752 158.338 116.228C158.237 116.704 157.967 117.078 157.529 117.35C157.125 117.622 156.434 117.758 155.457 117.758ZM176.989 116.993C176.012 117.673 175.203 117.928 174.563 117.758C173.956 117.588 173.35 117.044 172.743 116.126L164.252 103.175L171.075 102.257L177.798 112.557C178.269 113.237 178.556 113.815 178.657 114.291C178.758 114.766 178.674 115.208 178.404 115.616C178.134 116.024 177.663 116.483 176.989 116.993ZM158.54 100.014H167.082C167.689 100.014 168.278 99.9116 168.851 99.7077C169.458 99.4697 169.997 99.1128 170.469 98.6369C170.94 98.127 171.311 97.5151 171.581 96.8013C171.884 96.0535 172.035 95.1696 172.035 94.1499C172.035 92.9261 171.8 91.8894 171.328 91.0395C170.856 90.1557 170.182 89.4929 169.306 89.051C168.464 88.5751 167.436 88.3371 166.223 88.3371H158.54V100.014Z" fill="white"/>
<path d="M186.196 117.809C185.253 117.809 184.562 117.656 184.124 117.35C183.686 117.078 183.416 116.704 183.315 116.228C183.214 115.752 183.164 115.225 183.164 114.647V85.2268C183.164 84.6829 183.214 84.173 183.315 83.6971C183.45 83.2212 183.72 82.8473 184.124 82.5753C184.562 82.3034 185.27 82.1674 186.247 82.1674C187.19 82.1674 187.864 82.3034 188.269 82.5753C188.707 82.8473 188.976 83.2212 189.077 83.6971C189.212 84.173 189.279 84.6999 189.279 85.2778V114.698C189.279 115.276 189.212 115.803 189.077 116.279C188.976 116.721 188.707 117.078 188.269 117.35C187.83 117.656 187.14 117.809 186.196 117.809Z" fill="white"/>
<path d="M220.851 82.1164C221.357 82.1164 221.795 82.1674 222.165 82.2694C222.57 82.3714 222.89 82.6263 223.126 83.0342C223.362 83.4082 223.479 84.02 223.479 84.8699C223.479 85.7197 223.362 86.3485 223.126 86.7564C222.89 87.1304 222.57 87.3683 222.165 87.4703C221.761 87.5383 221.306 87.5723 220.801 87.5723H211.5V114.749C211.5 115.327 211.433 115.854 211.298 116.33C211.197 116.772 210.928 117.129 210.49 117.401C210.085 117.673 209.394 117.809 208.417 117.809C207.507 117.809 206.833 117.656 206.395 117.35C205.957 117.078 205.688 116.721 205.587 116.279C205.486 115.803 205.435 115.276 205.435 114.698V87.5723H196.034C195.562 87.5723 195.124 87.5213 194.72 87.4193C194.315 87.3173 193.978 87.0794 193.709 86.7055C193.473 86.3315 193.355 85.7197 193.355 84.8699C193.355 84.02 193.473 83.4082 193.709 83.0342C193.945 82.6263 194.265 82.3714 194.669 82.2694C195.107 82.1674 195.562 82.1164 196.034 82.1164H220.851Z" fill="white"/>
<path d="M280.58 129.731L275.444 140.002C275.171 140.549 275.568 141.192 276.179 141.192H286.038C286.599 141.192 286.995 140.642 286.818 140.11L285.225 135.333C284.246 132.397 286.758 129.401 289.851 129.529C294.402 129.716 299.863 129.356 301.562 126.808C303.385 124.074 305.511 121.34 306.729 119.816C307.122 119.325 306.772 118.589 306.143 118.589C303.335 118.589 300.917 120.295 299.152 122.479C296.055 126.311 292.739 126.083 288.374 123.459C287.834 123.134 287.897 122.373 288.514 122.238C292.237 121.421 296.804 123.582 297.389 117.865C297.452 117.258 296.807 116.856 296.249 117.104C293.296 118.413 291.366 118.568 288.424 118.587C287.612 118.592 286.818 118.829 286.143 119.279L282.844 121.479C281.7 122.241 281.014 123.524 281.014 124.898V127.893C281.014 128.531 280.865 129.16 280.58 129.731Z" fill="white"/>
<path d="M277.614 131.552L278.713 129.355C280.045 126.69 279.281 123.454 276.898 121.667L273.89 119.411C273.179 118.877 272.313 118.593 271.424 118.586C268.551 118.564 266.634 118.395 263.724 117.104C263.165 116.856 262.521 117.258 262.583 117.865C263.169 123.582 267.736 121.421 271.459 122.238C272.076 122.373 272.139 123.134 271.598 123.459C267.233 126.083 263.918 126.311 260.821 122.479C259.056 120.295 256.637 118.589 253.829 118.589C253.201 118.589 252.851 119.325 253.243 119.816C254.462 121.34 256.588 124.074 258.411 126.808C260.564 130.037 267.756 129.753 271.878 129.291C273.646 129.094 275.399 129.962 276.194 131.552C276.487 132.137 277.322 132.137 277.614 131.552Z" fill="white"/>
<path d="M272.795 105.233C272.795 105.8 272.335 106.26 271.767 106.26C271.2 106.26 270.74 105.8 270.74 105.233C270.74 104.665 271.2 104.205 271.767 104.205C272.335 104.205 272.795 104.665 272.795 105.233Z" fill="white"/>
<path d="M261.141 106.103L261.219 106.411C261.754 108.553 260.134 110.627 257.927 110.627C257.258 110.627 256.603 110.428 256.046 110.057L254.247 108.857C253.998 108.692 253.764 108.511 253.544 108.315H254.635C255.585 108.315 256.356 107.544 256.356 106.594C256.356 105.419 257.507 104.589 258.622 104.961L261.04 105.767C261.079 105.877 261.113 105.989 261.141 106.103Z" fill="white"/>
<path d="M256.685 100.735C256.609 100.63 256.535 100.524 256.463 100.416L253.889 96.5547C253.545 96.0391 252.967 95.7294 252.347 95.7294C251.219 95.7294 250.353 96.7284 250.512 97.845L250.927 100.748C251.557 100.319 252.461 100.311 253.098 100.947L253.274 101.123C253.841 101.691 254.761 101.691 255.329 101.123C255.697 100.755 256.213 100.626 256.685 100.735Z" fill="white"/>
<path fill-rule="evenodd" clip-rule="evenodd" d="M296.074 63.1536C294.601 63.2511 293.126 62.8809 291.873 62.0998C288.723 60.1352 285.001 59 281.014 59C277.027 59 273.305 60.1352 270.154 62.0998C268.901 62.8809 267.426 63.2511 265.953 63.1536C265.498 63.1235 265.038 63.1082 264.575 63.1082C253.227 63.1082 244.027 72.3046 244.027 83.649C244.027 85.894 244.388 88.0549 245.054 90.0771C245.567 91.6348 245.516 93.3342 244.973 94.8815C244.36 96.6242 244.027 98.4983 244.027 100.45C244.027 109.884 252.574 117.015 261.86 115.327L265.04 114.749C266.086 114.559 267.162 114.612 268.184 114.904L277.627 117.601C279.84 118.233 282.187 118.233 284.401 117.601L293.843 114.904C294.866 114.612 295.941 114.559 296.987 114.749L300.168 115.327C309.453 117.015 318 109.884 318 100.45C318 98.4983 317.667 96.6242 317.055 94.8815C316.511 93.3342 316.461 91.6348 316.974 90.0771C317.64 88.0549 318 85.894 318 83.649C318 72.3046 308.8 63.1082 297.452 63.1082C296.989 63.1082 296.53 63.1235 296.074 63.1536ZM277.138 66.3319L277.776 69.5255C278.523 73.2561 280.949 76.4333 284.352 78.1348L286.075 78.9964C286.429 79.173 286.803 78.7983 286.627 78.445L283.663 72.5181C283.39 71.9716 283.787 71.3286 284.398 71.3286H284.567C284.903 71.3286 285.205 71.5332 285.33 71.8453L288.711 80.2981C289.049 81.1437 289.097 82.0777 288.847 82.9534L285.423 94.9384C285.273 95.4634 285.667 95.9861 286.213 95.9861H288.411C288.865 95.9861 289.233 95.6181 289.233 95.1642V90.9851C289.233 90.2633 289.612 89.5945 290.231 89.2231L298.262 84.4042C298.81 84.0755 299.507 84.4701 299.507 85.109V85.2221C299.507 85.524 299.341 85.8016 299.076 85.9452L295.277 87.9985C295.033 88.1306 295.007 88.471 295.228 88.6386C297.322 90.2228 300.352 89.2698 301.162 86.7726L302.38 83.0194C302.501 82.6443 302.339 82.2357 301.994 82.0457L300.759 81.3664C298.889 80.3379 296.543 80.9119 295.359 82.6877L293.403 85.6213C293.363 85.6808 293.309 85.729 293.245 85.7609L290.12 87.3232C289.793 87.487 289.431 87.173 289.547 86.8257L290.211 84.8323C290.9 82.7643 290.74 80.5072 289.765 78.5575L289.276 77.5797C289.248 77.5227 289.233 77.4598 289.233 77.396V74.1817C289.233 70.1639 286.328 66.7349 282.365 66.0744L278.079 65.36C277.511 65.2654 277.025 65.7679 277.138 66.3319ZM255.329 68.2466C255.329 67.6792 255.789 67.2192 256.356 67.2192C256.969 67.2192 257.571 67.2292 258.163 67.2492C258.243 67.2296 258.326 67.2192 258.411 67.2192C268.556 67.2192 274.975 70.8925 278.623 76.0478C282.237 81.1539 283.018 87.5546 282.242 92.856C282.088 93.9045 281.57 94.8282 280.86 95.5378L279.698 96.7005C279.674 96.7249 279.649 96.748 279.623 96.7699C279.51 96.8659 279.382 96.9336 279.246 96.9728C279.111 97.0123 278.966 97.0244 278.82 97.0042C278.697 96.9875 278.576 96.9483 278.464 96.8868C278.353 96.8257 278.255 96.7452 278.175 96.6507C278.079 96.5377 278.012 96.4089 277.972 96.2735C277.933 96.1385 277.921 95.9937 277.941 95.8471C277.945 95.8134 277.952 95.7798 277.96 95.7466C279.319 89.6185 279.275 84.6471 278.011 80.7493C277.138 81.0259 276.326 81.3548 275.576 81.7351C276.352 82.0287 276.904 82.7787 276.904 83.6575C276.904 84.7923 275.984 85.7123 274.849 85.7123C273.714 85.7123 272.795 84.7923 272.795 83.6575C272.795 83.6497 272.795 83.6419 272.795 83.6341C272.108 84.2611 271.513 84.9603 271.013 85.7303C272.019 85.8641 272.795 86.725 272.795 87.7671C272.795 88.9019 271.875 89.8219 270.74 89.8219C270.262 89.8219 269.823 89.6589 269.474 89.3856C269.227 90.414 269.087 91.5321 269.064 92.7425C269.436 92.2185 270.048 91.8767 270.74 91.8767C271.875 91.8767 272.795 92.7966 272.795 93.9314C272.795 95.0663 271.875 95.9862 270.74 95.9862C270.111 95.9862 269.548 95.7036 269.171 95.2583C269.254 96.0904 269.385 96.959 269.566 97.8647C269.664 98.3515 269.348 98.8251 268.861 98.9225C268.374 99.0199 267.901 98.7041 267.803 98.2173C267.771 98.0554 267.74 97.8945 267.71 97.7344C267.397 97.9288 267.026 98.041 266.63 98.041C265.495 98.041 264.575 97.1211 264.575 95.9862C264.575 94.8514 265.495 93.9314 266.63 93.9314C266.858 93.9314 267.077 93.9685 267.282 94.037C267.215 92.4448 267.319 90.9593 267.59 89.5842C267.304 89.7359 266.977 89.8219 266.63 89.8219C265.495 89.8219 264.575 88.9019 264.575 87.7671C264.575 86.6322 265.495 85.7123 266.63 85.7123C267.408 85.7123 268.086 86.1449 268.434 86.7828C268.656 86.2534 268.909 85.7454 269.193 85.2593C269.532 84.6766 269.914 84.1295 270.335 83.6176C269.394 83.4296 268.685 82.599 268.685 81.6027C268.685 80.4679 269.605 79.5479 270.74 79.5479C271.784 79.5479 272.647 80.3273 272.777 81.3362C274.105 80.3791 275.643 79.6252 277.362 79.0695C276.82 77.8756 276.145 76.7999 275.344 75.8392C274.894 75.2985 274.4 74.7897 273.862 74.3133C273.425 74.3405 272.984 74.3856 272.541 74.4489C272.703 74.7424 272.795 75.0796 272.795 75.4383C272.795 76.5732 271.875 77.4931 270.74 77.4931C269.617 77.4931 268.704 76.5921 268.685 75.4735C267.389 75.9877 266.136 76.6722 264.987 77.5344C265.925 77.7252 266.63 78.5542 266.63 79.5479C266.63 80.6827 265.71 81.6027 264.575 81.6027C263.543 81.6027 262.689 80.8421 262.543 79.851C261.632 80.9432 260.851 82.2115 260.26 83.6676C260.328 83.6609 260.396 83.6575 260.466 83.6575C261.601 83.6575 262.521 84.5774 262.521 85.7123C262.521 86.8471 261.601 87.7671 260.466 87.7671C260.014 87.7671 259.597 87.6214 259.258 87.3746C259.114 88.3229 259.04 89.3288 259.043 90.3941C259.412 90.0397 259.914 89.8219 260.466 89.8219C261.601 89.8219 262.521 90.7418 262.521 91.8767C262.521 93.0115 261.601 93.9314 260.466 93.9314C260.017 93.9314 259.602 93.7875 259.264 93.5434C259.275 93.6302 259.287 93.7173 259.3 93.8048C259.37 94.2963 259.029 94.7516 258.537 94.8218C258.046 94.892 257.59 94.5505 257.52 94.059C257.402 93.2337 257.323 92.4331 257.281 91.657C257.003 91.7975 256.689 91.8767 256.356 91.8767C255.221 91.8767 254.301 90.9567 254.301 89.8219C254.301 88.687 255.221 87.7671 256.356 87.7671C256.722 87.7671 257.065 87.8626 257.363 88.03C257.475 86.9581 257.664 85.9437 257.924 84.9861C257.547 85.4303 256.984 85.7123 256.356 85.7123C255.221 85.7123 254.301 84.7923 254.301 83.6575C254.301 82.5227 255.221 81.6027 256.356 81.6027C257.432 81.6027 258.315 82.4296 258.404 83.4826C258.944 82.0222 259.656 80.7116 260.501 79.5476C260.489 79.5478 260.478 79.5479 260.466 79.5479C259.331 79.5479 258.411 78.628 258.411 77.4931C258.411 76.3583 259.331 75.4383 260.466 75.4383C261.526 75.4383 262.398 76.241 262.509 77.2718C263.419 76.4173 264.409 75.6833 265.449 75.065C264.921 74.6932 264.575 74.0787 264.575 73.3835C264.575 72.2487 265.495 71.3288 266.63 71.3288C267.765 71.3288 268.685 72.2487 268.685 73.3835C268.685 73.4418 268.683 73.4995 268.678 73.5566C269.695 73.197 270.729 72.9303 271.757 72.7529C269.964 71.6406 267.829 70.7865 265.348 70.203C263.016 70.3122 260.228 70.7384 257.68 71.8119C258.127 72.1889 258.411 72.753 258.411 73.3835C258.411 74.5184 257.491 75.4383 256.356 75.4383C255.354 75.4383 254.52 74.7213 254.338 73.7723C253.069 74.7946 251.982 76.0984 251.223 77.766C251.524 77.5924 251.874 77.4931 252.247 77.4931C253.381 77.4931 254.301 78.4131 254.301 79.5479C254.301 80.6827 253.381 81.6027 252.247 81.6027C251.415 81.6027 250.699 81.1091 250.376 80.3991C250.173 81.3869 250.063 82.4699 250.063 83.6575V83.6614C250.106 83.6588 250.149 83.6575 250.192 83.6575C251.327 83.6575 252.247 84.5774 252.247 85.7123C252.247 86.8471 251.327 87.7671 250.192 87.7671C249.057 87.7671 248.137 86.8471 248.137 85.7123C248.137 85.2035 248.322 84.7379 248.628 84.3791C248.408 84.2152 248.265 83.953 248.265 83.6575C248.265 77.1505 251.281 73.2666 255.14 71.0619C256.453 70.3116 257.857 69.7587 259.262 69.3564C258.327 69.3016 257.359 69.274 256.356 69.274C255.789 69.274 255.329 68.814 255.329 68.2466ZM296.601 68.4228L296.813 68.6352C295.951 69.6459 295.592 71.0545 295.937 72.3735L292.275 69.9324C291.979 69.7352 292.119 69.274 292.475 69.274C292.795 69.274 292.955 68.8868 292.729 68.6604L292.315 68.2466C291.936 67.8674 292.204 67.2192 292.74 67.2192H293.695C294.785 67.2192 295.83 67.6521 296.601 68.4228ZM306.875 84.0906C307.572 84.7875 308.402 85.164 309.243 85.2705L308.777 86.6678C308.294 88.1169 306.455 88.551 305.375 87.4709L304.773 86.8691C304.346 86.4422 304.648 85.7123 305.252 85.7123C305.509 85.7123 305.743 85.5673 305.858 85.3377L306.613 83.8287L306.875 84.0906ZM310.162 85.2818L311.897 86.4383C312.548 86.8724 313.38 86.2369 313.133 85.4945L312.673 84.1153C311.995 84.7747 311.1 85.1876 310.162 85.2818ZM297.019 74.2347C296.771 73.9864 296.563 73.7213 296.394 73.4449L295.584 75.0637C295.47 75.2933 295.235 75.4383 294.978 75.4383C294.374 75.4383 294.072 76.1683 294.499 76.5951L295.101 77.197C296.181 78.2771 298.02 77.8429 298.503 76.3938L298.672 75.8878L297.019 74.2347ZM301.561 69.0171L299.925 69.0171C297.865 69.0171 296.834 71.5071 298.29 72.9633L308.146 82.8193C309.602 84.2755 312.092 83.2441 312.092 81.1847V79.5479C312.092 73.7319 307.377 69.0171 301.561 69.0171ZM313.178 98.0407H313.369C313.657 98.0407 313.891 97.8071 313.891 97.5188C313.891 94.1492 311.734 91.1576 308.538 90.0921L308.427 90.0553C308.082 89.9403 307.726 90.197 307.726 90.5606V92.5894C307.726 93.4485 307.385 94.2725 306.777 94.88C306.369 95.2881 305.671 94.999 305.671 94.4218V93.803C305.671 93.092 304.812 92.736 304.309 93.2387L303.998 93.5493C302.385 95.1632 300.521 96.5063 298.48 97.527C297.799 97.8673 297.178 98.315 296.64 98.853L296.549 98.9435C295.812 99.6811 294.811 100.096 293.768 100.096H288.458C286.249 100.096 284.055 100.452 281.96 101.15L280.378 101.677C279.855 101.852 279.803 102.572 280.297 102.819C281.828 103.585 282.448 105.446 281.683 106.977L280.581 109.179C279.655 111.033 280.253 113.287 281.978 114.437L283.355 115.355C283.98 115.771 284.79 115.2 284.608 114.471L283.502 110.048C283.332 109.367 284.039 108.8 284.667 109.114L285.443 109.502C286.584 110.072 287.843 110.369 289.118 110.369H291.342C292.667 110.369 293.984 110.583 295.241 111.002L297.625 111.797C298.319 112.028 298.947 111.304 298.62 110.649L298.004 109.417C297.827 109.064 298.202 108.689 298.555 108.866L300.039 109.608C301.014 110.096 302.143 110.176 303.177 109.831L305.29 109.127C306.876 108.598 308.264 107.598 309.267 106.261L312.904 101.411C313.311 100.869 312.924 100.096 312.247 100.096H311.345C310.768 100.096 310.479 99.3977 310.887 98.9895C311.494 98.382 312.318 98.0407 313.178 98.0407ZM266.151 103.943L275.586 102.37C276.443 102.227 277.323 102.36 278.1 102.748L278.464 102.93C279.927 103.662 280.63 105.358 280.112 106.91L279.189 109.681C279.057 110.074 278.654 110.308 278.248 110.227L271.125 108.803C269.534 108.485 268.073 107.702 266.925 106.555L265.705 105.334C265.232 104.862 265.491 104.052 266.151 103.943ZM249.672 104.677L248.732 98.0993C248.418 95.8995 250.125 93.9314 252.347 93.9314C253.568 93.9314 254.708 94.5416 255.385 95.5574L257.959 99.4186C258.26 99.869 258.604 100.289 258.986 100.671L261.455 103.14C262.152 103.837 262.647 104.711 262.886 105.667L262.963 105.975C263.782 109.251 261.304 112.425 257.927 112.425C256.903 112.425 255.901 112.121 255.048 111.553L253.249 110.353C251.304 109.056 250.003 106.992 249.672 104.677Z" fill="white"/>
</g>
</svg>
