<svg width="336" height="200" viewBox="0 0 336 200" fill="none" xmlns="http://www.w3.org/2000/svg">
<rect width="336" height="200" rx="20" fill="#534B4B"/>
<path d="M52.1418 149.671H52.4205C52.7155 149.671 52.8575 149.599 52.9613 149.285L56.6544 139.101H59.0472L62.7184 149.279C62.8222 149.599 62.9643 149.665 63.2593 149.665H63.5379V151.622H62.1721C61.298 151.622 60.9812 151.391 60.7025 150.597L59.9322 148.408H55.7366L54.9663 150.597C54.6876 151.391 54.3872 151.622 53.5131 151.622H52.1418V149.665V149.671ZM59.4133 146.511L58.3479 143.369C58.1185 142.679 57.8563 141.499 57.8563 141.499H57.8235C57.8235 141.499 57.5613 142.679 57.3318 143.369L56.2665 146.511H59.4133Z" fill="white"/>
<path d="M65.2205 148.772C65.2205 148.772 66.3569 150.095 67.8756 150.095C68.5585 150.095 69.083 149.814 69.083 149.213C69.083 147.945 64.3792 147.961 64.3792 145.05C64.3792 143.253 65.9854 142.42 67.8428 142.42C69.0502 142.42 70.9732 142.828 70.9732 144.289V145.227H69.0174V144.786C69.0174 144.361 68.3892 144.152 67.8975 144.152C67.1108 144.152 66.5699 144.433 66.5699 144.962C66.5699 146.373 71.3065 146.092 71.3065 149.092C71.3065 150.784 69.8205 151.843 67.8811 151.843C65.4336 151.843 64.1771 150.239 64.1771 150.239L65.226 148.772H65.2205Z" fill="white"/>
<path d="M73.3988 148.772C73.3988 148.772 74.5352 150.095 76.0539 150.095C76.7368 150.095 77.2613 149.814 77.2613 149.213C77.2613 147.945 72.5575 147.961 72.5575 145.05C72.5575 143.253 74.1637 142.42 76.0211 142.42C77.2285 142.42 79.1515 142.828 79.1515 144.289V145.227H77.1957V144.786C77.1957 144.361 76.5675 144.152 76.0758 144.152C75.2891 144.152 74.7482 144.433 74.7482 144.962C74.7482 146.373 79.4848 146.092 79.4848 149.092C79.4848 150.784 77.9988 151.843 76.0594 151.843C73.6119 151.843 72.3554 150.239 72.3554 150.239L73.4043 148.772H73.3988Z" fill="white"/>
<path d="M85.5324 142.42C88.2585 142.42 90.4274 144.378 90.4274 147.129C90.4274 149.88 88.2585 151.837 85.5324 151.837C82.8063 151.837 80.6539 149.897 80.6539 147.129C80.6539 144.361 82.8227 142.42 85.5324 142.42ZM85.5324 149.935C86.9856 149.935 88.1875 148.805 88.1875 147.129C88.1875 145.453 86.9802 144.322 85.5324 144.322C84.0847 144.322 82.8938 145.469 82.8938 147.129C82.8938 148.788 84.1011 149.935 85.5324 149.935Z" fill="white"/>
<path d="M96.4204 142.42C97.5732 142.42 99.6546 142.894 99.6546 144.449V145.508H97.6988V145.012C97.6988 144.515 96.9668 144.306 96.4204 144.306C94.8798 144.306 93.7818 145.486 93.7818 147.112C93.7818 148.948 95.1257 149.88 96.5625 149.88C98.0812 149.88 99.2012 148.662 99.2012 148.662L100.13 150.216C100.13 150.216 98.8024 151.837 96.3713 151.837C93.4321 151.837 91.5473 149.737 91.5473 147.129C91.5473 144.521 93.3666 142.42 96.4259 142.42H96.4204Z" fill="white"/>
<path d="M101.911 144.923C101.911 144.659 101.769 144.537 101.528 144.537H100.829V142.63H102.943C103.763 142.63 104.113 142.999 104.113 143.832V149.351C104.113 149.599 104.255 149.737 104.495 149.737H105.194V151.622H103.08C102.261 151.622 101.911 151.27 101.911 150.42V144.918V144.923ZM102.015 139.101H103.938V141.163H102.015V139.101Z" fill="white"/>
<path d="M111.493 145.982H111.772V145.91C111.772 144.62 111.264 144.146 110.127 144.146C109.723 144.146 108.936 144.251 108.936 144.747V145.221H106.871V144.267C106.871 142.591 109.215 142.415 110.138 142.415C113.11 142.415 113.984 143.986 113.984 145.999V149.351C113.984 149.599 114.126 149.737 114.367 149.737H115.066V151.622H113.072C112.253 151.622 111.936 151.165 111.936 150.635C111.936 150.404 111.952 150.25 111.952 150.25H111.919C111.919 150.25 111.236 151.837 109.226 151.837C107.636 151.837 106.183 150.834 106.183 149.031C106.183 146.208 110.029 145.976 111.482 145.976L111.493 145.982ZM109.778 150.095C110.969 150.095 111.805 148.827 111.805 147.73V147.52H111.422C110.269 147.52 108.434 147.68 108.434 148.932C108.434 149.533 108.871 150.095 109.778 150.095Z" fill="white"/>
<path d="M120.846 142.42C121.999 142.42 124.08 142.894 124.08 144.449V145.508H122.124V145.012C122.124 144.515 121.392 144.306 120.846 144.306C119.305 144.306 118.207 145.486 118.207 147.112C118.207 148.948 119.551 149.88 120.988 149.88C122.507 149.88 123.627 148.662 123.627 148.662L124.556 150.216C124.556 150.216 123.261 151.804 120.868 151.837L120.748 152.4C121.447 152.488 122.004 152.913 122.004 153.74C122.004 154.903 121.059 155.294 120.136 155.294C119.524 155.294 119.054 155.173 119.054 155.173V153.938C119.054 153.938 119.42 154.081 119.824 154.081C120.229 154.081 120.578 153.96 120.578 153.585C120.578 153.249 120.212 153.111 119.737 153.111C119.562 153.111 119.371 153.144 119.371 153.144L119.753 151.733C117.426 151.308 115.978 149.439 115.978 147.129C115.978 144.587 117.798 142.42 120.857 142.42H120.846Z" fill="white"/>
<path d="M130.685 145.982H130.964V145.91C130.964 144.62 130.456 144.146 129.319 144.146C128.915 144.146 128.128 144.251 128.128 144.747V145.221H126.063V144.267C126.063 142.591 128.407 142.415 129.33 142.415C132.302 142.415 133.176 143.986 133.176 145.999V149.351C133.176 149.599 133.318 149.737 133.559 149.737H134.258V151.622H132.264C131.445 151.622 131.128 151.165 131.128 150.635C131.128 150.404 131.144 150.25 131.144 150.25H131.111C131.111 150.25 130.428 151.837 128.418 151.837C126.828 151.837 125.375 150.834 125.375 149.031C125.375 146.208 129.221 145.976 130.674 145.976L130.685 145.982ZM128.38 139.085C129.587 139.085 129.882 140.231 130.62 140.231C131.111 140.231 131.335 139.702 131.335 139.14H132.717C132.717 140.728 132.051 141.555 130.723 141.555C129.516 141.555 129.221 140.408 128.484 140.408C127.992 140.408 127.768 140.921 127.768 141.499H126.386C126.386 139.895 127.052 139.085 128.38 139.085ZM128.975 150.095C130.166 150.095 131.002 148.827 131.002 147.73V147.52H130.62C129.467 147.52 127.631 147.68 127.631 148.932C127.631 149.533 128.068 150.095 128.975 150.095Z" fill="white"/>
<path d="M140.038 142.42C142.764 142.42 144.933 144.378 144.933 147.129C144.933 149.88 142.764 151.837 140.038 151.837C137.312 151.837 135.159 149.897 135.159 147.129C135.159 144.361 137.328 142.42 140.038 142.42ZM140.038 149.935C141.491 149.935 142.693 148.805 142.693 147.129C142.693 145.453 141.486 144.322 140.038 144.322C138.59 144.322 137.399 145.469 137.399 147.129C137.399 148.788 138.607 149.935 140.038 149.935Z" fill="white"/>
<path d="M154.739 142.42C156.679 142.42 157.307 143.512 157.307 143.512H157.34C157.34 143.512 157.323 143.28 157.323 142.983V141.395C157.323 141.13 157.181 141.009 156.941 141.009H156.242V139.101H158.356C159.175 139.101 159.547 139.47 159.547 140.303V149.356C159.547 149.604 159.689 149.742 159.929 149.742H160.612V151.628H158.569C157.766 151.628 157.465 151.242 157.465 150.713V150.376H157.433C157.433 150.376 156.701 151.843 154.652 151.843C152.237 151.843 150.686 149.919 150.686 147.134C150.686 144.35 152.379 142.426 154.739 142.426V142.42ZM157.378 147.112C157.378 145.717 156.662 144.344 155.176 144.344C153.953 144.344 152.936 145.348 152.936 147.134C152.936 148.921 153.827 149.957 155.138 149.957C156.291 149.957 157.378 149.108 157.378 147.118V147.112Z" fill="white"/>
<path d="M166.436 142.42C169.162 142.42 171.331 144.378 171.331 147.129C171.331 149.88 169.162 151.837 166.436 151.837C163.71 151.837 161.557 149.897 161.557 147.129C161.557 144.361 163.726 142.42 166.436 142.42ZM166.436 149.935C167.889 149.935 169.091 148.805 169.091 147.129C169.091 145.453 167.884 144.322 166.436 144.322C164.988 144.322 163.797 145.469 163.797 147.129C163.797 148.788 165.005 149.935 166.436 149.935Z" fill="white"/>
<path d="M173.379 148.772C173.379 148.772 174.516 150.095 176.035 150.095C176.717 150.095 177.242 149.814 177.242 149.213C177.242 147.945 172.538 147.961 172.538 145.05C172.538 143.253 174.144 142.42 176.002 142.42C177.209 142.42 179.132 142.828 179.132 144.289V145.227H177.176V144.786C177.176 144.361 176.548 144.152 176.056 144.152C175.27 144.152 174.729 144.433 174.729 144.962C174.729 146.373 179.465 146.092 179.465 149.092C179.465 150.784 177.979 151.843 176.04 151.843C173.593 151.843 172.336 150.239 172.336 150.239L173.385 148.772H173.379Z" fill="white"/>
<path d="M186.436 141.058H185.3V139.101H190.982C193.309 139.101 194.931 140.744 194.931 143.176C194.931 145.607 193.303 147.305 190.982 147.305H188.725V151.628H186.436V141.058ZM190.561 145.326C191.856 145.326 192.588 144.477 192.588 143.176C192.588 141.874 191.856 141.058 190.594 141.058H188.725V145.326H190.561Z" fill="white"/>
<path d="M196.734 144.923C196.734 144.659 196.592 144.537 196.352 144.537H195.653V142.63H197.679C198.466 142.63 198.87 142.966 198.87 143.721V144.251C198.87 144.587 198.838 144.813 198.838 144.813H198.87C199.275 143.528 200.34 142.503 201.7 142.503C201.891 142.503 202.105 142.536 202.105 142.536V144.741C202.105 144.741 201.875 144.708 201.564 144.708C200.619 144.708 199.537 145.254 199.133 146.594C199.012 147.035 198.941 147.531 198.941 148.061V151.622H196.74V144.918L196.734 144.923Z" fill="white"/>
<path d="M207.59 142.42C210.316 142.42 212.484 144.378 212.484 147.129C212.484 149.88 210.316 151.837 207.59 151.837C204.863 151.837 202.711 149.897 202.711 147.129C202.711 144.361 204.88 142.42 207.59 142.42ZM207.59 149.935C209.043 149.935 210.245 148.805 210.245 147.129C210.245 145.453 209.037 144.322 207.59 144.322C206.142 144.322 204.951 145.469 204.951 147.129C204.951 148.788 206.158 149.935 207.59 149.935Z" fill="white"/>
<path d="M217.658 142.42C219.597 142.42 220.226 143.512 220.226 143.512H220.259C220.259 143.512 220.242 143.28 220.242 142.983V141.395C220.242 141.13 220.1 141.009 219.86 141.009H219.16V139.101H221.275C222.094 139.101 222.466 139.47 222.466 140.303V149.356C222.466 149.604 222.608 149.742 222.848 149.742H223.531V151.628H221.488C220.685 151.628 220.384 151.242 220.384 150.713V150.376H220.351C220.351 150.376 219.619 151.843 217.571 151.843C215.156 151.843 213.604 149.919 213.604 147.134C213.604 144.35 215.298 142.426 217.658 142.426V142.42ZM220.297 147.112C220.297 145.717 219.581 144.344 218.095 144.344C216.871 144.344 215.855 145.348 215.855 147.134C215.855 148.921 216.746 149.957 218.057 149.957C219.21 149.957 220.297 149.108 220.297 147.118V147.112Z" fill="white"/>
<path d="M225.334 144.923C225.334 144.659 225.192 144.537 224.951 144.537H224.252V142.63H226.366C227.186 142.63 227.535 142.999 227.535 143.81V147.956C227.535 149.048 227.814 149.792 228.918 149.792C230.524 149.792 231.42 148.364 231.42 146.759V142.63H233.638V149.351C233.638 149.599 233.78 149.737 234.02 149.737H234.719V151.622H232.676C231.906 151.622 231.507 151.253 231.507 150.619V150.371C231.507 150.161 231.523 149.963 231.523 149.963H231.491C231.07 150.9 229.95 151.832 228.415 151.832C226.508 151.832 225.339 150.862 225.339 148.408V144.912L225.334 144.923Z" fill="white"/>
<path d="M236.555 144.411H235.402V142.63H236.61V140.176H238.779V142.63H240.805V144.411H238.779V148.044C238.779 149.527 239.931 149.737 240.543 149.737C240.789 149.737 240.947 149.704 240.947 149.704V151.661C240.947 151.661 240.669 151.716 240.264 151.716C239.024 151.716 236.56 151.347 236.56 148.331V144.416L236.555 144.411Z" fill="white"/>
<path d="M246.837 142.42C249.563 142.42 251.732 144.378 251.732 147.129C251.732 149.88 249.563 151.837 246.837 151.837C244.111 151.837 241.958 149.897 241.958 147.129C241.958 144.361 244.127 142.42 246.837 142.42ZM246.837 149.935C248.29 149.935 249.492 148.805 249.492 147.129C249.492 145.453 248.284 144.322 246.837 144.322C245.389 144.322 244.198 145.469 244.198 147.129C244.198 148.788 245.405 149.935 246.837 149.935Z" fill="white"/>
<path d="M253.742 144.923C253.742 144.659 253.6 144.537 253.36 144.537H252.66V142.63H254.687C255.474 142.63 255.878 142.966 255.878 143.721V144.251C255.878 144.587 255.845 144.813 255.845 144.813H255.878C256.282 143.528 257.348 142.503 258.708 142.503C258.899 142.503 259.112 142.536 259.112 142.536V144.741C259.112 144.741 258.883 144.708 258.571 144.708C257.626 144.708 256.545 145.254 256.14 146.594C256.02 147.035 255.949 147.531 255.949 148.061V151.622H253.747V144.918L253.742 144.923Z" fill="white"/>
<path d="M264.248 142.42C266.799 142.42 268.197 144.306 268.197 146.688C268.197 146.952 268.143 147.515 268.143 147.515H261.991C262.166 149.103 263.319 149.93 264.668 149.93C266.1 149.93 267.17 148.926 267.17 148.926L268.099 150.481C268.099 150.481 266.733 151.837 264.515 151.837C261.56 151.837 259.724 149.687 259.724 147.129C259.724 144.361 261.576 142.42 264.253 142.42H264.248ZM265.925 145.965C265.892 144.89 265.154 144.146 264.248 144.146C263.111 144.146 262.308 144.835 262.062 145.965H265.925Z" fill="white"/>
<path d="M270.383 148.772C270.383 148.772 271.519 150.095 273.038 150.095C273.721 150.095 274.245 149.814 274.245 149.213C274.245 147.945 269.541 147.961 269.541 145.05C269.541 143.253 271.148 142.42 273.005 142.42C274.212 142.42 276.135 142.828 276.135 144.289V145.227H274.18V144.786C274.18 144.361 273.551 144.152 273.06 144.152C272.273 144.152 271.732 144.433 271.732 144.962C271.732 146.373 276.469 146.092 276.469 149.092C276.469 150.784 274.983 151.843 273.043 151.843C270.596 151.843 269.339 150.239 269.339 150.239L270.388 148.772H270.383Z" fill="white"/>
<path d="M74.7482 164.215V162.258H81.8284C82.6698 162.258 83.0194 162.628 83.0194 163.46V165.368H80.9543V164.607C80.9543 164.359 80.8123 164.221 80.5719 164.221H78.1791V167.766H82.1453V169.724H78.1791V174.785H75.89V164.215H74.7482Z" fill="white"/>
<path d="M88.9578 169.139H89.2364V169.067C89.2364 167.777 88.7284 167.303 87.592 167.303C87.1878 167.303 86.4011 167.408 86.4011 167.904V168.378H84.336V167.424C84.336 165.748 86.6797 165.572 87.603 165.572C90.5749 165.572 91.449 167.143 91.449 169.156V172.508C91.449 172.756 91.591 172.894 91.8314 172.894H92.5307V174.779H90.5367C89.7172 174.779 89.4003 174.322 89.4003 173.793C89.4003 173.561 89.4167 173.407 89.4167 173.407H89.3839C89.3839 173.407 88.7011 174.994 86.6906 174.994C85.1009 174.994 83.6477 173.991 83.6477 172.188C83.6477 169.365 87.4937 169.134 88.9469 169.134L88.9578 169.139ZM87.2424 173.252C88.4334 173.252 89.2692 171.984 89.2692 170.887V170.677H88.8868C87.7341 170.677 85.8985 170.837 85.8985 172.089C85.8985 172.69 86.3355 173.252 87.2424 173.252Z" fill="white"/>
<path d="M94.3281 168.08C94.3281 167.816 94.186 167.694 93.9456 167.694H93.2464V165.787H95.2896C96.0763 165.787 96.4587 166.156 96.4587 166.79V167.055C96.4587 167.248 96.4423 167.441 96.4423 167.441H96.4751C96.8957 166.559 97.961 165.572 99.3596 165.572C100.758 165.572 101.578 166.206 101.966 167.424H101.998C102.468 166.454 103.626 165.572 105.041 165.572C106.893 165.572 107.959 166.63 107.959 168.996V172.508C107.959 172.756 108.101 172.894 108.341 172.894H109.024V174.779H106.926C106.085 174.779 105.735 174.427 105.735 173.578V169.415C105.735 168.389 105.544 167.617 104.511 167.617C103.408 167.617 102.621 168.555 102.381 169.679C102.277 170.032 102.239 170.402 102.239 170.826V174.779H100.021V169.415C100.021 168.444 99.8786 167.617 98.8133 167.617C97.6934 167.617 96.9449 168.555 96.6608 169.701C96.5734 170.054 96.5188 170.424 96.5188 170.832V174.785H94.3171V168.08H94.3281Z" fill="white"/>
<path d="M110.881 168.08C110.881 167.816 110.739 167.694 110.499 167.694H109.8V165.787H111.914C112.733 165.787 113.083 166.156 113.083 166.989V172.508C113.083 172.756 113.225 172.894 113.465 172.894H114.165V174.779H112.05C111.231 174.779 110.881 174.427 110.881 173.578V168.075V168.08ZM110.985 162.258H112.908V164.32H110.985V162.258Z" fill="white"/>
<path d="M115.984 164.552C115.984 164.287 115.842 164.166 115.601 164.166H114.902V162.258H117.016C117.836 162.258 118.207 162.628 118.207 163.46V172.513C118.207 172.761 118.349 172.899 118.59 172.899H119.273V174.785H117.175C116.334 174.785 115.984 174.432 115.984 173.583V164.552Z" fill="white"/>
<path d="M121.196 168.08C121.196 167.816 121.054 167.694 120.813 167.694H120.114V165.787H122.228C123.048 165.787 123.397 166.156 123.397 166.989V172.508C123.397 172.756 123.539 172.894 123.78 172.894H124.479V174.779H122.365C121.545 174.779 121.196 174.427 121.196 173.578V168.075V168.08ZM121.3 162.258H123.223V164.32H121.3V162.258Z" fill="white"/>
<path d="M130.773 169.139H131.051V169.067C131.051 167.777 130.543 167.303 129.407 167.303C129.003 167.303 128.216 167.408 128.216 167.904V168.378H126.151V167.424C126.151 165.748 128.494 165.572 129.418 165.572C132.39 165.572 133.264 167.143 133.264 169.156V172.508C133.264 172.756 133.406 172.894 133.646 172.894H134.345V174.779H132.351C131.532 174.779 131.215 174.322 131.215 173.793C131.215 173.561 131.231 173.407 131.231 173.407H131.199C131.199 173.407 130.516 174.994 128.505 174.994C126.916 174.994 125.462 173.991 125.462 172.188C125.462 169.365 129.308 169.134 130.762 169.134L130.773 169.139ZM129.057 173.252C130.248 173.252 131.084 171.984 131.084 170.887V170.677H130.702C129.549 170.677 127.713 170.837 127.713 172.089C127.713 172.69 128.15 173.252 129.057 173.252Z" fill="white"/>
<path d="M136.143 168.08C136.143 167.816 136.001 167.694 135.76 167.694H135.061V165.787H137.088C137.875 165.787 138.279 166.123 138.279 166.879V167.408C138.279 167.744 138.246 167.97 138.246 167.97H138.279C138.683 166.686 139.748 165.66 141.109 165.66C141.3 165.66 141.513 165.693 141.513 165.693V167.899C141.513 167.899 141.284 167.865 140.972 167.865C140.027 167.865 138.945 168.411 138.541 169.751C138.421 170.192 138.35 170.688 138.35 171.218V174.779H136.148V168.075L136.143 168.08Z" fill="white"/>
<path d="M146.648 165.577C149.2 165.577 150.598 167.463 150.598 169.845C150.598 170.109 150.544 170.672 150.544 170.672H144.392C144.567 172.26 145.72 173.087 147.069 173.087C148.5 173.087 149.571 172.083 149.571 172.083L150.5 173.638C150.5 173.638 149.134 174.994 146.916 174.994C143.961 174.994 142.125 172.844 142.125 170.286C142.125 167.518 143.977 165.577 146.654 165.577H146.648ZM148.326 169.123C148.293 168.047 147.555 167.303 146.648 167.303C145.512 167.303 144.709 167.992 144.463 169.123H148.326Z" fill="white"/>
<path d="M152.783 171.929C152.783 171.929 153.92 173.252 155.439 173.252C156.121 173.252 156.646 172.971 156.646 172.37C156.646 171.102 151.942 171.118 151.942 168.207C151.942 166.41 153.548 165.577 155.406 165.577C156.613 165.577 158.536 165.985 158.536 167.446V168.384H156.58V167.943C156.58 167.518 155.952 167.309 155.46 167.309C154.674 167.309 154.133 167.59 154.133 168.119C154.133 169.531 158.869 169.249 158.869 172.249C158.869 173.941 157.383 175 155.444 175C152.997 175 151.74 173.396 151.74 173.396L152.789 171.929H152.783Z" fill="white"/>
<path d="M171.052 162.049C174.707 162.049 177.466 164.855 177.466 168.433C177.466 172.012 174.702 174.994 171.052 174.994C167.403 174.994 164.638 172.116 164.638 168.433C164.638 164.75 167.403 162.049 171.052 162.049ZM171.052 172.844C173.292 172.844 175.089 170.936 175.089 168.433C175.089 165.93 173.287 164.199 171.052 164.199C168.818 164.199 167.015 166.035 167.015 168.433C167.015 170.832 168.818 172.844 171.052 172.844Z" fill="white"/>
<path d="M179.531 168.08C179.531 167.816 179.389 167.694 179.149 167.694H178.449V165.787H180.563C181.383 165.787 181.733 166.156 181.733 166.967V171.113C181.733 172.205 182.011 172.949 183.115 172.949C184.721 172.949 185.617 171.521 185.617 169.916V165.787H187.835V172.508C187.835 172.756 187.977 172.894 188.217 172.894H188.917V174.779H186.873C186.103 174.779 185.704 174.41 185.704 173.776V173.528C185.704 173.318 185.721 173.12 185.721 173.12H185.688C185.267 174.057 184.147 174.989 182.612 174.989C180.706 174.989 179.536 174.019 179.536 171.565V168.069L179.531 168.08Z" fill="white"/>
<path d="M190.719 168.08C190.719 167.816 190.577 167.694 190.337 167.694H189.638V165.787H191.665C192.451 165.787 192.856 166.123 192.856 166.879V167.408C192.856 167.744 192.823 167.97 192.823 167.97H192.856C193.26 166.686 194.325 165.66 195.685 165.66C195.877 165.66 196.09 165.693 196.09 165.693V167.899C196.09 167.899 195.86 167.865 195.549 167.865C194.604 167.865 193.522 168.411 193.118 169.751C192.998 170.192 192.927 170.688 192.927 171.218V174.779H190.725V168.075L190.719 168.08Z" fill="white"/>
<path d="M201.575 165.577C204.301 165.577 206.47 167.535 206.47 170.286C206.47 173.037 204.301 174.994 201.575 174.994C198.849 174.994 196.696 173.054 196.696 170.286C196.696 167.518 198.865 165.577 201.575 165.577ZM201.575 173.092C203.028 173.092 204.23 171.962 204.23 170.286C204.23 168.61 203.022 167.479 201.575 167.479C200.127 167.479 198.936 168.626 198.936 170.286C198.936 171.945 200.143 173.092 201.575 173.092Z" fill="white"/>
<path d="M212.31 164.607C212.206 164.309 212.064 164.221 211.769 164.221H211.452V162.264H212.905C213.779 162.264 214.096 162.495 214.375 163.289L216.751 170.275C216.997 170.981 217.221 172.111 217.221 172.111H217.254C217.254 172.111 217.483 170.981 217.724 170.275L220.1 163.289C220.379 162.495 220.679 162.264 221.553 162.264H223.023V164.221H222.69C222.395 164.221 222.253 164.309 222.149 164.607L218.445 174.785H216.03L212.304 164.607H212.31Z" fill="white"/>
<path d="M227.377 165.577C229.928 165.577 231.327 167.463 231.327 169.845C231.327 170.109 231.272 170.672 231.272 170.672H225.121C225.296 172.26 226.448 173.087 227.798 173.087C229.229 173.087 230.3 172.083 230.3 172.083L231.228 173.638C231.228 173.638 229.863 174.994 227.645 174.994C224.689 174.994 222.854 172.844 222.854 170.286C222.854 167.518 224.705 165.577 227.382 165.577H227.377ZM229.054 169.123C229.021 168.047 228.284 167.303 227.377 167.303C226.241 167.303 225.438 167.992 225.192 169.123H229.054Z" fill="white"/>
<path d="M233.479 168.08C233.479 167.816 233.337 167.694 233.097 167.694H232.398V165.787H234.424C235.211 165.787 235.615 166.123 235.615 166.879V167.408C235.615 167.744 235.583 167.97 235.583 167.97H235.615C236.02 166.686 237.085 165.66 238.445 165.66C238.636 165.66 238.85 165.693 238.85 165.693V167.899C238.85 167.899 238.62 167.865 238.309 167.865C237.364 167.865 236.282 168.411 235.878 169.751C235.757 170.192 235.686 170.688 235.686 171.218V174.779H233.485V168.075L233.479 168.08Z" fill="white"/>
<path d="M243.515 165.577C245.454 165.577 246.083 166.669 246.083 166.669H246.115C246.115 166.669 246.099 166.437 246.099 166.14V164.552C246.099 164.287 245.957 164.166 245.717 164.166H245.017V162.258H247.132C247.951 162.258 248.323 162.628 248.323 163.46V172.513C248.323 172.761 248.465 172.899 248.705 172.899H249.388V174.785H247.345C246.542 174.785 246.241 174.399 246.241 173.87V173.533H246.208C246.208 173.533 245.476 175 243.428 175C241.013 175 239.461 173.076 239.461 170.291C239.461 167.507 241.155 165.583 243.515 165.583V165.577ZM246.154 170.269C246.154 168.874 245.438 167.502 243.952 167.502C242.728 167.502 241.712 168.505 241.712 170.291C241.712 172.078 242.603 173.114 243.914 173.114C245.067 173.114 246.154 172.265 246.154 170.275V170.269Z" fill="white"/>
<path d="M254.862 165.577C257.413 165.577 258.812 167.463 258.812 169.845C258.812 170.109 258.757 170.672 258.757 170.672H252.606C252.78 172.26 253.933 173.087 255.283 173.087C256.714 173.087 257.785 172.083 257.785 172.083L258.713 173.638C258.713 173.638 257.348 174.994 255.13 174.994C252.174 174.994 250.338 172.844 250.338 170.286C250.338 167.518 252.19 165.577 254.867 165.577H254.862ZM256.539 169.123C256.506 168.047 255.769 167.303 254.862 167.303C253.726 167.303 252.923 167.992 252.677 169.123H256.539Z" fill="white"/>
<path fill-rule="evenodd" clip-rule="evenodd" d="M277.115 53.3601C278.142 53.8332 278.852 53.8332 279.404 53.6755C279.404 54.2275 279.72 54.7795 280.588 55.4103C284.613 58.4857 292.19 53.9909 296.847 46.4208C301.504 38.8506 301.898 30.3342 297.478 27.8897C296.926 27.5742 296.689 27.6531 296.373 27.6531C296.058 27.1011 295.663 26.5491 294.874 25.9972C290.849 22.9218 282.404 27.2588 277.747 34.9078C273.09 42.478 272.538 51.3887 277.115 53.439V53.3601ZM286.271 39.0872C287.409 38.1684 288.475 37.3285 289.458 36.554C292.017 34.5368 294.014 32.9634 295.268 31.5959V32.5422C295.193 35.878 291.761 38.6308 288.269 41.4311L287.849 41.7683C284.219 44.686 282.719 47.2882 281.614 49.3385L281.726 48.7576C282.33 45.6097 283.081 41.6894 286.35 39.166L286.271 39.0872ZM299.767 53.2024C301.267 49.023 302.845 47.8402 307.502 47.8402H315V58.0914H313.264C311.685 58.0914 310.975 58.5646 310.422 60.1417L290.77 113.606H277.984L258.252 60.1417C257.7 58.5646 256.989 58.0914 255.411 58.0914H253.753V47.8402H261.488C266.145 47.8402 267.802 49.023 269.302 53.2024L281.93 89.8703C283.272 93.5765 284.456 99.4907 284.456 99.4907H284.613C284.613 99.4907 285.876 93.5765 287.139 89.8703L299.767 53.2024ZM66.4615 108.323C67.9612 112.502 69.6187 113.685 74.2753 113.685H81.5363V103.433H80.0368C78.4582 103.433 77.7479 103.039 77.1954 101.383L57.7008 47.919H44.9935L25.3409 101.304C24.7883 102.96 24.078 103.355 22.4997 103.355H21V113.606H28.3401C32.9967 113.606 34.5753 112.423 36.0748 108.244L40.1791 96.7308H62.4363L66.5403 108.244L66.4615 108.323ZM42.9414 86.7949L48.6241 70.3141C49.8081 66.6867 51.2287 60.4571 51.2287 60.4571H51.3867C51.3867 60.4571 52.8073 66.6867 53.991 70.3141L59.6739 86.7949H42.9414ZM144.598 113.685H156.753V87.1103H177.826V76.8591H156.753V58.2491H169.46C170.723 58.2491 171.512 58.9588 171.512 60.2994V64.321H182.483V54.3064C182.483 49.9693 180.668 47.9979 176.169 47.9979H138.6V58.2491H144.598V113.685ZM113.502 70.3929L113.962 70.0235C117.038 67.5573 119.977 65.2002 120.052 62.2708V61.4823C118.949 62.7009 117.118 64.1331 114.813 65.9361L114.801 65.9458L114.798 65.9475L114.771 65.9685L114.717 66.011C114.34 66.306 113.951 66.6109 113.549 66.9264C113.1 67.2798 112.636 67.6464 112.16 68.0273C109.161 70.4718 108.529 74.178 108.055 77.0168L108.106 76.9272C109.123 75.128 110.397 72.8749 113.58 70.3929H113.502ZM102.215 113.685H90.0604V58.1703H84.062V47.919H114.212C126.603 47.919 135.206 56.5143 135.206 69.289C135.206 82.0636 126.524 90.9743 114.212 90.9743H102.215V113.685ZM119.658 56.5932C116.106 53.9121 108.687 57.6972 104.583 64.3999C100.479 71.1026 100.005 78.9093 104.03 80.7231C104.977 81.1173 105.609 81.1173 106.082 80.9596C106.082 81.4328 106.319 81.9847 107.109 82.5367C110.66 85.2178 117.29 81.3539 121.394 74.6511C125.498 67.9484 125.814 60.4571 121.947 58.328C121.552 58.0914 121.236 58.0914 120.999 58.0914L120.901 57.9417C120.614 57.5045 120.294 57.0172 119.658 56.5932ZM252.569 80.3288C252.569 99.6484 237.968 114.789 218.552 114.789C199.215 114.789 184.535 99.0964 184.535 80.3288C184.535 61.5611 199.215 46.8151 218.552 46.8151C237.889 46.8151 252.569 61.0091 252.569 80.3288ZM230.661 99.4649C231.63 98.4147 232.1 97.5292 232.182 96.7478C232.876 96.8388 233.709 96.5753 234.833 95.7941C240.535 91.8374 238.035 80.0515 230.166 70.6642C222.291 61.2824 211.419 57.0848 206.335 61.8149C205.81 62.3033 205.482 62.7227 205.316 63.0888C204.532 63.2794 203.662 63.7091 202.676 64.3929C196.973 68.3551 198.961 81.234 206.831 90.6157C214.7 99.9974 225.95 104.571 230.661 99.4649ZM220.163 80.427C222.362 86.4052 225.134 89.5282 227.276 91.8918L226.917 91.6938C223.024 89.5458 218.066 86.8106 216.042 81.3068H216.036C215.359 79.4637 214.746 77.7381 214.179 76.1403L214.174 76.1283C212.67 71.8885 211.484 68.5485 210.247 66.2949C210.639 66.4222 211.037 66.5567 211.431 66.7019C215.708 68.2759 217.807 74.0028 219.954 79.8606L220.163 80.427Z" fill="white"/>
</svg>
