<svg width="336" height="200" viewBox="0 0 336 200" fill="none" xmlns="http://www.w3.org/2000/svg">
<rect width="336" height="200" rx="20" fill="#534B4B"/>
<path d="M74.9957 152.683L79.3696 140.912H80.3057L84.6797 152.683H83.9245L79.7315 141.302H79.9281L75.7352 152.683H74.9957ZM76.9938 148.571L77.1905 147.919H82.4848L82.6736 148.571H76.9938Z" fill="white"/>
<path d="M88.0685 152.826C87.6699 152.826 87.2923 152.8 86.9357 152.747C86.5791 152.694 86.2251 152.611 85.8737 152.5V151.84C86.2933 151.967 86.6761 152.057 87.0222 152.11C87.3736 152.163 87.7303 152.19 88.0921 152.19C88.905 152.19 89.5003 152.041 89.8779 151.744C90.2607 151.442 90.4522 151.018 90.4522 150.472C90.4522 150 90.3315 149.639 90.0903 149.39C89.8543 149.136 89.4557 148.948 88.8945 148.826L87.8483 148.595C87.0826 148.42 86.5397 148.144 86.2198 147.768C85.8999 147.386 85.74 146.906 85.74 146.328C85.74 145.644 85.9917 145.08 86.4952 144.634C87.0039 144.183 87.7827 143.958 88.8316 143.958C89.1725 143.958 89.4977 143.977 89.8071 144.014C90.1165 144.051 90.4207 144.112 90.7196 144.197V144.849C90.3735 144.753 90.0536 144.687 89.7599 144.65C89.4714 144.613 89.1646 144.594 88.8395 144.594C88.2626 144.594 87.7984 144.671 87.4471 144.825C87.1009 144.973 86.8492 145.178 86.6918 145.437C86.5345 145.692 86.4558 145.978 86.4558 146.296C86.4558 146.71 86.566 147.052 86.7862 147.322C87.0065 147.593 87.3946 147.792 87.9505 147.919L88.9968 148.142C89.794 148.317 90.3525 148.592 90.6724 148.969C90.9976 149.34 91.1602 149.825 91.1602 150.424C91.1602 151.161 90.9006 151.747 90.3814 152.182C89.8674 152.611 89.0964 152.826 88.0685 152.826Z" fill="white"/>
<path d="M94.8905 152.826C94.4919 152.826 94.1143 152.8 93.7577 152.747C93.401 152.694 93.047 152.611 92.6957 152.5V151.84C93.1152 151.967 93.4981 152.057 93.8442 152.11C94.1956 152.163 94.5522 152.19 94.9141 152.19C95.727 152.19 96.3222 152.041 96.6998 151.744C97.0827 151.442 97.2741 151.018 97.2741 150.472C97.2741 150 97.1535 149.639 96.9122 149.39C96.6762 149.136 96.2777 148.948 95.7165 148.826L94.6702 148.595C93.9045 148.42 93.3617 148.144 93.0418 147.768C92.7219 147.386 92.5619 146.906 92.5619 146.328C92.5619 145.644 92.8137 145.08 93.3171 144.634C93.8258 144.183 94.6047 143.958 95.6536 143.958C95.9945 143.958 96.3196 143.977 96.629 144.014C96.9385 144.051 97.2426 144.112 97.5416 144.197V144.849C97.1954 144.753 96.8755 144.687 96.5818 144.65C96.2934 144.613 95.9866 144.594 95.6614 144.594C95.0845 144.594 94.6204 144.671 94.269 144.825C93.9229 144.973 93.6711 145.178 93.5138 145.437C93.3565 145.692 93.2778 145.978 93.2778 146.296C93.2778 146.71 93.3879 147.052 93.6082 147.322C93.8285 147.593 94.2166 147.792 94.7725 147.919L95.8188 148.142C96.6159 148.317 97.1745 148.592 97.4944 148.969C97.8195 149.34 97.9821 149.825 97.9821 150.424C97.9821 151.161 97.7225 151.747 97.2033 152.182C96.6894 152.611 95.9184 152.826 94.8905 152.826Z" fill="white"/>
<path d="M102.806 152.826C102.129 152.826 101.537 152.678 101.028 152.381C100.519 152.078 100.123 151.601 99.8402 150.949C99.5622 150.297 99.4232 149.443 99.4232 148.388C99.4232 147.338 99.5622 146.487 99.8402 145.835C100.123 145.183 100.519 144.708 101.028 144.411C101.537 144.109 102.129 143.958 102.806 143.958C103.488 143.958 104.083 144.107 104.592 144.404C105.1 144.7 105.494 145.175 105.772 145.827C106.055 146.474 106.197 147.328 106.197 148.388C106.197 149.433 106.055 150.284 105.772 150.941C105.488 151.593 105.093 152.071 104.584 152.373C104.08 152.675 103.488 152.826 102.806 152.826ZM102.806 152.182C103.346 152.182 103.815 152.065 104.214 151.832C104.613 151.593 104.919 151.198 105.134 150.647C105.35 150.095 105.457 149.348 105.457 148.404C105.457 147.45 105.35 146.697 105.134 146.145C104.919 145.589 104.613 145.194 104.214 144.96C103.815 144.722 103.346 144.602 102.806 144.602C102.271 144.602 101.804 144.719 101.406 144.952C101.007 145.186 100.698 145.578 100.477 146.129C100.262 146.676 100.155 147.42 100.155 148.364C100.155 149.319 100.262 150.074 100.477 150.631C100.698 151.188 101.007 151.585 101.406 151.824C101.804 152.063 102.271 152.182 102.806 152.182Z" fill="white"/>
<path d="M111.336 152.826C110.596 152.826 109.967 152.675 109.448 152.373C108.928 152.071 108.532 151.593 108.26 150.941C107.992 150.289 107.858 149.438 107.858 148.388C107.858 147.333 108.003 146.482 108.291 145.835C108.585 145.183 109.015 144.708 109.581 144.411C110.153 144.109 110.853 143.958 111.682 143.958C111.954 143.958 112.235 143.977 112.523 144.014C112.817 144.051 113.092 144.107 113.349 144.181V144.849C113.072 144.769 112.794 144.711 112.516 144.674C112.243 144.632 111.978 144.61 111.721 144.61C111.024 144.61 110.444 144.73 109.983 144.968C109.521 145.207 109.175 145.599 108.944 146.145C108.713 146.691 108.598 147.428 108.598 148.356C108.598 149.295 108.703 150.045 108.913 150.607C109.128 151.164 109.445 151.564 109.865 151.808C110.284 152.052 110.801 152.174 111.414 152.174C111.692 152.174 111.989 152.145 112.303 152.086C112.618 152.023 112.967 151.925 113.349 151.792V152.46C113.014 152.582 112.676 152.672 112.335 152.731C111.999 152.794 111.666 152.826 111.336 152.826Z" fill="white"/>
<path d="M114.945 152.683V144.085H115.645V152.683H114.945ZM115.291 141.938C115.118 141.938 114.977 141.888 114.867 141.787C114.762 141.686 114.709 141.548 114.709 141.373C114.709 141.198 114.762 141.058 114.867 140.952C114.977 140.846 115.118 140.793 115.291 140.793C115.464 140.793 115.603 140.846 115.708 140.952C115.818 141.058 115.873 141.198 115.873 141.373C115.873 141.548 115.818 141.686 115.708 141.787C115.603 141.888 115.464 141.938 115.291 141.938Z" fill="white"/>
<path d="M120.278 152.81C119.507 152.81 118.896 152.611 118.445 152.214C117.999 151.816 117.776 151.257 117.776 150.536C117.776 149.814 118.007 149.252 118.469 148.849C118.93 148.441 119.662 148.181 120.663 148.07L123.173 147.776L123.22 148.372L120.671 148.674C119.911 148.759 119.363 148.95 119.027 149.247C118.691 149.539 118.524 149.947 118.524 150.472C118.524 151.029 118.678 151.453 118.988 151.744C119.297 152.036 119.756 152.182 120.364 152.182C120.81 152.182 121.251 152.084 121.686 151.888C122.121 151.686 122.512 151.357 122.858 150.901V146.797C122.858 146.22 122.769 145.771 122.591 145.453C122.412 145.135 122.15 144.915 121.804 144.793C121.463 144.666 121.044 144.602 120.545 144.602C120.225 144.602 119.866 144.634 119.468 144.698C119.069 144.756 118.665 144.857 118.256 145V144.34C118.592 144.218 118.969 144.125 119.389 144.062C119.809 143.993 120.207 143.958 120.585 143.958C121.219 143.958 121.757 144.046 122.197 144.221C122.643 144.396 122.981 144.692 123.212 145.111C123.443 145.525 123.558 146.092 123.558 146.813V152.683H122.945L122.89 151.681H122.819C122.536 152.036 122.169 152.314 121.718 152.516C121.272 152.712 120.792 152.81 120.278 152.81Z" fill="white"/>
<path d="M129.051 152.826C128.312 152.826 127.682 152.675 127.163 152.373C126.644 152.071 126.248 151.593 125.975 150.941C125.708 150.289 125.574 149.438 125.574 148.388C125.574 147.333 125.718 146.482 126.007 145.835C126.3 145.183 126.73 144.708 127.297 144.411C127.869 144.109 128.569 143.958 129.397 143.958C129.67 143.958 129.951 143.977 130.239 144.014C130.533 144.051 130.808 144.107 131.065 144.181V144.849C130.787 144.769 130.509 144.711 130.231 144.674C129.958 144.632 129.694 144.61 129.437 144.61C128.739 144.61 128.16 144.73 127.698 144.968C127.237 145.207 126.89 145.599 126.66 146.145C126.429 146.691 126.314 147.428 126.314 148.356C126.314 149.295 126.418 150.045 126.628 150.607C126.843 151.164 127.161 151.564 127.58 151.808C128 152.052 128.516 152.174 129.13 152.174C129.408 152.174 129.704 152.145 130.019 152.086C130.333 152.023 130.682 151.925 131.065 151.792V152.46C130.729 152.582 130.391 152.672 130.05 152.731C129.715 152.794 129.382 152.826 129.051 152.826ZM128.752 155.896C128.532 155.896 128.304 155.87 128.068 155.817C127.832 155.764 127.627 155.692 127.454 155.602V155.109C127.69 155.231 127.916 155.315 128.131 155.363C128.351 155.411 128.561 155.435 128.76 155.435C129.07 155.435 129.3 155.374 129.452 155.252C129.604 155.135 129.681 154.958 129.681 154.719C129.681 154.236 129.371 153.995 128.752 153.995H128.485V152.524H128.996V153.804L128.776 153.558C129.232 153.558 129.581 153.661 129.822 153.868C130.069 154.075 130.192 154.361 130.192 154.727C130.192 155.087 130.066 155.371 129.814 155.578C129.563 155.79 129.209 155.896 128.752 155.896Z" fill="white"/>
<path d="M134.659 152.81C133.888 152.81 133.277 152.611 132.826 152.214C132.381 151.816 132.158 151.257 132.158 150.536C132.158 149.814 132.388 149.252 132.85 148.849C133.311 148.441 134.043 148.181 135.045 148.07L137.554 147.776L137.601 148.372L135.053 148.674C134.292 148.759 133.744 148.95 133.409 149.247C133.073 149.539 132.905 149.947 132.905 150.472C132.905 151.029 133.06 151.453 133.369 151.744C133.679 152.036 134.137 152.182 134.746 152.182C135.192 152.182 135.632 152.084 136.067 151.888C136.503 151.686 136.893 151.357 137.24 150.901V146.797C137.24 146.22 137.15 145.771 136.972 145.453C136.794 145.135 136.532 144.915 136.185 144.793C135.845 144.666 135.425 144.602 134.927 144.602C134.607 144.602 134.248 144.634 133.849 144.698C133.45 144.756 133.047 144.857 132.638 145V144.34C132.973 144.218 133.351 144.125 133.77 144.062C134.19 143.993 134.589 143.958 134.966 143.958C135.601 143.958 136.138 144.046 136.579 144.221C137.025 144.396 137.363 144.692 137.594 145.111C137.824 145.525 137.94 146.092 137.94 146.813V152.683H137.326L137.271 151.681H137.2C136.917 152.036 136.55 152.314 136.099 152.516C135.653 152.712 135.173 152.81 134.659 152.81ZM136.272 141.771C136.057 141.771 135.85 141.736 135.651 141.668C135.456 141.593 135.268 141.516 135.084 141.437C134.922 141.368 134.762 141.304 134.604 141.246C134.447 141.188 134.287 141.159 134.124 141.159C133.888 141.159 133.673 141.206 133.479 141.302C133.285 141.392 133.102 141.535 132.929 141.731V141.111C133.222 140.777 133.624 140.61 134.132 140.61C134.347 140.61 134.552 140.647 134.746 140.721C134.945 140.79 135.137 140.864 135.32 140.944C135.488 141.018 135.651 141.084 135.808 141.143C135.965 141.201 136.123 141.23 136.28 141.23C136.521 141.23 136.736 141.182 136.925 141.087C137.119 140.992 137.303 140.846 137.476 140.65V141.278C137.182 141.607 136.781 141.771 136.272 141.771Z" fill="white"/>
<path d="M143.338 152.826C142.662 152.826 142.069 152.678 141.56 152.381C141.052 152.078 140.656 151.601 140.372 150.949C140.094 150.297 139.955 149.443 139.955 148.388C139.955 147.338 140.094 146.487 140.372 145.835C140.656 145.183 141.052 144.708 141.56 144.411C142.069 144.109 142.662 143.958 143.338 143.958C144.02 143.958 144.615 144.107 145.124 144.404C145.633 144.7 146.026 145.175 146.304 145.827C146.587 146.474 146.729 147.328 146.729 148.388C146.729 149.433 146.587 150.284 146.304 150.941C146.021 151.593 145.625 152.071 145.116 152.373C144.613 152.675 144.02 152.826 143.338 152.826ZM143.338 152.182C143.878 152.182 144.348 152.065 144.746 151.832C145.145 151.593 145.452 151.198 145.667 150.647C145.882 150.095 145.989 149.348 145.989 148.404C145.989 147.45 145.882 146.697 145.667 146.145C145.452 145.589 145.145 145.194 144.746 144.96C144.348 144.722 143.878 144.602 143.338 144.602C142.803 144.602 142.337 144.719 141.938 144.952C141.539 145.186 141.23 145.578 141.01 146.129C140.795 146.676 140.687 147.42 140.687 148.364C140.687 149.319 140.795 150.074 141.01 150.631C141.23 151.188 141.539 151.585 141.938 151.824C142.337 152.063 142.803 152.182 143.338 152.182Z" fill="white"/>
<path d="M151.62 152.683L155.994 140.912H156.93L161.304 152.683H160.549L156.356 141.302H156.552L152.359 152.683H151.62ZM153.618 148.571L153.815 147.919H159.109L159.298 148.571H153.618Z" fill="white"/>
<path d="M165.259 156.341C164.898 156.341 164.502 156.307 164.072 156.238C163.642 156.169 163.253 156.071 162.907 155.944V155.276C163.332 155.419 163.736 155.525 164.119 155.594C164.507 155.663 164.884 155.697 165.252 155.697C166.206 155.697 166.917 155.477 167.383 155.037C167.85 154.602 168.084 153.836 168.084 152.739V151.784H168.036C167.774 152.076 167.439 152.322 167.029 152.524C166.62 152.72 166.148 152.818 165.613 152.818C165.026 152.818 164.486 152.683 163.993 152.413C163.505 152.142 163.114 151.697 162.821 151.076C162.532 150.456 162.388 149.616 162.388 148.555C162.388 146.986 162.737 145.827 163.434 145.08C164.137 144.332 165.147 143.958 166.463 143.958C166.731 143.958 166.998 143.971 167.265 143.998C167.538 144.024 167.803 144.064 168.06 144.117C168.322 144.17 168.566 144.231 168.792 144.3V152.659C168.792 153.985 168.495 154.928 167.903 155.49C167.31 156.058 166.429 156.341 165.259 156.341ZM165.724 152.158C166.169 152.158 166.605 152.06 167.029 151.864C167.454 151.662 167.806 151.357 168.084 150.949V144.809C167.874 144.751 167.622 144.703 167.328 144.666C167.04 144.624 166.736 144.602 166.416 144.602C165.346 144.602 164.528 144.907 163.961 145.517C163.4 146.121 163.12 147.11 163.12 148.484C163.12 149.438 163.235 150.183 163.466 150.718C163.697 151.249 164.009 151.622 164.402 151.84C164.795 152.052 165.236 152.158 165.724 152.158Z" fill="white"/>
<path d="M171.411 152.683V144.085H172.017L172.079 145.247H172.142C172.457 144.849 172.845 144.544 173.307 144.332C173.773 144.12 174.248 144.014 174.731 144.014C174.856 144.014 174.972 144.019 175.077 144.03C175.182 144.035 175.286 144.048 175.391 144.069V144.761C175.281 144.745 175.171 144.735 175.061 144.73C174.956 144.724 174.838 144.722 174.707 144.722C174.413 144.722 174.104 144.772 173.779 144.873C173.459 144.973 173.152 145.127 172.858 145.334C172.57 145.541 172.321 145.801 172.111 146.113V152.683H171.411Z" fill="white"/>
<path d="M179.445 152.826C178.769 152.826 178.176 152.678 177.668 152.381C177.159 152.078 176.763 151.601 176.48 150.949C176.202 150.297 176.063 149.443 176.063 148.388C176.063 147.338 176.202 146.487 176.48 145.835C176.763 145.183 177.159 144.708 177.668 144.411C178.176 144.109 178.769 143.958 179.445 143.958C180.127 143.958 180.722 144.107 181.231 144.404C181.74 144.7 182.133 145.175 182.411 145.827C182.694 146.474 182.836 147.328 182.836 148.388C182.836 149.433 182.694 150.284 182.411 150.941C182.128 151.593 181.732 152.071 181.223 152.373C180.72 152.675 180.127 152.826 179.445 152.826ZM179.445 152.182C179.986 152.182 180.455 152.065 180.854 151.832C181.252 151.593 181.559 151.198 181.774 150.647C181.989 150.095 182.097 149.348 182.097 148.404C182.097 147.45 181.989 146.697 181.774 146.145C181.559 145.589 181.252 145.194 180.854 144.96C180.455 144.722 179.986 144.602 179.445 144.602C178.91 144.602 178.444 144.719 178.045 144.952C177.647 145.186 177.337 145.578 177.117 146.129C176.902 146.676 176.794 147.42 176.794 148.364C176.794 149.319 176.902 150.074 177.117 150.631C177.337 151.188 177.647 151.585 178.045 151.824C178.444 152.063 178.91 152.182 179.445 152.182Z" fill="white"/>
<path d="M188.235 152.826C187.438 152.826 186.758 152.678 186.197 152.381C185.641 152.078 185.219 151.601 184.931 150.949C184.642 150.297 184.498 149.441 184.498 148.38C184.498 147.346 184.632 146.503 184.899 145.851C185.167 145.199 185.539 144.722 186.016 144.419C186.499 144.112 187.063 143.958 187.708 143.958C188.353 143.958 188.906 144.112 189.368 144.419C189.829 144.722 190.183 145.199 190.43 145.851C190.681 146.503 190.807 147.349 190.807 148.388V148.666H184.852V148.062H190.319L190.091 148.261C190.091 147.354 189.997 146.633 189.808 146.098C189.619 145.557 189.347 145.167 188.99 144.928C188.633 144.69 188.206 144.571 187.708 144.571C187.204 144.571 186.766 144.69 186.394 144.928C186.027 145.162 185.741 145.549 185.536 146.09C185.332 146.625 185.23 147.349 185.23 148.261V148.46C185.23 149.366 185.348 150.093 185.584 150.639C185.82 151.185 186.166 151.58 186.622 151.824C187.078 152.063 187.637 152.182 188.298 152.182C188.618 152.182 188.948 152.15 189.289 152.086C189.63 152.023 190.002 151.927 190.406 151.8V152.46C190.018 152.587 189.645 152.68 189.289 152.739C188.937 152.797 188.586 152.826 188.235 152.826Z" fill="white"/>
<path d="M197.783 152.683L195.053 148.897L194.628 148.348L191.553 144.085H192.41L195.069 147.784L195.486 148.332L198.64 152.683H197.783ZM191.497 152.683L194.628 148.348L195.069 147.784L197.736 144.085H198.57L195.486 148.332L195.053 148.897L192.339 152.683H191.497Z" fill="white"/>
<path d="M203.025 152.826C202.228 152.826 201.604 152.617 201.153 152.198C200.702 151.779 200.476 151.1 200.476 150.162V144.085L200.579 140.912H201.184V150.042C201.184 150.822 201.347 151.371 201.672 151.689C202.002 152.007 202.482 152.166 203.112 152.166C203.279 152.166 203.45 152.155 203.623 152.134C203.801 152.108 203.995 152.071 204.205 152.023V152.691C204.001 152.739 203.801 152.773 203.607 152.794C203.418 152.815 203.224 152.826 203.025 152.826ZM198.777 144.722V144.085H204.048V144.722H198.777Z" fill="white"/>
<path d="M205.582 152.683V144.085H206.188L206.251 145.247H206.314C206.628 144.849 207.016 144.544 207.478 144.332C207.945 144.12 208.419 144.014 208.902 144.014C209.028 144.014 209.143 144.019 209.248 144.03C209.353 144.035 209.458 144.048 209.563 144.069V144.761C209.452 144.745 209.342 144.735 209.232 144.73C209.127 144.724 209.009 144.722 208.878 144.722C208.585 144.722 208.275 144.772 207.95 144.873C207.63 144.973 207.323 145.127 207.03 145.334C206.741 145.541 206.492 145.801 206.282 146.113V152.683H205.582Z" fill="white"/>
<path d="M212.712 152.81C211.941 152.81 211.33 152.611 210.879 152.214C210.434 151.816 210.211 151.257 210.211 150.536C210.211 149.814 210.442 149.252 210.903 148.849C211.365 148.441 212.096 148.181 213.098 148.07L215.607 147.776L215.655 148.372L213.106 148.674C212.345 148.759 211.797 148.95 211.462 149.247C211.126 149.539 210.958 149.947 210.958 150.472C210.958 151.029 211.113 151.453 211.422 151.744C211.732 152.036 212.191 152.182 212.799 152.182C213.245 152.182 213.685 152.084 214.121 151.888C214.556 151.686 214.947 151.357 215.293 150.901V146.797C215.293 146.22 215.204 145.771 215.025 145.453C214.847 145.135 214.585 144.915 214.239 144.793C213.898 144.666 213.478 144.602 212.98 144.602C212.66 144.602 212.301 144.634 211.902 144.698C211.504 144.756 211.1 144.857 210.691 145V144.34C211.026 144.218 211.404 144.125 211.823 144.062C212.243 143.993 212.642 143.958 213.019 143.958C213.654 143.958 214.191 144.046 214.632 144.221C215.078 144.396 215.416 144.692 215.647 145.111C215.877 145.525 215.993 146.092 215.993 146.813V152.683H215.379L215.324 151.681H215.253C214.97 152.036 214.603 152.314 214.152 152.516C213.706 152.712 213.226 152.81 212.712 152.81Z" fill="white"/>
<path d="M221.494 152.826C220.696 152.826 220.072 152.617 219.621 152.198C219.17 151.779 218.945 151.1 218.945 150.162V144.085L219.047 140.912H219.653V150.042C219.653 150.822 219.815 151.371 220.14 151.689C220.471 152.007 220.951 152.166 221.58 152.166C221.748 152.166 221.918 152.155 222.091 152.134C222.27 152.108 222.464 152.071 222.674 152.023V152.691C222.469 152.739 222.27 152.773 222.076 152.794C221.887 152.815 221.693 152.826 221.494 152.826ZM217.245 144.722V144.085H222.516V144.722H217.245Z" fill="white"/>
<path d="M224.066 152.683V144.085H224.766V152.683H224.066ZM224.412 141.938C224.239 141.938 224.097 141.888 223.987 141.787C223.882 141.686 223.83 141.548 223.83 141.373C223.83 141.198 223.882 141.058 223.987 140.952C224.097 140.846 224.239 140.793 224.412 140.793C224.585 140.793 224.724 140.846 224.829 140.952C224.939 141.058 224.994 141.198 224.994 141.373C224.994 141.548 224.939 141.686 224.829 141.787C224.724 141.888 224.585 141.938 224.412 141.938Z" fill="white"/>
<path d="M229.579 152.683L226.26 144.085H227.031L230.138 152.246H229.996L233.104 144.085H233.843L230.523 152.683H229.579Z" fill="white"/>
<path d="M235.328 152.683V144.085H236.028V152.683H235.328ZM235.674 141.938C235.501 141.938 235.36 141.888 235.25 141.787C235.145 141.686 235.092 141.548 235.092 141.373C235.092 141.198 235.145 141.058 235.25 140.952C235.36 140.846 235.501 140.793 235.674 140.793C235.847 140.793 235.986 140.846 236.091 140.952C236.201 141.058 236.257 141.198 236.257 141.373C236.257 141.548 236.201 141.686 236.091 141.787C235.986 141.888 235.847 141.938 235.674 141.938Z" fill="white"/>
<path d="M240.456 152.826C240.058 152.826 239.68 152.8 239.324 152.747C238.967 152.694 238.613 152.611 238.262 152.5V151.84C238.681 151.967 239.064 152.057 239.41 152.11C239.761 152.163 240.118 152.19 240.48 152.19C241.293 152.19 241.888 152.041 242.266 151.744C242.649 151.442 242.84 151.018 242.84 150.472C242.84 150 242.719 149.639 242.478 149.39C242.242 149.136 241.844 148.948 241.282 148.826L240.236 148.595C239.47 148.42 238.928 148.144 238.608 147.768C238.288 147.386 238.128 146.906 238.128 146.328C238.128 145.644 238.38 145.08 238.883 144.634C239.392 144.183 240.171 143.958 241.219 143.958C241.56 143.958 241.885 143.977 242.195 144.014C242.504 144.051 242.809 144.112 243.107 144.197V144.849C242.761 144.753 242.441 144.687 242.148 144.65C241.859 144.613 241.552 144.594 241.227 144.594C240.65 144.594 240.186 144.671 239.835 144.825C239.489 144.973 239.237 145.178 239.08 145.437C238.922 145.692 238.844 145.978 238.844 146.296C238.844 146.71 238.954 147.052 239.174 147.322C239.394 147.593 239.782 147.792 240.338 147.919L241.385 148.142C242.182 148.317 242.74 148.592 243.06 148.969C243.385 149.34 243.548 149.825 243.548 150.424C243.548 151.161 243.288 151.747 242.769 152.182C242.255 152.611 241.484 152.826 240.456 152.826Z" fill="white"/>
<path d="M248.382 152.826C247.585 152.826 246.961 152.617 246.51 152.198C246.059 151.779 245.833 151.1 245.833 150.162V144.085L245.935 140.912H246.541V150.042C246.541 150.822 246.704 151.371 247.029 151.689C247.359 152.007 247.839 152.166 248.468 152.166C248.636 152.166 248.807 152.155 248.98 152.134C249.158 152.108 249.352 152.071 249.562 152.023V152.691C249.357 152.739 249.158 152.773 248.964 152.794C248.775 152.815 248.581 152.826 248.382 152.826ZM244.134 144.722V144.085H249.405V144.722H244.134Z" fill="white"/>
<path d="M252.953 152.81C252.182 152.81 251.571 152.611 251.12 152.214C250.674 151.816 250.451 151.257 250.451 150.536C250.451 149.814 250.682 149.252 251.143 148.849C251.605 148.441 252.336 148.181 253.338 148.07L255.848 147.776L255.895 148.372L253.346 148.674C252.586 148.759 252.038 148.95 251.702 149.247C251.366 149.539 251.198 149.947 251.198 150.472C251.198 151.029 251.353 151.453 251.663 151.744C251.972 152.036 252.431 152.182 253.039 152.182C253.485 152.182 253.926 152.084 254.361 151.888C254.796 151.686 255.187 151.357 255.533 150.901V146.797C255.533 146.22 255.444 145.771 255.266 145.453C255.087 145.135 254.825 144.915 254.479 144.793C254.138 144.666 253.718 144.602 253.22 144.602C252.9 144.602 252.541 144.634 252.142 144.698C251.744 144.756 251.34 144.857 250.931 145V144.34C251.267 144.218 251.644 144.125 252.064 144.062C252.483 143.993 252.882 143.958 253.26 143.958C253.894 143.958 254.432 144.046 254.872 144.221C255.318 144.396 255.656 144.692 255.887 145.111C256.118 145.525 256.233 146.092 256.233 146.813V152.683H255.62L255.564 151.681H255.494C255.21 152.036 254.843 152.314 254.392 152.516C253.947 152.712 253.467 152.81 252.953 152.81Z" fill="white"/>
<path d="M110.511 171.555L114.879 159.967H115.814L120.182 171.555H119.428L115.24 160.351H115.437L111.249 171.555H110.511ZM112.506 167.507L112.703 166.865H117.99L118.179 167.507H112.506Z" fill="white"/>
<path d="M121.76 171.555V163.091H122.364L122.427 164.234H122.49C122.804 163.843 123.192 163.543 123.653 163.334C124.119 163.125 124.593 163.021 125.075 163.021C125.201 163.021 125.316 163.026 125.421 163.036C125.525 163.042 125.63 163.055 125.735 163.076V163.757C125.625 163.741 125.515 163.731 125.405 163.725C125.3 163.72 125.182 163.718 125.051 163.718C124.758 163.718 124.449 163.767 124.124 163.866C123.805 163.966 123.498 164.117 123.205 164.32C122.917 164.524 122.668 164.78 122.459 165.088V171.555H121.76Z" fill="white"/>
<path d="M127.161 171.555V163.091H127.86V171.555H127.161ZM127.507 160.977C127.334 160.977 127.192 160.928 127.082 160.829C126.978 160.729 126.925 160.594 126.925 160.421C126.925 160.249 126.978 160.111 127.082 160.006C127.192 159.902 127.334 159.85 127.507 159.85C127.679 159.85 127.818 159.902 127.923 160.006C128.033 160.111 128.088 160.249 128.088 160.421C128.088 160.594 128.033 160.729 127.923 160.829C127.818 160.928 127.679 160.977 127.507 160.977Z" fill="white"/>
<path d="M130.475 175V163.091H131.088L131.151 164.031H131.206C131.468 163.718 131.803 163.462 132.211 163.264C132.62 163.065 133.078 162.966 133.586 162.966C134.194 162.966 134.746 163.099 135.244 163.365C135.742 163.626 136.137 164.065 136.43 164.681C136.724 165.291 136.87 166.119 136.87 167.163C136.87 168.196 136.713 169.05 136.399 169.723C136.09 170.391 135.626 170.887 135.008 171.211C134.396 171.534 133.639 171.696 132.738 171.696C132.471 171.696 132.201 171.683 131.929 171.657C131.656 171.631 131.405 171.602 131.174 171.571V175H130.475ZM132.761 171.062C133.877 171.062 134.718 170.762 135.283 170.161C135.854 169.561 136.14 168.588 136.14 167.241C136.14 166.296 136.024 165.563 135.794 165.041C135.564 164.514 135.249 164.143 134.851 163.929C134.453 163.715 134.003 163.608 133.5 163.608C133.065 163.608 132.638 163.71 132.219 163.913C131.806 164.112 131.457 164.43 131.174 164.869V170.889C131.389 170.942 131.638 170.983 131.921 171.015C132.209 171.046 132.489 171.062 132.761 171.062Z" fill="white"/>
<path d="M141.521 171.696C141.013 171.696 140.56 171.607 140.162 171.43C139.769 171.247 139.46 170.947 139.235 170.529C139.009 170.112 138.897 169.553 138.897 168.854V163.091H139.604V168.846C139.604 169.665 139.79 170.237 140.162 170.561C140.534 170.879 141.013 171.038 141.599 171.038C141.887 171.038 142.191 170.994 142.511 170.905C142.835 170.816 143.147 170.675 143.446 170.482C143.749 170.289 144.019 170.033 144.255 169.715V163.091H144.954V171.555H144.349L144.286 170.592H144.223C143.862 170.963 143.446 171.239 142.974 171.422C142.503 171.605 142.018 171.696 141.521 171.696Z" fill="white"/>
<path d="M149.58 171.68C148.81 171.68 148.2 171.485 147.75 171.093C147.305 170.702 147.082 170.151 147.082 169.441C147.082 168.731 147.312 168.178 147.773 167.781C148.234 167.379 148.965 167.123 149.965 167.014L152.471 166.724L152.519 167.311L149.973 167.609C149.214 167.692 148.666 167.88 148.331 168.173C147.996 168.46 147.828 168.862 147.828 169.378C147.828 169.926 147.983 170.344 148.292 170.631C148.601 170.918 149.059 171.062 149.667 171.062C150.112 171.062 150.552 170.965 150.987 170.772C151.421 170.574 151.811 170.25 152.157 169.801V165.761C152.157 165.192 152.068 164.751 151.89 164.438C151.712 164.125 151.45 163.908 151.104 163.788C150.764 163.663 150.345 163.6 149.847 163.6C149.528 163.6 149.169 163.632 148.771 163.694C148.373 163.752 147.97 163.851 147.561 163.992V163.342C147.896 163.222 148.273 163.13 148.692 163.068C149.112 163 149.51 162.966 149.887 162.966C150.52 162.966 151.057 163.052 151.497 163.224C151.942 163.397 152.28 163.689 152.511 164.101C152.741 164.508 152.856 165.067 152.856 165.777V171.555H152.244L152.189 170.568H152.118C151.835 170.918 151.468 171.192 151.018 171.391C150.573 171.584 150.094 171.68 149.58 171.68Z" fill="white"/>
<path d="M155.349 171.555V163.091H155.954L156.009 164.086H156.079C156.441 163.725 156.857 163.449 157.329 163.256C157.805 163.063 158.303 162.966 158.821 162.966C159.345 162.966 159.806 163.057 160.204 163.24C160.607 163.423 160.922 163.723 161.147 164.14C161.372 164.553 161.485 165.111 161.485 165.816V171.555H160.777V165.832C160.777 165.007 160.594 164.433 160.228 164.109C159.861 163.785 159.366 163.624 158.743 163.624C158.46 163.624 158.156 163.665 157.831 163.749C157.507 163.832 157.187 163.971 156.873 164.164C156.564 164.357 156.289 164.618 156.048 164.947V171.555H155.349Z" fill="white"/>
<path d="M165.999 171.68C165.229 171.68 164.619 171.485 164.168 171.093C163.723 170.702 163.501 170.151 163.501 169.441C163.501 168.731 163.731 168.178 164.192 167.781C164.653 167.379 165.383 167.123 166.384 167.014L168.89 166.724L168.937 167.311L166.392 167.609C165.632 167.692 165.085 167.88 164.75 168.173C164.415 168.46 164.247 168.862 164.247 169.378C164.247 169.926 164.401 170.344 164.71 170.631C165.019 170.918 165.478 171.062 166.085 171.062C166.531 171.062 166.97 170.965 167.405 170.772C167.84 170.574 168.23 170.25 168.576 169.801V165.761C168.576 165.192 168.487 164.751 168.309 164.438C168.131 164.125 167.869 163.908 167.523 163.788C167.183 163.663 166.764 163.6 166.266 163.6C165.947 163.6 165.588 163.632 165.19 163.694C164.792 163.752 164.388 163.851 163.98 163.992V163.342C164.315 163.222 164.692 163.13 165.111 163.068C165.53 163 165.928 162.966 166.305 162.966C166.939 162.966 167.476 163.052 167.916 163.224C168.361 163.397 168.699 163.689 168.929 164.101C169.16 164.508 169.275 165.067 169.275 165.777V171.555H168.662L168.607 170.568H168.537C168.254 170.918 167.887 171.192 167.437 171.391C166.991 171.584 166.512 171.68 165.999 171.68ZM167.609 160.813C167.395 160.813 167.188 160.779 166.989 160.711C166.795 160.638 166.606 160.562 166.423 160.484C166.261 160.416 166.101 160.354 165.944 160.296C165.787 160.239 165.627 160.21 165.465 160.21C165.229 160.21 165.014 160.257 164.82 160.351C164.627 160.44 164.443 160.581 164.271 160.774V160.163C164.564 159.834 164.964 159.67 165.473 159.67C165.687 159.67 165.892 159.706 166.085 159.779C166.284 159.847 166.476 159.92 166.659 159.999C166.826 160.072 166.989 160.137 167.146 160.194C167.303 160.252 167.46 160.28 167.617 160.28C167.858 160.28 168.073 160.233 168.262 160.14C168.455 160.046 168.639 159.902 168.812 159.709V160.327C168.518 160.651 168.118 160.813 167.609 160.813Z" fill="white"/>
<path d="M180.821 171.641C179.585 171.641 178.548 171.44 177.71 171.038C176.872 170.631 176.236 169.997 175.801 169.136C175.372 168.274 175.157 167.155 175.157 165.777C175.157 164.341 175.379 163.19 175.825 162.324C176.27 161.452 176.89 160.818 177.687 160.421C178.483 160.025 179.407 159.826 180.46 159.826C180.895 159.826 181.327 159.858 181.756 159.92C182.186 159.978 182.618 160.066 183.052 160.186V160.852C182.555 160.711 182.097 160.615 181.678 160.562C181.264 160.505 180.861 160.476 180.468 160.476C179.556 160.476 178.758 160.646 178.071 160.985C177.391 161.319 176.859 161.872 176.477 162.645C176.094 163.417 175.903 164.459 175.903 165.769C175.903 167.016 176.086 168.024 176.453 168.791C176.82 169.553 177.364 170.109 178.087 170.459C178.815 170.809 179.721 170.983 180.806 170.983C181.204 170.983 181.568 170.968 181.898 170.936C182.233 170.905 182.55 170.861 182.848 170.803L182.597 171.132V165.918H183.288V171.422C182.801 171.505 182.369 171.563 181.992 171.594C181.615 171.625 181.225 171.641 180.821 171.641Z" fill="white"/>
<path d="M188.383 171.696C187.875 171.696 187.422 171.607 187.024 171.43C186.631 171.247 186.322 170.947 186.097 170.529C185.872 170.112 185.759 169.553 185.759 168.854V163.091H186.466V168.846C186.466 169.665 186.652 170.237 187.024 170.561C187.396 170.879 187.875 171.038 188.462 171.038C188.75 171.038 189.053 170.994 189.373 170.905C189.698 170.816 190.009 170.675 190.308 170.482C190.612 170.289 190.881 170.033 191.117 169.715V163.091H191.816V171.555H191.211L191.148 170.592H191.086C190.724 170.963 190.308 171.239 189.836 171.422C189.365 171.605 188.881 171.696 188.383 171.696Z" fill="white"/>
<path d="M196.442 171.68C195.673 171.68 195.062 171.485 194.612 171.093C194.167 170.702 193.944 170.151 193.944 169.441C193.944 168.731 194.175 168.178 194.635 167.781C195.096 167.379 195.827 167.123 196.827 167.014L199.334 166.724L199.381 167.311L196.835 167.609C196.076 167.692 195.528 167.88 195.193 168.173C194.858 168.46 194.69 168.862 194.69 169.378C194.69 169.926 194.845 170.344 195.154 170.631C195.463 170.918 195.921 171.062 196.529 171.062C196.974 171.062 197.414 170.965 197.849 170.772C198.283 170.574 198.674 170.25 199.019 169.801V165.761C199.019 165.192 198.93 164.751 198.752 164.438C198.574 164.125 198.312 163.908 197.967 163.788C197.626 163.663 197.207 163.6 196.71 163.6C196.39 163.6 196.031 163.632 195.633 163.694C195.235 163.752 194.832 163.851 194.423 163.992V163.342C194.759 163.222 195.136 163.13 195.555 163.068C195.974 163 196.372 162.966 196.749 162.966C197.383 162.966 197.919 163.052 198.359 163.224C198.805 163.397 199.142 163.689 199.373 164.101C199.603 164.508 199.719 165.067 199.719 165.777V171.555H199.106L199.051 170.568H198.98C198.697 170.918 198.331 171.192 197.88 171.391C197.435 171.584 196.956 171.68 196.442 171.68Z" fill="white"/>
<path d="M202.211 171.555V163.091H202.816L202.879 164.234H202.942C203.256 163.843 203.643 163.543 204.104 163.334C204.57 163.125 205.044 163.021 205.526 163.021C205.652 163.021 205.767 163.026 205.872 163.036C205.977 163.042 206.081 163.055 206.186 163.076V163.757C206.076 163.741 205.966 163.731 205.856 163.725C205.751 163.72 205.634 163.718 205.503 163.718C205.209 163.718 204.9 163.767 204.576 163.866C204.256 163.966 203.95 164.117 203.656 164.32C203.368 164.524 203.12 164.78 202.91 165.088V171.555H202.211Z" fill="white"/>
<path d="M207.612 171.555V163.091H208.311V171.555H207.612ZM207.958 160.977C207.785 160.977 207.644 160.928 207.534 160.829C207.429 160.729 207.376 160.594 207.376 160.421C207.376 160.249 207.429 160.111 207.534 160.006C207.644 159.902 207.785 159.85 207.958 159.85C208.131 159.85 208.269 159.902 208.374 160.006C208.484 160.111 208.539 160.249 208.539 160.421C208.539 160.594 208.484 160.729 208.374 160.829C208.269 160.928 208.131 160.977 207.958 160.977Z" fill="white"/>
<path d="M213.244 171.696C212.851 171.696 212.453 171.667 212.05 171.61C211.652 171.552 211.277 171.469 210.927 171.359V158.902H211.626V163.984H211.681C211.943 163.692 212.278 163.449 212.686 163.256C213.1 163.063 213.572 162.966 214.101 162.966C214.687 162.966 215.224 163.099 215.711 163.365C216.203 163.626 216.594 164.065 216.882 164.681C217.175 165.291 217.322 166.119 217.322 167.163C217.322 168.713 216.971 169.856 216.269 170.592C215.572 171.328 214.564 171.696 213.244 171.696ZM213.291 171.062C214.365 171.062 215.182 170.762 215.743 170.161C216.308 169.561 216.591 168.588 216.591 167.241C216.591 166.296 216.476 165.563 216.245 165.041C216.015 164.514 215.703 164.146 215.31 163.937C214.918 163.723 214.478 163.616 213.991 163.616C213.54 163.616 213.103 163.712 212.679 163.906C212.26 164.099 211.909 164.399 211.626 164.806V170.835C211.841 170.897 212.095 170.952 212.388 170.999C212.681 171.041 212.982 171.062 213.291 171.062Z" fill="white"/>
<path d="M221.469 171.68C220.699 171.68 220.089 171.485 219.639 171.093C219.194 170.702 218.971 170.151 218.971 169.441C218.971 168.731 219.201 168.178 219.662 167.781C220.123 167.379 220.854 167.123 221.854 167.014L224.361 166.724L224.408 167.311L221.862 167.609C221.103 167.692 220.555 167.88 220.22 168.173C219.885 168.46 219.717 168.862 219.717 169.378C219.717 169.926 219.872 170.344 220.181 170.631C220.49 170.918 220.948 171.062 221.556 171.062C222.001 171.062 222.441 170.965 222.876 170.772C223.31 170.574 223.701 170.25 224.046 169.801V165.761C224.046 165.192 223.957 164.751 223.779 164.438C223.601 164.125 223.339 163.908 222.993 163.788C222.653 163.663 222.234 163.6 221.736 163.6C221.417 163.6 221.058 163.632 220.66 163.694C220.262 163.752 219.859 163.851 219.45 163.992V163.342C219.785 163.222 220.163 163.13 220.582 163.068C221.001 163 221.399 162.966 221.776 162.966C222.41 162.966 222.946 163.052 223.386 163.224C223.831 163.397 224.169 163.689 224.4 164.101C224.63 164.508 224.745 165.067 224.745 165.777V171.555H224.133L224.078 170.568H224.007C223.724 170.918 223.357 171.192 222.907 171.391C222.462 171.584 221.983 171.68 221.469 171.68Z" fill="white"/>
<path fill-rule="evenodd" clip-rule="evenodd" d="M88.0081 65.3756C99.1643 65.3756 108.212 56.339 108.212 45.1878C108.212 34.0402 99.1643 25 88.0081 25C76.8519 25 67.8047 34.0402 67.8047 45.1878C67.8047 56.3354 76.8519 65.3756 88.0081 65.3756ZM98.4174 38.9573V38.9793C100.709 39.7037 102.375 41.8439 102.375 44.3756C102.375 46.7683 100.889 48.8061 98.7872 49.6329C98.1464 49.4354 97.6009 48.9634 97.3446 48.2902L97.3043 48.3085H97.275C97.3958 48.9488 97.7693 49.4756 98.2709 49.8085L98.2416 49.8159C97.5203 51.6744 95.7189 52.9951 93.6063 52.9951C92.5848 52.9951 91.6402 52.6915 90.853 52.1646C90.6662 56.0793 91.6255 61.1939 92.7459 61.1939H83.2703C84.387 61.1939 85.3463 56.0793 85.1632 52.1646C84.3724 52.6915 83.4277 52.9988 82.4099 52.9988C80.6707 52.9988 79.1403 52.1024 78.2542 50.7451C77.9393 49.7902 78.3018 48.7037 79.1952 48.1476L79.1732 48.111L79.1659 48.0854C78.397 48.3854 77.8881 49.0549 77.749 49.8085C75.3764 49.1354 73.6409 46.9585 73.6409 44.3756C73.6409 41.9463 75.1787 39.8756 77.3316 39.0744C78.1188 39.0122 78.9096 39.3671 79.3746 40.0695L79.4076 40.0476L79.4332 40.0366C79.0927 39.2427 78.3567 38.7378 77.5512 38.6537C77.5256 38.4488 77.511 38.2439 77.511 38.0317C77.511 34.9366 79.997 32.4268 83.0872 32.3793V32.3646C83.4497 32.8695 83.5998 33.5207 83.4497 34.1719L83.49 34.1829L83.5156 34.1939C83.8671 33.3854 83.7133 32.4817 83.1934 31.8378C83.7426 29.6902 85.6868 28.1024 88.0044 28.1024C90.5161 28.1024 92.5885 29.9646 92.9216 32.3829H92.9326C92.9216 33.1146 92.5482 33.8244 91.8818 34.2415L91.9038 34.2744L91.9148 34.3C92.7386 33.9744 93.2695 33.2244 93.3573 32.4012C96.2425 32.661 98.5016 35.0793 98.5016 38.028C98.5016 38.1817 98.4942 38.3317 98.4796 38.4817C97.978 38.8878 97.308 39.0744 96.6269 38.9354L96.6196 38.9756L96.6086 39.0012C97.2164 39.2463 97.8681 39.2097 98.4174 38.9573Z" fill="white"/>
<path d="M192.35 32.4122C193.031 32.2512 193.686 31.9439 194.946 31.9439C193.686 31.9439 193.034 32.2549 192.35 32.4122ZM192.181 32.4488C192.225 32.4415 192.269 32.4305 192.309 32.4232C192.265 32.4341 192.225 32.4415 192.181 32.4488ZM192.156 32.4524C192.156 32.4524 192.163 32.4524 192.167 32.4524C192.167 32.4524 192.159 32.4524 192.156 32.4524ZM194.766 50.0024C194.766 50.0024 197.629 49.5744 199.211 48.078C197.633 49.578 194.766 50.0024 194.766 50.0024Z" fill="white"/>
<path fill-rule="evenodd" clip-rule="evenodd" d="M194.605 65.3756C205.761 65.3756 214.809 56.339 214.809 45.1878C214.809 34.0402 205.765 25 194.605 25C183.445 25 174.402 34.0402 174.402 45.1878C174.402 56.3354 183.449 65.3756 194.605 65.3756ZM182.581 55.4427C182.581 55.4427 183.134 56.3537 185.833 57.1659H185.829C188.531 57.9781 189.49 57.5244 189.49 57.5244C188.915 59.4305 186.902 60.5098 184.994 59.9354C183.087 59.361 182.006 57.3488 182.581 55.4427ZM192.167 59.1378C192.167 59.1378 193.023 59.7634 195.828 59.4744C198.633 59.1854 199.343 58.3951 199.343 58.3951C199.548 60.3744 198.109 62.1488 196.128 62.3537C194.147 62.5585 192.372 61.1207 192.167 59.1378ZM185.135 59.1284C182.897 58.6169 182.823 56.0976 182.823 56.0976C182.346 57.2981 183.553 59.3943 185.135 59.7561C187.033 60.1902 188.57 59.1274 189.047 57.9268C189.047 57.9268 187.373 59.6423 185.135 59.1308V59.1284ZM192.525 59.5734C192.525 59.5734 193.448 61.8007 196.016 61.5854C198.585 61.3728 199.098 59.0244 199.098 59.0244C199.286 60.4804 197.827 61.9834 196.013 62.1341C194.199 62.2876 192.713 61.0321 192.525 59.5734ZM181.3 47.2512C181.527 47.961 182.157 48.2939 182.157 48.2939L182.159 48.2973C182.155 48.3 182.153 48.3012 182.153 48.3012L182.797 49.3988C182.797 49.3988 182.878 49.7866 183.119 50.0134C183.361 50.2439 183.83 50.3902 183.83 50.3902L183.837 50.3976C183.861 50.5131 184.031 51.2758 184.255 51.411C184.358 51.4739 184.55 51.5273 184.746 51.5818C184.971 51.6445 185.201 51.7085 185.306 51.7898C185.318 51.8045 185.33 51.8197 185.342 51.8354L185.36 51.8593L185.373 51.8775C185.548 52.1136 186.078 52.8306 186.653 53.0939C186.95 53.2318 187.353 53.2113 187.781 53.1896L187.791 53.189C188.249 53.1671 188.74 53.1451 189.168 53.3098C189.236 53.3363 189.302 53.3659 189.368 53.395C189.638 53.514 189.891 53.6257 190.105 53.4963C190.119 53.4879 190.132 53.4784 190.143 53.468C190.178 53.4453 190.211 53.4222 190.243 53.3998C190.419 53.2769 190.561 53.1769 190.868 53.3089C190.891 53.3246 190.916 53.3396 190.944 53.3537C190.977 53.3708 191.029 53.4118 191.097 53.4655C191.361 53.6755 191.869 54.0784 192.478 53.9939C193.737 53.8146 195.458 52.7171 195.458 52.7171C195.458 52.7171 196.516 51.7146 196.93 51.7549C196.958 51.7576 196.985 51.756 197.009 51.7506C197.351 51.7463 197.763 51.5089 198.019 51.3616C198.053 51.3421 198.084 51.3242 198.112 51.3087L198.115 51.3075C198.118 51.3062 198.121 51.3048 198.124 51.3033C198.127 51.3015 198.131 51.2996 198.135 51.2976C198.142 51.2933 198.15 51.2885 198.158 51.2835C198.262 51.2315 198.478 51.1622 198.709 51.0878C199.055 50.9765 199.437 50.8537 199.534 50.7605C199.543 50.756 199.55 50.7475 199.555 50.7341L199.558 50.7277L199.561 50.7177C199.657 50.5448 200.575 49.8701 200.671 49.7998L200.679 49.7976C200.679 49.7976 203.037 47.8732 203.627 47.0427C204.09 46.3906 204.189 46.1265 204.418 45.5189C204.48 45.3527 204.553 45.1607 204.645 44.928C204.962 44.1262 205.08 42.8068 205.159 41.9294C205.187 41.6219 205.209 41.3686 205.234 41.211C205.293 40.8325 205.226 40.6189 205.167 40.4311C205.131 40.3175 205.099 40.2133 205.099 40.0878V38.2951C205.099 38.2951 205.018 37.2378 204.831 36.689C204.74 36.4218 204.662 36.2968 204.591 36.1819C204.515 36.0609 204.447 35.9509 204.377 35.6976C204.37 35.6688 204.361 35.6414 204.352 35.615C204.226 35.1617 204.113 34.8277 203.835 34.5232C203.693 34.3662 203.496 34.3292 203.299 34.2923C203.1 34.255 202.901 34.2177 202.758 34.057C202.754 34.0515 202.749 34.0459 202.744 34.0402C202.735 34.0286 202.725 34.0166 202.716 34.0044C202.603 33.8488 202.539 33.6435 202.475 33.4382C202.394 33.1767 202.312 32.9151 202.129 32.7561C201.817 32.4821 201.685 32.3684 201.231 32.0219C201.202 31.9981 201.171 31.9733 201.137 31.9476C200.776 31.6733 200.497 31.424 200.232 31.1874C200.104 31.0737 199.98 30.9629 199.852 30.8537C199.742 30.7585 199.588 30.6451 199.42 30.528C200.559 30.8098 203.85 31.9549 205.725 34.1024V34.1061C209.975 39.7952 209.001 45.1091 208.518 47.7459C208.496 47.8645 208.475 47.9778 208.456 48.0854C208.134 49.2963 206.047 54.9598 199.801 57.1805C198.34 57.7 196.425 57.9671 194.785 58.0732C193.141 58.1793 189.036 57.0378 189.036 57.0378C189.036 57.0378 186.162 56.0939 185.181 55.0768C184.2 54.0598 183.361 52.9549 183.361 52.9549C183.361 52.9549 180.78 50.8402 180.187 47.0976C179.722 44.1575 180.404 41.8156 180.746 40.6449C180.786 40.5065 180.822 40.3843 180.85 40.2795C180.819 40.485 180.8 40.7321 180.82 41.0024C180.848 41.3859 180.905 41.5303 180.949 41.6419C180.991 41.7486 181.021 41.8254 181.003 42.0524C180.989 42.2357 180.928 42.3421 180.858 42.4638C180.75 42.6505 180.623 42.8731 180.611 43.4646C180.603 43.9306 180.719 44.1926 180.83 44.4425C180.951 44.7164 181.066 44.9757 181.003 45.4732C180.978 45.6744 180.959 45.8536 180.945 46.0146C180.945 46.0146 181.069 46.5415 181.296 47.2512H181.3ZM186.92 49.8195C186.92 49.8195 184.412 48.0671 183.892 47.0903L183.903 47.0939C183.648 46.615 183.631 46.2328 183.613 45.8383C183.594 45.4281 183.575 45.0046 183.288 44.4451C182.791 43.472 183.057 41.705 183.229 40.5672C183.25 40.4217 183.271 40.2866 183.288 40.1646C183.438 39.089 184.921 37.2744 184.921 37.2744L186.902 35.3207C186.902 35.3207 188.132 34.0659 188.989 33.7695C189.293 33.6654 189.605 33.4901 189.942 33.3001C190.554 32.9559 191.252 32.5635 192.148 32.4598C192.389 32.4165 192.618 32.3496 192.863 32.2782C193.446 32.1081 194.116 31.9126 195.227 31.9512C196.806 32.0061 197.582 32.4342 197.582 32.4342C197.582 32.4342 199.215 32.6756 199.698 33.3707C199.987 33.8344 200.252 34.0265 200.525 34.2243C200.881 34.4824 201.251 34.7502 201.704 35.6427C201.837 35.9425 201.947 36.1371 202.042 36.3033C202.311 36.7759 202.449 37.019 202.587 38.8C202.643 39.2245 202.713 39.5194 202.774 39.7789C202.919 40.3897 203.018 40.8046 202.774 42.25C202.426 44.3098 201.756 44.9244 201.756 44.9244C201.756 44.9244 200.793 46.5817 199.211 48.0817C197.629 49.5781 194.766 50.0061 194.766 50.0061C194.766 50.0061 192.73 50.9427 190.08 50.8622C187.429 50.7817 186.92 49.8195 186.92 49.8195Z" fill="white"/>
<path d="M143.434 35.2915C143.709 38.522 142.724 39.0451 142.244 40.2305C141.468 42.111 141.541 45.1878 142.731 45.1878C144.287 45.0488 146.176 42.3671 151.515 40.2854C154.989 38.9317 156.966 39.0634 160.152 39.7732C160.375 39.8244 160.598 39.8866 160.818 39.9561C158.552 31.4829 150.903 25.2122 141.753 25.011C141.277 25.9805 140.893 26.8 140.75 27.3964C140.501 30.3561 143.141 31.8232 143.434 35.2915Z" fill="white"/>
<path d="M136.675 50.4707C137.499 47.5732 136.111 47.5476 137.18 44.5293C138.107 41.9098 140.904 40.9915 141.178 36.2061C141.354 33.1293 138.037 32.6098 138.707 27.2134C138.806 26.4012 138.982 25.7134 139.201 25.1098C129.034 26.1634 121.107 34.75 121.107 45.1878C121.107 52.3183 124.812 58.5817 130.399 62.1744C130.491 60.4768 130.659 58.4098 132.303 55.9951C135.434 51.3927 136.232 52.0512 136.682 50.4707" fill="white"/>
<path d="M150.372 44.4012C146.257 46.8342 146.528 49.2232 142.822 52.2744C138.454 55.8707 137.942 52.2634 134.584 56.9866C133.369 58.6988 133.317 61.3549 133.145 63.6525C135.642 64.7573 138.399 65.372 141.307 65.372C152.466 65.372 161.51 56.3317 161.51 45.1842C161.51 44.3829 161.459 43.5964 161.367 42.8207C160.844 42.6817 160.379 42.5573 159.881 42.4549C155.791 41.6024 153.832 42.3524 150.372 44.3976" fill="white"/>
<path d="M142.724 47.3939C142.698 46.2122 141.746 45.8098 140.941 45.4841C139.535 44.9171 137.993 46.8451 138.586 48.1512C139.322 49.4354 138.689 50.95 139.637 51.4329C140.585 51.9195 143.346 49.8415 143.588 49.2049C143.829 48.5683 142.753 48.5756 142.727 47.3939" fill="white"/>
<path d="M85.9212 128.968L82.3404 116.771H64.9819L61.4377 128.968H49L64.3521 79.5085H83.1459L98.498 128.968H85.9212ZM67.9293 106.677H79.4003L73.6483 87.0963L67.9293 106.677Z" fill="white"/>
<path d="M108.545 129.071C106.059 128.694 103.781 128.156 101.705 127.465V117.14C103.756 117.832 106.088 118.377 108.695 118.779C111.302 119.178 113.744 119.379 116.018 119.379C118.914 119.379 120.982 118.991 122.22 118.212C123.457 117.433 124.076 116.295 124.076 114.802C124.076 113.979 123.897 113.295 123.542 112.746C123.187 112.201 122.56 111.711 121.667 111.279C120.774 110.844 119.492 110.405 117.823 109.959L113.744 108.89C109.284 107.8 105.942 106.066 103.712 103.695C101.482 101.321 100.369 98.2183 100.369 94.3878C100.369 89.4195 102.192 85.589 105.835 82.8927C109.482 80.1963 114.883 78.85 122.037 78.85C124.289 78.85 126.452 78.9781 128.525 79.2341C130.597 79.4902 132.472 79.8415 134.145 80.2878V90.6159C132.607 90.1476 130.835 89.778 128.829 89.511C126.822 89.2439 124.816 89.1085 122.809 89.1085C119.265 89.1085 116.761 89.511 115.3 90.3122C113.839 91.1171 113.11 92.2512 113.11 93.7219C113.11 94.4793 113.268 95.1195 113.579 95.6427C113.89 96.1658 114.432 96.6305 115.201 97.0293C115.97 97.428 117.057 97.8195 118.463 98.2L122.542 99.2354C127.448 100.439 131.055 102.224 133.361 104.599C135.668 106.97 136.821 110.087 136.821 113.939C136.821 117.148 135.998 119.932 134.346 122.295C132.695 124.659 130.315 126.473 127.207 127.743C124.098 129.012 120.389 129.649 116.087 129.649C113.546 129.649 111.031 129.459 108.545 129.082V129.071Z" fill="white"/>
<path d="M175.65 128.968L172.073 116.771H154.715L151.17 128.968H138.729L154.081 79.5085H172.875L188.227 128.968H175.65ZM157.658 106.677H169.129L163.377 87.0963L157.658 106.677Z" fill="white"/>
<path d="M233.17 104.906V128.467C228.509 129.224 224.24 129.601 220.359 129.601C210.528 129.601 203.18 127.52 198.321 123.352C193.463 119.185 191.032 112.86 191.032 104.372C191.032 95.8841 193.525 89.6463 198.508 85.3256C203.491 81.0049 210.821 78.8427 220.498 78.8427C224.398 78.8427 228.121 79.2415 231.665 80.0463V90.5061C228.367 89.7707 225.031 89.4012 221.666 89.4012C217.562 89.4012 214.252 89.9207 211.733 90.9561C209.214 91.9915 207.358 93.6195 206.164 95.8366C204.97 98.0537 204.385 100.966 204.407 104.573C204.407 109.563 205.626 113.24 208.068 115.604C210.51 117.967 214.259 119.145 219.323 119.145C220.169 119.145 220.817 119.134 221.264 119.112V104.91H233.17V104.906Z" fill="white"/>
<path d="M274.339 128.968L270.758 116.771H253.403L249.859 128.968H237.417L252.77 79.5085H271.563L286.915 128.968H274.339ZM256.347 106.677H267.818L262.066 87.0963L256.347 106.677Z" fill="white"/>
<path fill-rule="evenodd" clip-rule="evenodd" d="M267.95 45.0876C267.95 56.232 258.984 65.2439 247.812 65.2439C236.709 65.2439 227.675 56.1632 227.675 45.0876C227.675 34.0119 236.709 25 247.812 25C258.915 25 267.95 33.9431 267.95 45.0876ZM257.444 60.214C257.4 61.1282 257.361 61.9278 257.467 62.4922V62.4234C258.364 61.9418 259.191 61.3915 260.019 60.7724C258.653 58.9104 258.519 55.8193 258.428 53.6958C258.38 52.6026 258.344 51.7659 258.157 51.4853C257.605 50.7286 256.915 50.1782 255.743 49.9719C255.674 50.247 255.151 50.43 254.838 50.53C253.776 50.8693 252.389 50.7927 251.29 50.2439C250.192 49.6951 249.398 48.8712 248.709 47.9081L248.295 48.1144C247.419 48.5514 246.51 48.7256 245.632 48.8937C244.714 49.0698 243.83 49.2393 243.054 49.6967C242.571 49.9719 242.088 50.4534 241.674 51.2101C241.123 52.3108 240.088 59.7405 240.088 63.1113C241.205 63.7304 241.708 63.8481 242.853 64.1161C242.98 64.1459 243.115 64.1776 243.26 64.212C243.812 64.3496 244.364 64.4872 244.916 64.556C244.916 64.3496 245.191 61.3227 245.329 60.566C245.441 60.9562 245.372 63.2442 245.341 64.2441C245.334 64.478 245.329 64.6414 245.329 64.6936C246.019 64.8311 247.122 64.8312 247.881 64.8312C250.295 64.8312 252.64 64.4184 254.777 63.5929C255.605 63.3177 256.433 62.9049 257.191 62.4922C257.107 61.9049 257.151 60.6014 257.198 59.2057C257.229 58.3124 257.26 57.3813 257.26 56.576C257.283 56.6677 257.314 56.7594 257.344 56.8512C257.406 57.0346 257.467 57.2181 257.467 57.4015C257.534 58.3735 257.487 59.3454 257.444 60.214ZM258.708 47.9769C259.536 47.8393 260.019 47.4953 260.226 46.8762V47.0826C260.432 46.4634 261.191 40.6848 261.191 39.6529V39.2402C261.191 39.2402 257.536 39.8593 255.329 39.0338C254.639 39.2402 254.226 39.5841 254.019 39.9281C253.881 40.272 253.743 40.616 253.536 40.96C253.398 41.4415 253.122 41.8543 252.295 42.1295C252.157 42.1982 252.019 42.267 251.812 42.267C251.95 43.7117 251.329 43.9869 251.26 43.9869C251.122 45.2251 250.295 47.1513 249.191 47.9769C249.881 49.0088 250.846 49.7655 251.881 50.1782C251.938 50.1972 252 50.2213 252.064 50.2463C252.234 50.3123 252.421 50.3846 252.571 50.3846C253.467 50.6598 254.845 50.3158 255.397 49.9719C255.397 49.9719 255.536 49.2839 255.743 48.7336C256.061 47.7824 256.195 47.813 256.714 47.931C257.096 48.0178 257.685 48.1518 258.708 47.9769ZM259.053 35.319C257.191 34.3558 254.433 34.4246 252.295 35.3877H252.433C250.984 36.2133 250.64 37.7267 250.64 39.3777V39.9969C250.663 40.1574 250.693 40.3179 250.724 40.4784C250.785 40.7994 250.846 41.1205 250.846 41.4415V41.7167C250.875 41.8875 250.927 42.07 250.978 42.2498C251.051 42.5044 251.122 42.7533 251.122 42.955V43.7117C251.329 43.5741 251.542 43.1129 251.473 42.0122C251.611 41.9434 251.95 41.8543 252.088 41.8543C252.915 41.5791 253.191 40.96 253.398 40.4784C253.452 40.3438 253.506 40.2302 253.556 40.1253C253.633 39.9623 253.701 39.8204 253.743 39.6529C253.881 39.3089 254.571 38.7586 255.26 38.5522C257.536 39.3089 261.191 38.7586 261.191 38.7586C261.463 36.5196 259.924 35.7528 259.088 35.3361C259.076 35.3303 259.065 35.3246 259.053 35.319ZM245.674 37.8643H245.536V38.2083H245.881C246.088 38.2083 246.64 38.277 246.984 38.5522C247.329 38.8274 247.536 39.1714 247.674 39.5153C247.743 39.6529 247.743 39.7905 247.743 39.8593C247.724 39.8786 247.699 39.9088 247.67 39.9437C247.597 40.0331 247.497 40.1538 247.398 40.2033C247.398 40.2033 247.26 40.272 247.26 40.3408C247.26 40.1345 247.191 39.9281 247.053 39.6529C246.916 39.4465 246.778 39.2401 246.571 39.0338C246.226 38.7586 245.743 38.621 245.536 38.621H244.985C244.871 38.621 244.778 38.6627 244.694 38.7002C244.626 38.7308 244.564 38.7586 244.502 38.7586C244.364 38.8274 244.019 38.965 243.95 38.965L243.743 39.1713C244.157 38.621 244.157 37.9331 244.157 37.7955C244.152 37.7653 244.147 37.7325 244.141 37.6974C244.073 37.2533 243.948 36.4431 243.054 35.8693C242.64 35.6629 242.157 35.6629 241.95 35.6629C241.95 35.7035 241.854 35.7202 241.732 35.7412C241.648 35.7557 241.552 35.7723 241.467 35.8005C241.329 35.8464 241.253 35.8922 241.176 35.9381C241.138 35.961 241.1 35.9839 241.054 36.0069C240.998 36.0344 240.921 36.0839 240.844 36.1335C240.728 36.2078 240.612 36.2821 240.571 36.2821C240.536 36.3164 240.485 36.4024 240.433 36.4884C240.381 36.5744 240.329 36.6604 240.295 36.6948C240.295 36.7292 240.26 36.798 240.226 36.8668C240.192 36.9356 240.157 37.0044 240.157 37.0388C240.139 37.0572 240.12 37.0707 240.103 37.0832C240.056 37.1174 240.019 37.1444 240.019 37.2452V37.5203C239.95 37.5891 239.95 37.6579 239.95 37.7267V38.0707C239.976 38.1226 239.992 38.2136 240.014 38.3328C240.049 38.5295 240.097 38.8027 240.226 39.1026V39.2402C240.295 39.3089 240.364 39.4465 240.364 39.4465C240.433 39.3777 240.709 39.2402 240.709 39.2402C240.916 39.1714 241.191 39.1714 241.191 39.1714C241.329 39.1026 241.605 39.1026 241.881 39.1714C241.95 39.1714 242.088 39.2401 242.226 39.3089C242.502 39.5153 242.709 39.7217 242.847 39.9281C242.928 39.8738 243.01 39.8302 243.087 39.7889C243.206 39.7255 243.315 39.6674 243.398 39.5841L243.191 39.7905C243.122 39.9281 243.122 40.0657 243.122 40.0657C243.054 40.0657 242.985 40.1345 242.985 40.2033V40.6848C242.964 40.6432 242.943 40.5952 242.92 40.5428C242.868 40.4223 242.805 40.2784 242.709 40.1345C242.571 39.9281 242.364 39.7217 242.088 39.5153C241.743 39.3089 241.191 39.3089 240.985 39.3089C240.916 39.3089 240.64 39.3777 240.433 39.4465C240.335 39.479 240.268 39.5269 240.21 39.5683C240.145 39.6146 240.092 39.6529 240.019 39.6529C239.964 39.6804 239.887 39.73 239.809 39.7795C239.694 39.8538 239.578 39.9281 239.536 39.9281C239.502 39.9625 239.45 40.0485 239.398 40.1345C239.347 40.2205 239.295 40.3064 239.26 40.3408C239.26 40.3752 239.226 40.444 239.192 40.5128C239.157 40.5816 239.123 40.6504 239.123 40.6848C239.123 40.7536 239.054 40.8224 239.054 40.8224V40.5472L238.985 40.4784V40.3408L238.847 40.2033C238.808 40.2033 238.791 40.1599 238.771 40.1096C238.756 40.0704 238.739 40.027 238.709 39.9969C238.663 39.9051 238.617 39.8746 238.571 39.844C238.548 39.8287 238.525 39.8134 238.502 39.7905L238.226 39.5153H238.088C238.019 39.4465 237.881 39.3089 237.812 39.3089C237.743 39.2402 237.398 39.1714 237.261 39.1714C237.123 39.1026 236.985 39.1026 236.778 39.1026H236.226C236.202 39.1106 236.173 39.1195 236.141 39.1296C235.895 39.2061 235.435 39.3489 235.192 39.6529C235.151 39.7232 235.111 39.792 235.072 39.8593C234.841 40.2534 234.64 40.5974 234.64 40.8912L234.502 40.7536C234.439 40.722 234.361 40.6616 234.289 40.6053C234.203 40.5389 234.126 40.4784 234.088 40.4784C234.06 40.4784 233.984 40.4548 233.895 40.4272C233.769 40.3881 233.617 40.3408 233.536 40.3408C233.399 40.272 233.261 40.272 233.054 40.272H232.364C232.334 40.2117 232.29 40.1514 232.251 40.0969C232.201 40.027 232.157 39.9667 232.157 39.9281C230.571 40.1345 229.674 40.5472 229.674 40.5472L229.33 40.6848C229.33 40.6848 229.606 41.0976 230.916 41.5103C232.157 41.9231 234.433 42.4046 238.433 42.611H238.64C239.329 42.6798 240.019 42.6798 240.778 42.6798H243.743C244.847 42.6798 245.812 42.611 246.64 42.5422L246.778 42.4046V42.4734C248.237 42.3521 249.053 42.1238 249.746 41.93C249.839 41.9041 249.929 41.8787 250.019 41.8543C249.992 41.6668 249.944 41.4689 249.896 41.2686C249.82 40.9546 249.743 40.6349 249.743 40.3408V39.7217C249.605 39.6529 249.571 39.6185 249.553 39.6013C249.536 39.5841 249.536 39.5841 249.467 39.5841H248.778C248.664 39.5841 248.571 39.6258 248.487 39.6633C248.419 39.6939 248.357 39.7217 248.295 39.7217C248.266 39.7217 248.214 39.7453 248.153 39.773C248.066 39.8121 247.962 39.8593 247.881 39.8593H247.743C247.812 39.7217 247.881 39.6529 247.881 39.6529L248.226 39.3089C248.254 39.3089 248.33 39.2735 248.419 39.2321C248.545 39.1734 248.697 39.1026 248.778 39.1026C248.881 39.1026 248.95 39.0682 249.019 39.0338C249.088 38.9994 249.157 38.965 249.26 38.965H249.95C250.157 38.6898 250.157 38.3458 250.157 38.277C250.157 37.8643 250.157 36.97 249.329 36.2133C248.984 35.9381 248.433 35.8693 248.226 35.8693H247.674C247.56 35.8693 247.467 35.911 247.384 35.9485C247.315 35.9791 247.253 36.0069 247.191 36.0069C247.111 36.0069 246.959 36.0777 246.833 36.1364C246.744 36.1779 246.668 36.2133 246.64 36.2133C246.62 36.2326 246.596 36.2627 246.567 36.2976C246.493 36.3871 246.394 36.5077 246.295 36.5572C246.226 36.5572 246.088 36.7636 246.088 36.8324C246.065 36.8553 246.042 36.8706 246.019 36.8859C245.973 36.9165 245.927 36.9471 245.881 37.0388C245.812 37.1764 245.812 37.3139 245.812 37.3139C245.743 37.3827 245.674 37.4515 245.674 37.5203V37.8643ZM243.398 39.5841C243.536 39.4465 243.674 39.3089 243.743 39.1713L243.605 39.3089C243.605 39.3089 243.398 39.5153 243.398 39.5841ZM236.916 37.9331C236.916 37.9482 236.909 37.9734 236.9 38.0071C236.868 38.1264 236.808 38.3528 236.916 38.621C236.916 38.6898 236.985 38.8274 236.985 38.8274C237.054 38.793 237.054 38.8102 237.054 38.836C237.054 38.8618 237.054 38.8962 237.123 38.8962H237.467C237.605 38.8962 237.95 38.965 238.157 39.1714L238.295 39.3089C238.322 39.3632 238.36 39.4068 238.396 39.4481C238.451 39.5115 238.502 39.5696 238.502 39.6529C238.553 39.6273 238.624 39.5731 238.699 39.5151C238.826 39.4174 238.967 39.3089 239.054 39.3089C239.123 39.2402 239.192 39.2402 239.192 39.2402C239.674 38.8962 239.812 38.4146 239.812 38.277C239.812 38.2516 239.813 38.2239 239.813 38.194C239.82 37.9003 239.83 37.4007 239.329 36.9012C239.123 36.6948 238.778 36.626 238.64 36.626H238.295C238.226 36.626 238.174 36.6432 238.123 36.6604C238.071 36.6776 238.019 36.6948 237.95 36.6948C237.881 36.6948 237.605 36.8324 237.605 36.8324C237.571 36.8324 237.519 36.884 237.467 36.9356C237.416 36.9872 237.364 37.0388 237.33 37.0388C237.33 37.1076 237.192 37.2452 237.192 37.2452L237.054 37.3827C236.985 37.4515 236.985 37.5203 236.985 37.5203C236.916 37.5891 236.916 37.6579 236.916 37.6579V37.9331ZM233.536 36.9012C233.33 36.9012 232.571 37.3827 232.571 37.3827V37.1076C232.054 37.8521 232.111 38.549 232.145 38.96C232.151 39.0426 232.157 39.1138 232.157 39.1714C232.157 39.1999 232.181 39.2402 232.209 39.2874C232.248 39.3541 232.295 39.4347 232.295 39.5153C232.295 39.5578 232.321 39.6004 232.358 39.6591C232.38 39.6954 232.407 39.7379 232.433 39.7905H232.985C233.099 39.7905 233.192 39.8113 233.275 39.8301C233.344 39.8454 233.406 39.8593 233.468 39.8593C233.599 39.8593 233.758 39.9146 233.874 39.9551C233.941 39.9784 233.994 39.9969 234.019 39.9969C234.074 40.0244 234.13 40.0739 234.185 40.1235C234.268 40.1978 234.35 40.272 234.433 40.272L234.571 40.4096C234.64 40.0657 234.847 39.7217 235.123 39.3089C235.192 39.2402 235.261 39.1714 235.261 39.1026C235.536 38.7586 235.881 38.6898 236.019 38.6898H236.502C236.433 38.5522 236.226 38.277 236.226 38.277L236.157 38.2083V38.0707C236.088 37.9331 236.019 37.9331 236.019 37.9331C235.98 37.9331 235.963 37.8897 235.944 37.8395C235.928 37.8003 235.911 37.7569 235.881 37.7267C235.841 37.7066 235.806 37.6923 235.778 37.6805C235.709 37.652 235.674 37.6378 235.674 37.5891L235.467 37.3827C235.404 37.3512 235.326 37.2907 235.254 37.2345C235.169 37.1681 235.091 37.1076 235.054 37.1076C234.916 37.0388 234.64 36.97 234.502 36.97C234.295 36.9012 234.226 36.9012 234.019 36.9012H233.536ZM230.421 42.1951L229.695 41.5118L234.833 60.2171L234.868 60.2513C235.351 60.7346 236.111 61.1576 236.969 61.4821C237.83 61.8078 238.807 62.0401 239.739 62.1332L239.775 61.7692C238.876 61.6793 237.931 61.4544 237.099 61.1399C236.285 60.8323 235.595 60.4445 235.161 60.026L230.421 42.1951Z" fill="white"/>
</svg>
