<svg width="336" height="200" viewBox="0 0 336 200" fill="none" xmlns="http://www.w3.org/2000/svg">
<rect width="336" height="200" rx="20" fill="#534B4B"/>
<path d="M45.0877 74.7815C44.4608 78.5606 47.3924 83.6044 49.4425 85.4267C50.3134 86.2009 50.0231 86.7816 49.1522 86.2977C44.2471 83.5726 38.5297 78.5666 32.3135 86.7816C27.3091 93.395 28.249 99.2654 31.7328 101.104C34.3319 102.476 40.1602 98.4487 41.9909 97.717C49.7061 94.6334 54.6335 95.9092 53.1199 98.8783C50.6037 103.814 40.7111 96.8459 33.378 109.523C27.6684 119.394 40.6982 128.567 46.8296 120.653C54.3729 110.915 52.7832 107.77 62.2166 108.556C67.9703 109.035 71.2413 111.407 68.2166 118.233C65.5564 124.237 72.6424 125.732 76.8294 122.975C80.7971 120.362 88.2965 110.639 81.9584 104.782C77.2643 100.443 76.5708 96.3499 79.3455 94.5235C84.2149 91.3183 86.8036 94.4384 88.9261 98.588C90.3195 101.312 92.3834 101.583 94.0551 101.201C97.4422 100.427 98.1827 96.8942 96.9584 92.9751C95.3887 87.9506 93.0175 85.6472 91.6358 84.2654C86.1197 78.7493 80.9317 84.4523 75.1843 86.4913C72.0182 87.6145 70.1149 86.601 71.5069 85.6203C75.7649 82.6203 79.8662 80.3905 80.7972 77.4913C81.4051 75.598 79.6666 71.9724 75.3778 70.5235C70.7399 68.9567 66.9414 69.6823 65.3134 72.2655C63.9365 74.4501 63.765 84.6526 62.4102 84.6526C60.5714 84.6526 64.2865 73.332 56.7973 69.9429C51.3177 67.4632 45.8903 69.9429 45.0877 74.7815ZM53.4102 72.6295C56.1199 72.6295 57.5234 74.2327 58.0553 76.7171C58.5556 79.0541 58.4424 84.1687 59.2166 85.8139C61.1024 89.8212 65.6414 88.33 66.0876 84.459C66.3621 82.0773 67.5392 75.8461 68.2166 74.201C69.4767 71.1405 75.4003 72.8926 76.7327 75.6526C78.0875 78.459 72.9767 81.679 70.0553 83.3945C67.1338 85.11 67.4361 88.4495 69.2811 89.3945C73.2488 91.4268 76.6499 89.1571 81.4746 86.8266C89.634 82.8854 92.7163 91.5714 93.5713 94.1364C94.4422 96.7494 93.0314 98.852 91.6358 96.459C89.1776 92.244 84.7085 87.2453 77.7972 90.9429C73.0553 93.4799 71.6762 99.2572 76.152 104.104C80.6957 109.025 81.8464 111.714 79.0552 115.524C75.0089 121.045 70.6549 122.052 71.7972 118.911C75.6681 108.265 70.8737 105.661 65.4101 104.491C57.3112 102.758 53.8902 104.078 50.7973 107.104C46.8561 110.96 44.1222 118.559 41.0232 118.427C36.4748 118.233 32.6821 114.912 38.9909 107.782C44.7935 101.223 52.4425 107.201 56.3134 100.717C60.3205 94.0051 50.5975 89.2387 40.5393 94.6203C37.7689 96.1026 32.6922 97.6203 32.4103 95.0074C32.3128 94.1041 32.7676 91.7427 34.1522 89.4913C38.9158 81.7458 44.0917 87.1596 48.9554 89.1042C52.4425 90.4983 54.4854 85.8139 52.5392 83.9752C49.8707 81.454 48.3338 78.7993 48.8618 76.33C49.2123 74.6912 50.7005 72.6295 53.4102 72.6295Z" fill="white"/>
<path d="M83.7104 72.3382C84.701 70.0209 84.2515 67.7831 82.9429 65.7853C81.6454 63.8046 79.4946 62.0381 77.0142 60.5755C72.0606 57.6545 65.6089 55.8412 61.4639 56.011C56.838 56.2004 50.384 56.6744 45.8769 58.6247C43.6197 59.6014 41.7699 60.9825 40.9309 62.9622C40.0846 64.9589 40.319 67.4356 41.9476 70.4752C42.1138 70.7854 42.3782 70.9812 42.6794 71.0584C42.9693 71.1327 43.2663 71.0914 43.5192 70.9866C44.0114 70.7826 44.4754 70.2676 44.4152 69.5801C44.1273 66.2922 45.1642 63.9816 46.9831 62.381C48.8258 60.7595 51.5195 59.8251 54.603 59.4235C60.7708 58.6203 68.2674 59.9785 72.8784 61.8606C76.9791 63.5344 79.9193 67.0716 81.1719 71.9934C81.3246 72.5932 81.8039 72.9867 82.3182 73.083C82.8507 73.1826 83.4445 72.9603 83.7104 72.3382Z" fill="white"/>
<path d="M61.0262 60.9464C60.0012 60.8467 59.0005 60.9313 58.2331 61.2569C57.4481 61.59 56.852 62.2111 56.852 63.1499C56.852 64.3265 57.7266 65.4103 58.8217 65.9366C59.9497 66.4786 61.4062 66.4808 62.6197 65.3901C63.189 64.8785 63.5422 64.3509 63.6802 63.8183C63.8212 63.2743 63.7261 62.7675 63.476 62.3416C62.9947 61.5216 61.9739 61.0385 61.0262 60.9464Z" fill="white"/>
<path d="M86.4043 63.9828C85.8735 63.5034 85.1709 63.4614 84.6653 63.745C84.4113 63.8874 84.1968 64.1195 84.1022 64.4263C84.0059 64.7387 84.0498 65.0767 84.2203 65.3954C85.8203 68.3874 88.1842 70.2319 90.415 71.7812C90.75 72.0139 91.0798 72.2384 91.403 72.4585L91.4035 72.4588C92.1671 72.9787 92.8947 73.4741 93.5701 73.9942C94.5251 74.7295 95.3364 75.4861 95.9331 76.3672C99.5243 81.6712 101.165 87.8232 101.35 92.8124C101.377 93.5264 101.839 94.0526 102.402 94.1935C102.684 94.264 102.998 94.2373 103.273 94.073C103.552 93.9066 103.745 93.6272 103.835 93.279C105.556 86.6533 102.623 78.171 97.3037 72.2838C95.7283 70.5401 94.005 69.384 92.1901 68.2095C92.0679 68.1304 91.9452 68.0512 91.822 67.9717L91.8178 67.969C90.1093 66.866 88.3131 65.7064 86.4043 63.9828Z" fill="white"/>
<path d="M34.8997 71.2614C30.6474 70.9204 27.2942 72.0883 24.7367 74.1916C22.1896 76.2864 20.4635 79.2817 19.3979 82.5529C17.2734 89.0745 17.7246 96.8526 19.715 101.219C20.2464 102.386 21.835 102.306 22.3268 101.176C22.8672 99.934 23.0539 98.8661 22.9964 97.7141C22.9399 96.5834 22.6474 95.3832 22.2617 93.8952C20.855 88.4679 21.7414 84.0142 24.0753 80.6777C26.416 77.3314 30.251 75.0547 34.8337 74.0717C35.6035 73.9066 36.0541 73.2755 36.1049 72.6557C36.1305 72.3436 36.0566 72.0102 35.8442 71.7394C35.626 71.4612 35.2962 71.2932 34.8997 71.2614Z" fill="white"/>
<path d="M92.3957 79.1333C93.2328 78.903 93.7489 78.3803 93.9366 77.7072C94.1153 77.0661 93.9763 76.3629 93.6818 75.7607C93.385 75.1538 92.905 74.5943 92.3166 74.2336C91.7235 73.8699 90.9964 73.6966 90.248 73.9259C87.8856 74.6496 86.9933 76.6633 87.5736 78.0043C87.9028 78.7652 88.6086 79.1947 89.4502 79.3577C90.2863 79.5198 91.305 79.4334 92.3957 79.1333Z" fill="white"/>
<path d="M28.6894 81.4376C27.8936 81.3341 27.1168 81.4696 26.4129 81.8843C25.7134 82.2965 25.1162 82.9663 24.6399 83.8835C24.1304 84.8647 24.1503 86.1195 24.7336 86.8841C25.0429 87.2895 25.5113 87.5487 26.0928 87.5168C26.6493 87.4864 27.2428 87.1935 27.8549 86.6554C29.0434 85.6105 29.7416 84.4731 29.9308 83.5144C30.0254 83.0353 29.9998 82.5582 29.7892 82.166C29.568 81.7541 29.1768 81.501 28.6894 81.4376Z" fill="white"/>
<path d="M101.796 99.7364C101.574 99.4511 101.286 99.2724 100.971 99.2175C100.659 99.1633 100.354 99.2357 100.106 99.3904C99.6047 99.7031 99.3283 100.351 99.5642 101.041C102.197 108.737 101.18 113.767 98.3892 117.381C95.5612 121.043 90.8501 123.344 85.8675 125.414C85.356 125.627 85.0365 126.079 84.9999 126.566C84.9621 127.07 85.234 127.564 85.7848 127.785C88.3862 128.83 91.3416 128.367 94.1041 126.953C96.8699 125.537 99.4922 123.146 101.479 120.234C105.448 114.416 106.961 106.373 101.796 99.7364Z" fill="white"/>
<path d="M25.3684 105.739C25.7953 105.147 25.7329 104.417 25.4049 103.923C25.2387 103.674 24.9907 103.463 24.6768 103.369C24.3541 103.273 24.004 103.314 23.6741 103.498C20.8769 105.054 19.2941 107.43 18.6817 110.167C18.0725 112.889 18.4257 115.949 19.4505 118.913C21.4946 124.826 26.2722 130.525 31.8266 132.584C33.3616 133.153 35.1488 133.589 37.0486 133.388C38.9606 133.185 40.9465 132.341 42.8757 130.419C43.1564 130.14 43.2957 129.796 43.2632 129.439C43.2319 129.095 43.0478 128.806 42.8151 128.601C42.3558 128.198 41.5993 128.029 40.9152 128.385C38.6901 129.542 36.6472 129.903 34.7947 129.686C32.9399 129.469 31.2404 128.668 29.712 127.445C26.6437 124.989 24.3044 120.862 22.8805 116.547C22.5211 115.457 22.431 113.736 22.7974 111.775C23.162 109.824 23.9718 107.677 25.3684 105.739Z" fill="white"/>
<path d="M96.2557 111.585C95.2922 111.36 94.5263 111.367 93.8839 111.687C93.2497 112.003 92.8288 112.579 92.4512 113.26C91.8678 114.312 92.0541 115.738 92.6955 116.687C93.0242 117.173 93.4984 117.574 94.1013 117.725C94.7133 117.878 95.3864 117.755 96.0669 117.323C97.3502 116.509 98.1128 115.302 98.2006 114.159C98.2449 113.583 98.1163 113.017 97.7807 112.547C97.4434 112.076 96.9238 111.741 96.2557 111.585Z" fill="white"/>
<path d="M31.9825 119.936C31.3091 119.254 30.5782 118.783 29.8228 118.595C29.0543 118.404 28.2879 118.515 27.5918 118.951C26.9763 119.337 26.7357 119.927 26.7661 120.546C26.7949 121.131 27.0619 121.73 27.415 122.248C27.7724 122.772 28.2468 123.256 28.7507 123.613C29.2442 123.962 29.8205 124.227 30.3766 124.227C31.0148 124.227 31.5536 124.07 31.9713 123.778C32.3908 123.484 32.6599 123.073 32.7848 122.617C33.0314 121.719 32.7165 120.679 31.9825 119.936Z" fill="white"/>
<path d="M83.3797 131.712C83.5496 131.078 83.2441 130.539 82.7736 130.282C82.3176 130.033 81.7095 130.042 81.2144 130.401C69.7625 138.708 60.8959 140.035 53.6248 138.88C49.6742 138.253 46.5372 136.648 44.6544 134.448C44.2379 133.961 43.5966 133.779 43.0617 133.873C42.7893 133.92 42.5129 134.045 42.3096 134.274C42.0985 134.513 42.0003 134.826 42.0341 135.173C42.2638 137.527 43.849 139.133 45.9649 140.246C48.0754 141.357 50.7922 142.024 53.4683 142.486C59.4358 143.515 66.2221 143.268 71.8526 141.562C77.4675 139.86 82.0528 136.666 83.3797 131.712Z" fill="white"/>
<path d="M64.9641 132.108C63.4093 130.999 61.6999 131.227 60.9952 131.5C59.5425 132.04 58.5376 133.176 58.2941 134.315C58.1706 134.893 58.2416 135.494 58.5913 135.99C58.9416 136.488 59.5229 136.811 60.2841 136.93C62.2071 137.231 63.8799 136.492 64.8427 135.48C65.3217 134.977 65.6533 134.375 65.7163 133.768C65.782 133.134 65.5479 132.525 64.9641 132.108Z" fill="white"/>
<path fill-rule="evenodd" clip-rule="evenodd" d="M295.424 95.3291C296.498 96.1712 298.405 97.0079 301.39 96.3457C311.925 94.008 317.697 98.6761 317.985 105.621C318.128 109.071 317.247 112.881 314.73 115.256C312.259 117.586 308.641 118.884 304.121 118.884C298.761 118.884 294.106 116.93 290.939 114.743C289.34 113.64 287.044 111.888 285.89 110.406C284.762 108.957 284.502 106.804 285.998 105.124C286.884 104.129 288.142 103.42 290.416 105.621C294.755 109.822 305.173 116.166 310.838 110.406C314.198 106.99 312.746 100.484 302.182 102.729C298.186 103.579 294.774 102.622 292.268 100.659C289.75 98.6852 288.377 95.6923 288.172 92.5886C287.753 86.2549 292.109 80.1935 299.452 80.1935C303.264 80.1935 309.1 80.7845 311.925 85.6849C313.181 87.8613 311.925 89.7111 309.222 88.4063C306.424 87.056 302.633 86.3098 299.452 86.6419C294.787 87.1289 293.608 89.7961 293.761 92.1001C293.841 93.3153 294.362 94.4968 295.424 95.3291ZM129.894 111.05C130.255 113.712 132.825 112.072 134.184 111.05C134.82 110.571 135.46 110.03 136.167 109.432L136.207 109.397C136.903 108.809 137.675 108.157 138.453 107.586C139.895 106.529 142.205 104.62 144.6 105.091C147.18 105.598 148.731 107.878 149.646 110.731C149.954 111.691 150.498 113.986 148.873 115.875C147.785 117.141 146.172 117.044 145.106 114.593C144.616 113.464 144.139 112.795 143.534 112.608C142.93 112.422 141.991 112.455 139.528 114.593C138.658 115.347 138.02 115.869 137.251 116.446C135.708 117.607 133.64 118.903 131.271 118.903C129.239 118.903 127.326 118.177 126.001 116.374C124.741 114.658 124.409 112.493 124.456 110.551C124.549 106.725 126.138 102.132 128.268 97.9328C130.442 93.6458 133.401 89.3337 136.65 86.0515C139.811 82.8588 143.675 80.2123 147.624 80.2119C149.211 80.2118 150.622 80.8636 151.692 82.1595C152.659 83.331 153.163 84.8091 153.47 86.1202C153.941 88.1283 154.147 90.7455 154.347 93.284C154.398 93.9312 154.449 94.5732 154.503 95.1988C155.086 101.898 155.724 108.483 160.578 112.958C161.786 114.072 163.875 116.431 161.452 117.834C160.069 118.635 157.524 118.601 155.569 117.055C151.943 114.187 149.646 106.875 148.731 93.4803C148.586 91.3513 148.295 88.7843 146.977 88.123C145.658 87.4618 143.173 88.0445 140.348 90.8973C137.613 93.6605 135.048 96.8204 133.134 100.594C131.176 104.455 129.607 108.94 129.894 111.05ZM166.456 93.4208C166.752 97.0585 170.197 96.8612 172.724 96.3767C183.538 94.3033 186.744 97.4386 188.908 102.63C191.097 107.882 188.761 113.84 183.807 116.458C181.184 117.844 177.276 118.396 173.518 117.834C169.745 117.271 165.536 114.731 162.804 110.731C161.847 109.33 161.519 107.174 162.804 106.553C164.088 105.933 165.71 107.63 166.996 108.623C169.558 110.599 171.27 110.996 174.24 111.44C177.225 111.885 180.022 111.362 181.466 110.599C184.135 109.188 184.261 106.897 183.854 105.418C183.369 103.658 181.466 100.594 173.526 102.161C169.853 102.886 166.477 103.068 164.144 100.995C161.781 98.8977 160.844 95.2468 161.31 91.8812C162.249 85.1043 168.962 80.2119 179.587 80.2119C181.135 80.2119 184.02 81.6626 182.616 86.3543C182.113 88.0381 181.119 87.4854 179.587 87.2307C170.217 85.6729 166.187 90.1224 166.456 93.4208ZM225.946 110.189C226.765 109.943 227.291 108.209 229.158 106.285C232.674 102.663 235.385 102.23 238.057 102.116C240.383 102.018 241.442 102.215 241.954 102.934C243.742 105.444 243.268 108.28 241.45 108.28C237.15 108.28 235.099 108.915 232.022 112.301C229.314 115.28 228.947 117.791 225.782 117.791C222.454 117.791 220.412 115.277 219.94 111.604C219.554 108.596 220.097 101.77 221.343 95.657C224.263 81.3313 230.057 80.2116 233.237 80.2111C238.802 80.2104 242.506 83.2393 246.264 89.7111C249.896 95.9658 251.87 107.131 251.87 115.676C251.87 117.457 250.694 117.79 249.146 117.79C247.598 117.79 245.753 117.451 245.883 115.676C246.455 107.885 244.615 99.6987 241.954 94.1849C239.23 88.5401 236.392 86.6603 233.237 86.6603C232.218 86.6603 228.968 87.0217 226.837 97.7068C224.928 107.282 225.08 110.448 225.946 110.189ZM254.956 86.0945C257.129 82.0957 261.16 80.2111 266.179 80.2111C271.67 80.2111 276.979 81.6069 279.643 84.4032C281.016 85.8453 281.928 87.6568 282.214 89.7111C282.433 91.281 282.008 93.5732 281.579 94.7402C280.975 96.3799 279.809 97.6837 278.266 97.1701C277.102 96.7828 276.679 95.3539 276.679 93.5732C276.679 92.5886 276.786 91.4997 276.679 90.731C276.615 90.2699 276.406 89.7351 275.864 89.1666C274.698 87.9417 271.063 86.6595 266.179 86.6595C263.023 86.6595 260.88 87.6647 259.768 89.7111C258.564 91.9278 258.357 95.6229 258.741 99.1559C259.122 102.664 260.329 106.023 262.105 108.515C263.857 110.975 266.037 112.372 268.512 112.372C270.865 112.372 274.148 111.576 277.742 107.237C279.492 105.124 281.352 105.738 282.187 107.237C283.093 108.865 282.903 111.023 281.592 112.372C277.742 116.335 272.386 118.9 268.512 118.9C263.982 118.9 259.811 116.84 257.257 113.255C254.727 109.703 253.673 104.508 253.179 99.9555C252.687 95.4283 252.876 89.9229 254.956 86.0945ZM211.837 91.5344C209.152 84.5233 196.056 86.1744 189.954 89.0006C188.518 89.6656 187.597 88.3212 186.744 86.6603C185.709 84.6459 186.157 82.7459 187.651 82.2815C195.031 79.9876 201.683 80.0112 206.765 81.01C212.978 82.2309 215.853 85.3811 217.312 90.1253C218.529 94.0868 218.395 97.9032 216.85 101.067C215.283 104.279 212.454 105.514 207.337 105.514C204.488 105.514 202.728 106.164 201.304 107.239C200.328 107.975 199.793 109.389 199.592 110.189C198.9 112.94 198.728 114.21 198.199 116.505C197.802 118.226 197.158 118.429 195.008 118.429C192.531 118.429 192.384 116.572 192.781 114.851C193.246 112.836 193.72 109.616 193.813 106.213C193.889 103.451 193.813 99.2881 192.534 95.5712C191.964 93.9156 190.931 92.6648 193.176 91.5344C195.667 90.2802 197.624 91.1379 198.211 93.3296C199.031 96.3922 199.136 102.117 199.136 102.117C199.136 102.117 201.614 98.9633 207.337 99.1969C213.39 99.4439 212.628 93.6003 211.837 91.5344Z" fill="white"/>
</svg>
