<svg width="25" height="22" viewBox="0 0 25 22" fill="none" xmlns="http://www.w3.org/2000/svg">
<path d="M11.1427 0.876691C11.1427 0.5814 11.3336 0.319856 11.6178 0.231269C11.9019 0.142681 12.2073 0.248142 12.377 0.488594L21.878 13.9876C22.0222 14.1943 22.0392 14.4643 21.9247 14.6879C21.8102 14.9115 21.5769 15.0507 21.3224 15.0507H11.8214C11.4481 15.0507 11.1427 14.7469 11.1427 14.3757V0.876691ZM9.28067 4.27254C9.57758 4.35269 9.78542 4.61845 9.78542 4.9264V14.3757C9.78542 14.7469 9.48003 15.0507 9.10677 15.0507H3.67761C3.43584 15.0507 3.21104 14.9241 3.09227 14.7132C2.97351 14.5023 2.96927 14.2492 3.08803 14.0382L8.5172 4.58893C8.66989 4.32316 8.98377 4.19239 9.28067 4.27254ZM0.526144 17.2569C0.40314 16.8266 0.729738 16.4006 1.17934 16.4006H23.8207C24.2703 16.4006 24.5969 16.8266 24.4739 17.2569L24.3042 17.8602C23.6425 20.193 21.509 21.8002 19.0744 21.8002H5.92562C3.49098 21.8002 1.35749 20.193 0.695806 17.8644L0.526144 17.2611V17.2569Z" fill="white"/>
</svg>
