<svg width="337" height="200" viewBox="0 0 337 200" fill="none" xmlns="http://www.w3.org/2000/svg">
<rect x="0.5" width="336" height="200" rx="20" fill="#534B4B"/>
<path d="M168.5 68C175.128 68 180.5 62.6281 180.5 56C180.5 49.3719 175.128 44 168.5 44C161.872 44 156.5 49.3719 156.5 56C156.5 62.6281 161.872 68 168.5 68ZM164.216 72.5C154.981 72.5 147.5 79.9812 147.5 89.2156C147.5 90.7531 148.747 92 150.284 92H186.716C188.253 92 189.5 90.7531 189.5 89.2156C189.5 79.9812 182.019 72.5 172.784 72.5H164.216Z" fill="white"/>
<path d="M32.8125 138.188V125.359C32.8125 123.609 32.7292 122.115 32.5625 120.875L46.0938 120.781L45.5469 123.984C44.7448 123.891 43.5417 123.839 41.9375 123.828L36.2656 123.859L36.2969 131.5H42.0312C43.2083 131.5 44.4583 131.448 45.7812 131.344L45.1406 134.734L36.2344 134.703V138.859H40.4375C40.4792 138.901 40.6354 138.896 40.9062 138.844C41.1979 138.792 41.849 138.766 42.8594 138.766C43.9115 138.766 45.0521 138.682 46.2812 138.516L45.6094 142H32.625C32.7396 140.125 32.8021 138.854 32.8125 138.188ZM49.5475 136.562V132.109C49.5683 131.401 49.5475 130.672 49.485 129.922C49.4225 129.109 49.3392 128.635 49.235 128.5C50.2142 127.927 51.3756 127.453 52.7194 127.078C54.1256 126.682 55.3288 126.484 56.3288 126.484C57.3496 126.484 58.2767 126.703 59.11 127.141C59.9433 127.578 60.5631 128.156 60.9694 128.875C61.5006 129.74 61.7454 131.203 61.7038 133.266L61.6413 138.453C61.7038 140.38 61.7454 141.562 61.7663 142H58.2506C58.3027 141.49 58.3548 140.573 58.4069 139.25V133.141C58.4069 132.016 58.2715 131.224 58.0006 130.766C57.5319 129.953 56.7767 129.547 55.735 129.547C54.7038 129.547 53.7715 129.781 52.9381 130.25L52.8131 133.75V133.906L52.7819 136.812C52.7819 139.292 52.8235 141.021 52.9069 142H49.3288C49.36 141.583 49.4121 140.646 49.485 139.188L49.5163 136.844C49.5371 136.698 49.5475 136.604 49.5475 136.562ZM71.1263 142.422C69.7096 142.432 68.5533 141.927 67.6575 140.906C66.7617 139.885 66.3138 137.87 66.3138 134.859V131.188H64.72V128.141H66.2825V125.453H69.5794V128.109L73.97 128.078V131.156H69.5794V135.188C69.496 136.427 69.6523 137.438 70.0481 138.219C70.4544 138.99 71.0117 139.375 71.72 139.375C72.4179 139.375 73.1158 139.161 73.8138 138.734L74.9231 141.203C73.8085 142.016 72.5429 142.422 71.1263 142.422ZM79.9238 126.766V128.969C81.0279 127.458 82.2258 126.703 83.5175 126.703C84.1217 126.703 84.7519 126.823 85.4081 127.062L84.4706 130.312C84.0331 130.104 83.5644 130 83.0644 130C81.106 130 80.1581 131.854 80.2206 135.562L80.3144 142H76.9238L77.1113 133.328L77.1425 132.938V132.531C77.1425 130.885 76.9967 129.135 76.705 127.281L79.9238 126.766ZM91.2525 142.453C89.7421 142.453 88.5025 141.953 87.5337 140.953C86.5754 139.932 86.0962 138.625 86.0962 137.031C86.0962 135.427 86.6119 134.104 87.6431 133.062C88.6848 132.021 89.9921 131.5 91.565 131.5C92.44 131.5 93.4087 131.755 94.4712 132.266C94.4921 132.078 94.5025 131.911 94.5025 131.766C94.5025 131.078 94.2681 130.5 93.7994 130.031C93.3306 129.562 92.7577 129.328 92.0806 129.328C90.8931 129.328 89.6327 129.693 88.2994 130.422L87.0494 127.891C89.0285 126.953 90.6431 126.484 91.8931 126.484C93.1431 126.484 94.1952 126.708 95.0494 127.156C95.9035 127.594 96.5181 128.177 96.8931 128.906C97.2681 129.635 97.4556 130.896 97.4556 132.688V136.438C97.4556 136.479 97.4452 136.552 97.4244 136.656V137.203C97.4244 139.005 97.69 140.464 98.2212 141.578L95.4712 142.453C95.2421 142.099 95.0702 141.479 94.9556 140.594C94.4035 141.281 93.8515 141.76 93.2994 142.031C92.7473 142.312 92.065 142.453 91.2525 142.453ZM93.8462 135.047C93.3358 134.536 92.664 134.281 91.8306 134.281C91.0181 134.281 90.3358 134.542 89.7837 135.062C89.2421 135.573 88.9712 136.219 88.9712 137C88.9712 137.781 89.2421 138.443 89.7837 138.984C90.3254 139.526 90.9921 139.797 91.7837 139.797C92.5754 139.797 93.2473 139.531 93.7994 139C94.3619 138.458 94.6431 137.792 94.6431 137C94.6431 136.208 94.3775 135.557 93.8462 135.047ZM104.894 126.766V128.969C105.998 127.458 107.196 126.703 108.488 126.703C109.092 126.703 109.722 126.823 110.378 127.062L109.441 130.312C109.003 130.104 108.534 130 108.034 130C106.076 130 105.128 131.854 105.191 135.562L105.284 142H101.894L102.081 133.328L102.113 132.938V132.531C102.113 130.885 101.967 129.135 101.675 127.281L104.894 126.766ZM125.629 126.578C127.452 126.578 129.01 127.188 130.301 128.406L128.411 130.734C127.421 129.943 126.359 129.547 125.223 129.547C124.088 129.547 123.155 130.016 122.426 130.953C121.697 131.87 121.332 133.083 121.332 134.594C121.332 136.094 121.692 137.297 122.411 138.203C123.129 139.109 124.072 139.562 125.239 139.562C126.405 139.562 127.546 139.083 128.661 138.125L130.364 140.266C128.697 141.797 126.885 142.562 124.926 142.562C122.968 142.562 121.348 141.833 120.067 140.375C118.786 138.917 118.145 137.026 118.145 134.703C118.145 132.391 118.843 130.458 120.239 128.906C121.635 127.354 123.431 126.578 125.629 126.578ZM133.317 129.047C134.817 127.484 136.625 126.703 138.739 126.703C140.854 126.703 142.661 127.479 144.161 129.031C145.672 130.573 146.427 132.432 146.427 134.609C146.427 136.797 145.661 138.646 144.13 140.156C142.62 141.667 140.797 142.422 138.661 142.422C136.536 142.422 134.739 141.661 133.271 140.141C131.802 138.609 131.067 136.766 131.067 134.609C131.067 132.453 131.817 130.599 133.317 129.047ZM143.255 134.672C143.255 133.349 142.817 132.229 141.942 131.312C141.067 130.396 140.005 129.938 138.755 129.938C137.505 129.938 136.432 130.406 135.536 131.344C134.64 132.292 134.192 133.401 134.192 134.672C134.192 135.943 134.625 137.036 135.489 137.953C136.354 138.859 137.422 139.312 138.692 139.312C139.963 139.312 141.041 138.87 141.927 137.984C142.812 137.099 143.255 135.995 143.255 134.672ZM149.615 136.719V133.266C149.677 131.891 149.542 130.406 149.209 128.812C150.042 128.177 151.099 127.641 152.381 127.203C153.724 126.745 154.917 126.516 155.959 126.516C157.011 126.516 158.245 127.026 159.662 128.047C160.745 127.443 161.62 127.042 162.287 126.844C162.985 126.625 163.771 126.516 164.646 126.516C165.532 126.516 166.37 126.74 167.162 127.188C167.964 127.646 168.506 128.229 168.787 128.938C168.901 129.219 169.042 129.818 169.209 130.734C169.396 131.651 169.49 132.25 169.49 132.531V142H166.006C166.11 141.344 166.162 140.031 166.162 138.062L166.256 133.203C166.256 132.411 166.193 131.766 166.068 131.266C165.943 130.776 165.677 130.375 165.271 130.062C164.875 129.74 164.448 129.578 163.99 129.578C163.032 129.578 162.105 129.901 161.209 130.547L161.099 138.547L161.068 139.094C161.068 139.938 161.089 140.906 161.131 142H157.709L157.943 132.844V132.781C157.964 132.542 157.907 132.151 157.771 131.609C157.646 131.016 157.532 130.641 157.427 130.484C157.032 129.87 156.37 129.557 155.443 129.547C154.995 129.547 154.605 129.594 154.271 129.688C153.927 129.781 153.433 129.969 152.787 130.25V138.156L152.818 140.266C152.818 140.474 152.839 141.052 152.881 142H149.396C149.542 140.333 149.615 138.573 149.615 136.719ZM174.475 129.047C175.975 127.484 177.782 126.703 179.897 126.703C182.011 126.703 183.819 127.479 185.319 129.031C186.829 130.573 187.584 132.432 187.584 134.609C187.584 136.797 186.819 138.646 185.288 140.156C183.777 141.667 181.954 142.422 179.819 142.422C177.694 142.422 175.897 141.661 174.428 140.141C172.959 138.609 172.225 136.766 172.225 134.609C172.225 132.453 172.975 130.599 174.475 129.047ZM184.413 134.672C184.413 133.349 183.975 132.229 183.1 131.312C182.225 130.396 181.163 129.938 179.913 129.938C178.663 129.938 177.59 130.406 176.694 131.344C175.798 132.292 175.35 133.401 175.35 134.672C175.35 135.943 175.782 137.036 176.647 137.953C177.511 138.859 178.579 139.312 179.85 139.312C181.121 139.312 182.199 138.87 183.084 137.984C183.97 137.099 184.413 135.995 184.413 134.672ZM209.179 127.828L202.148 142.891L195.289 127.734L198.586 126.547L202.273 135.594L206.117 126.547L209.179 127.828ZM211.055 140.297V138.766L210.992 130.578V130.391L210.961 128.688C210.961 128.25 210.93 127.76 210.867 127.219H214.414C214.289 127.99 214.227 129.344 214.227 131.281L214.133 142H210.961C211.024 141.531 211.055 140.964 211.055 140.297ZM211.102 121.328C211.529 120.901 212.034 120.688 212.617 120.688C213.222 120.688 213.737 120.901 214.164 121.328C214.591 121.755 214.805 122.271 214.805 122.875C214.805 123.458 214.591 123.964 214.164 124.391C213.748 124.807 213.232 125.016 212.617 125.016C212.024 125.016 211.513 124.802 211.086 124.375C210.68 123.938 210.477 123.427 210.477 122.844C210.477 122.25 210.685 121.745 211.102 121.328ZM224.931 138.094C224.931 137.24 224.035 136.573 222.243 136.094C220.431 135.604 219.207 134.943 218.571 134.109C217.925 133.255 217.602 132.385 217.602 131.5C217.602 130.135 218.144 128.953 219.227 127.953C220.311 126.953 221.634 126.453 223.196 126.453C224.759 126.453 226.425 127.135 228.196 128.5L226.556 130.984C225.285 129.943 224.061 129.422 222.884 129.422C222.29 129.422 221.811 129.573 221.446 129.875C221.082 130.167 220.899 130.552 220.899 131.031C220.899 131.5 221.082 131.859 221.446 132.109C221.8 132.349 222.597 132.661 223.837 133.047C225.629 133.578 226.811 134.219 227.384 134.969C227.967 135.729 228.259 136.609 228.259 137.609C228.259 139.057 227.743 140.266 226.712 141.234C225.691 142.193 224.415 142.672 222.884 142.672C220.936 142.672 219.092 141.948 217.352 140.5L219.102 137.969C220.019 138.604 220.738 139.047 221.259 139.297C221.78 139.516 222.337 139.625 222.931 139.625C223.535 139.625 224.019 139.49 224.384 139.219C224.748 138.938 224.931 138.562 224.931 138.094ZM231.369 140.297V138.766L231.306 130.578V130.391L231.275 128.688C231.275 128.25 231.244 127.76 231.181 127.219H234.728C234.603 127.99 234.541 129.344 234.541 131.281L234.447 142H231.275C231.337 141.531 231.369 140.964 231.369 140.297ZM231.416 121.328C231.843 120.901 232.348 120.688 232.931 120.688C233.535 120.688 234.051 120.901 234.478 121.328C234.905 121.755 235.119 122.271 235.119 122.875C235.119 123.458 234.905 123.964 234.478 124.391C234.061 124.807 233.546 125.016 232.931 125.016C232.337 125.016 231.827 124.802 231.4 124.375C230.994 123.938 230.791 123.427 230.791 122.844C230.791 122.25 230.999 121.745 231.416 121.328ZM244.26 142.422C242.843 142.432 241.687 141.927 240.791 140.906C239.895 139.885 239.447 137.87 239.447 134.859V131.188H237.854V128.141H239.416V125.453H242.713V128.109L247.104 128.078V131.156H242.713V135.188C242.63 136.427 242.786 137.438 243.182 138.219C243.588 138.99 244.145 139.375 244.854 139.375C245.552 139.375 246.25 139.161 246.947 138.734L248.057 141.203C246.942 142.016 245.677 142.422 244.26 142.422ZM254.12 142.453C252.61 142.453 251.37 141.953 250.401 140.953C249.443 139.932 248.964 138.625 248.964 137.031C248.964 135.427 249.479 134.104 250.511 133.062C251.552 132.021 252.86 131.5 254.432 131.5C255.307 131.5 256.276 131.755 257.339 132.266C257.36 132.078 257.37 131.911 257.37 131.766C257.37 131.078 257.136 130.5 256.667 130.031C256.198 129.562 255.625 129.328 254.948 129.328C253.761 129.328 252.5 129.693 251.167 130.422L249.917 127.891C251.896 126.953 253.511 126.484 254.761 126.484C256.011 126.484 257.063 126.708 257.917 127.156C258.771 127.594 259.386 128.177 259.761 128.906C260.136 129.635 260.323 130.896 260.323 132.688V136.438C260.323 136.479 260.313 136.552 260.292 136.656V137.203C260.292 139.005 260.557 140.464 261.089 141.578L258.339 142.453C258.11 142.099 257.938 141.479 257.823 140.594C257.271 141.281 256.719 141.76 256.167 142.031C255.615 142.312 254.932 142.453 254.12 142.453ZM256.714 135.047C256.203 134.536 255.531 134.281 254.698 134.281C253.886 134.281 253.203 134.542 252.651 135.062C252.11 135.573 251.839 136.219 251.839 137C251.839 137.781 252.11 138.443 252.651 138.984C253.193 139.526 253.86 139.797 254.651 139.797C255.443 139.797 256.115 139.531 256.667 139C257.229 138.458 257.511 137.792 257.511 137C257.511 136.208 257.245 135.557 256.714 135.047ZM264.855 136.562V132.109C264.876 131.401 264.855 130.672 264.792 129.922C264.73 129.109 264.647 128.635 264.542 128.5C265.522 127.927 266.683 127.453 268.027 127.078C269.433 126.682 270.636 126.484 271.636 126.484C272.657 126.484 273.584 126.703 274.417 127.141C275.251 127.578 275.871 128.156 276.277 128.875C276.808 129.74 277.053 131.203 277.011 133.266L276.949 138.453C277.011 140.38 277.053 141.562 277.074 142H273.558C273.61 141.49 273.662 140.573 273.714 139.25V133.141C273.714 132.016 273.579 131.224 273.308 130.766C272.839 129.953 272.084 129.547 271.042 129.547C270.011 129.547 269.079 129.781 268.246 130.25L268.121 133.75V133.906L268.089 136.812C268.089 139.292 268.131 141.021 268.214 142H264.636C264.667 141.583 264.72 140.646 264.792 139.188L264.824 136.844C264.845 136.698 264.855 136.604 264.855 136.562ZM286.434 142.422C285.017 142.432 283.861 141.927 282.965 140.906C282.069 139.885 281.621 137.87 281.621 134.859V131.188H280.027V128.141H281.59V125.453H284.887V128.109L289.277 128.078V131.156H284.887V135.188C284.804 136.427 284.96 137.438 285.356 138.219C285.762 138.99 286.319 139.375 287.027 139.375C287.725 139.375 288.423 139.161 289.121 138.734L290.231 141.203C289.116 142.016 287.85 142.422 286.434 142.422ZM298.216 142.547C296.122 142.547 294.367 141.797 292.95 140.297C291.533 138.786 290.825 136.891 290.825 134.609C290.825 132.318 291.518 130.411 292.903 128.891C294.289 127.349 296.033 126.578 298.138 126.578C300.242 126.578 301.966 127.323 303.309 128.812C304.664 130.292 305.341 132.182 305.341 134.484C305.341 134.807 305.309 135.156 305.247 135.531L293.981 135.594C294.106 136.74 294.57 137.714 295.372 138.516C296.164 139.307 297.091 139.703 298.153 139.703C299.684 139.703 301.007 139.052 302.122 137.75L304.2 139.5C303.138 140.604 302.148 141.391 301.231 141.859C300.315 142.318 299.309 142.547 298.216 142.547ZM294.091 132.844L302.013 132.812C301.96 131.865 301.57 131.073 300.841 130.438C300.101 129.781 299.231 129.453 298.231 129.453C297.221 129.453 296.33 129.776 295.559 130.422C294.778 131.078 294.289 131.885 294.091 132.844Z" fill="white"/>
</svg>
