<svg width="40" height="36" viewBox="0 0 40 36" fill="none" xmlns="http://www.w3.org/2000/svg">
<path d="M21.25 5.67238C15.1094 5.67238 9.91406 9.69582 8.14844 15.2427C10.7734 13.9146 13.7344 13.1724 16.875 13.1724H23.75C24.4375 13.1724 25 13.7349 25 14.4224C25 15.1099 24.4375 15.6724 23.75 15.6724H22.5H16.875C15.5781 15.6724 14.3203 15.8208 13.1016 16.0943C11.0781 16.5552 9.20312 17.3755 7.52344 18.4927C2.99219 21.5161 0 26.6802 0 32.5474V33.7974C0 34.8364 0.835938 35.6724 1.875 35.6724C2.91406 35.6724 3.75 34.8364 3.75 33.7974V32.5474C3.75 28.7427 5.36719 25.3208 7.95312 22.9224C9.5 28.8208 14.8672 33.1724 21.25 33.1724H21.3281C31.6484 33.1177 40 22.9458 40 10.4068C40 7.07864 39.4141 3.91457 38.3516 1.06301C38.1484 0.523948 37.3594 0.547385 37.0859 1.0552C35.6172 3.8052 32.7109 5.67238 29.375 5.67238H21.25Z" fill="#00491E"/>
</svg>
