<svg width="36" height="36" viewBox="0 0 36 36" fill="none" xmlns="http://www.w3.org/2000/svg">
<path d="M36 5.14286C36 2.30625 33.6938 0 30.8571 0C30.3268 0 29.8125 0.0803573 29.3304 0.233036C27.5223 0.795536 25.4652 1.43036 23.625 0.95625C17.5821 -0.578571 11.0571 1.84018 6.45268 6.44464C1.84821 11.0491 -0.578571 17.5821 0.95625 23.625C1.42232 25.4652 0.795536 27.5143 0.233036 29.3304C0.0803571 29.8125 0 30.3268 0 30.8571C0 33.6938 2.30625 36 5.14286 36C5.67321 36 6.1875 35.9196 6.67768 35.767C8.48571 35.2045 10.5429 34.5696 12.383 35.0438C18.4259 36.5786 24.9509 34.1598 29.5554 29.5554C34.1598 24.9509 36.5866 18.4259 35.0438 12.383C34.5777 10.5429 35.2045 8.49375 35.767 6.67768C35.9196 6.19554 36 5.68125 36 5.14286ZM17.0759 7.66607C12.6884 8.95179 8.95179 12.6884 7.66607 17.0759C7.46518 17.7589 6.75 18.1446 6.06696 17.9518C5.38393 17.7589 4.99821 17.0357 5.19107 16.3527C6.72589 11.1214 11.1134 6.72589 16.3527 5.19107C17.0357 4.99018 17.7509 5.38393 17.9518 6.06696C18.1527 6.75 17.7589 7.46518 17.0759 7.66607Z" fill="#653024"/>
</svg>
