<svg width="179" height="100" viewBox="0 0 179 100" fill="none" xmlns="http://www.w3.org/2000/svg">
<path d="M175.699 66.4619C174.236 66.4619 173.169 65.3039 173.169 63.8462C173.169 62.4093 174.236 61.2323 175.679 61.2323C177.122 61.2323 178.17 62.4093 178.17 63.8665C178.17 65.3039 177.122 66.4619 175.699 66.4619ZM175.679 60.5732C173.821 60.5732 172.339 62.0309 172.339 63.8462C172.339 65.7026 173.821 67.1604 175.679 67.1604C177.557 67.1604 179 65.7026 179 63.8462C179 62.0309 177.557 60.5732 175.679 60.5732Z" fill="white"/>
<path d="M175.541 63.7068H175.185V62.7693C175.264 62.7497 175.403 62.7294 175.601 62.7294C176.074 62.7294 176.292 62.9285 176.292 63.2276C176.292 63.5673 175.956 63.7068 175.541 63.7068ZM176.43 63.947V63.907C176.826 63.7867 177.103 63.5077 177.103 63.1484C177.103 62.8289 176.964 62.5691 176.786 62.429C176.549 62.2902 176.272 62.1907 175.66 62.1907C175.125 62.1907 174.711 62.23 174.414 62.2902V65.5626H175.165V64.2455H175.522C175.936 64.2455 176.134 64.4053 176.193 64.7646C176.292 65.1437 176.351 65.4434 176.451 65.5626H177.26C177.181 65.4434 177.122 65.2444 177.023 64.745C176.924 64.3057 176.747 64.0667 176.43 63.947Z" fill="white"/>
<path d="M88.2419 46.8143C88.2419 46.8143 88.1168 46.8995 87.9032 47.058C83.9221 50.0223 82.616 55.442 84.7791 59.9332L88.0389 66.7004L91.3878 59.6394C93.3798 55.4379 92.3764 50.3877 88.8829 47.3459C88.6787 47.1689 88.4656 46.9913 88.2419 46.8143Z" fill="white"/>
<path d="M152.298 30.8711C150.345 35.0911 151.397 40.1318 154.919 43.1402C155.124 43.3154 155.339 43.4907 155.564 43.6659C155.564 43.6659 155.689 43.5795 155.901 43.4186C159.854 40.4167 161.109 34.9839 158.903 30.5135L155.58 23.778L152.298 30.8711Z" fill="white"/>
<path d="M7.82503 19.0816L8.98776 11.3412C9.6795 6.73559 7.26019 2.2009 3.04011 0.32063C2.79399 0.210972 2.53842 0.103698 2.27341 0C2.27341 0 2.17839 0.118598 2.01962 0.333741C-0.931483 4.3416 -0.615124 9.91029 2.75149 13.5689L7.82503 19.0816Z" fill="white"/>
<path d="M0 21.118C0.423778 26.4405 0.692328 71.3101 0.692328 71.3101H9.61233L9.06637 20.9332L0 21.118Z" fill="white"/>
<path d="M51.2569 20.7723C51.2569 20.7723 53.4921 43.4171 51.4741 56.2238C51.4741 56.2238 30.3425 32.0998 27.3978 29.0359C23.9639 25.4625 22.3426 23.0572 18.917 21.7819C18.917 21.7819 12.0456 44.7366 15.6153 71.3101H24.3936C24.3936 71.3101 22.0906 50.6873 24.092 38.2442C24.092 38.2442 43.8201 61.0756 47.1083 64.3849C50.7535 68.0543 54.4453 70.2457 56.9295 71.5437C56.9295 71.5437 63.8516 47.006 59.7195 20.6203L51.2569 20.7723Z" fill="white"/>
<path d="M88.208 20.7875C88.1702 20.7678 88.1218 20.7678 88.0663 20.7875C88.0663 20.7875 70.2954 26.9307 62.776 71.3097H71.6304C71.6304 71.3097 76.8297 41.4197 88.1371 31.5273C99.6972 41.7439 104.644 71.3097 104.644 71.3097H113.484C105.964 26.9307 88.208 20.7875 88.208 20.7875Z" fill="white"/>
<path d="M160.075 10.1561L153.841 3.78286C129.697 28.3694 102.694 19.3983 101.511 18.9919L101.842 27.8968C102.447 28.1083 105.88 29.451 115.564 29.451C116.328 29.451 117.11 29.4373 117.909 29.4069C118.585 41.1409 118.646 71.3098 118.646 71.3098L127.489 71.2895L127.114 28.3533C137.355 26.3812 149.085 21.3483 160.075 10.1561Z" fill="white"/>
<path d="M178.123 20.9294H169.357C170.415 60.8489 157.622 62.6004 154.846 62.5307C154.326 62.5438 153.438 62.4925 152.347 62.1379C149.755 61.474 147.745 59.6039 146.177 57.0687C143.333 52.3123 140.759 44.315 140.331 29.5071C137.629 30.6353 134.854 31.5721 132.012 32.3207C132.692 53.7909 139.567 63.7041 145.715 68.0004C152.289 72.5959 161.019 72.3242 166.712 66.6553C179.129 54.2891 178.209 23.1065 178.123 20.9294Z" fill="white"/>
<path d="M0.514669 90.7748C0.514669 90.7748 0.558935 90.7081 0.641566 90.5948C2.18499 88.4803 5.00802 87.7866 7.34706 88.9357L10.8719 90.6669L7.1936 92.4453C5.00566 93.5025 2.37563 92.9703 0.791482 91.1145C0.698817 91.0066 0.606743 90.8934 0.514669 90.7748Z" fill="white"/>
<path d="M169.549 90.7748C169.549 90.7748 169.505 90.7081 169.422 90.5948C167.879 88.4803 165.056 87.7866 162.716 88.9357L159.192 90.6669L162.87 92.4453C165.058 93.5025 167.688 92.9703 169.272 91.1145C169.365 91.0066 169.457 90.8934 169.549 90.7748Z" fill="white"/>
<path d="M17.3117 93.3786H23.0741C22.1297 91.2731 21.1364 89.1658 20.192 87.2086C19.2229 89.1658 18.2543 91.2731 17.3117 93.3786ZM24.4145 96.3882H15.9454C15.4478 97.5176 14.952 98.6469 14.5295 99.7489H10.6789C13.5101 93.4799 16.9883 86.4577 20.0687 80.9391H20.2924C23.3715 86.4577 26.8497 93.4799 29.681 99.7489H25.8304C25.4078 98.6201 24.912 97.5176 24.4145 96.3882Z" fill="white"/>
<path d="M52.4333 80.939V99.7489H48.8566L48.9316 88.9649C46.6952 91.4983 43.8391 95.3602 42.2007 97.7428H42.0018C40.3633 95.3351 37.5055 91.4983 35.2951 88.9649L35.3707 99.7489H31.768V80.939C33.358 80.939 38.8471 87.8618 42.1004 92.2004C45.3554 87.8618 50.8699 80.939 52.4333 80.939Z" fill="white"/>
<path d="M61.1794 93.3786H66.9417C65.9974 91.2731 65.004 89.1658 64.0597 87.2086C63.0905 89.1658 62.122 91.2731 61.1794 93.3786ZM68.2815 96.3882H59.813C59.3155 97.5176 58.8197 98.6469 58.3971 99.7489H54.5465C57.3796 93.4799 60.856 86.4577 63.9351 80.9391H64.16C67.2392 86.4577 70.7168 93.4799 73.5481 99.7489H69.6992C69.2755 98.6201 68.7791 97.5176 68.2815 96.3882Z" fill="white"/>
<path d="M88.08 96.7397V99.7493H74.2954C74.2954 96.866 80.4549 88.7389 82.8394 84.2006H74.4436V81.1892H87.9307C87.9307 84.0748 81.7463 92.2002 79.3619 96.7397H88.08Z" fill="white"/>
<path d="M105.394 90.4704C105.394 86.5573 103.009 83.9488 99.4565 83.9488C95.8803 83.9488 93.4959 86.5573 93.4959 90.4704C93.4959 94.3817 95.8803 96.9903 99.4565 96.9903C103.009 96.9903 105.394 94.3817 105.394 90.4704ZM89.7692 90.4704C89.7692 84.751 93.644 80.9392 99.4565 80.9392C105.219 80.9392 109.118 84.751 109.118 90.4704C109.118 96.1881 105.219 99.9999 99.4565 99.9999C93.644 99.9999 89.7692 96.1881 89.7692 90.4704Z" fill="white"/>
<path d="M129.81 100C127.972 100 120.471 92.0504 116.075 87.837L116.124 99.7491H112.522V80.9393C114.361 80.9393 121.837 88.89 126.233 93.1035L126.184 81.1896H129.81V100Z" fill="white"/>
<path d="M137.935 99.7489H134.332V81.1888H137.935V99.7489Z" fill="white"/>
<path d="M146.703 93.3786H152.465C151.521 91.2731 150.527 89.1658 149.583 87.2086C148.614 89.1658 147.645 91.2731 146.703 93.3786ZM153.805 96.3882H145.336C144.839 97.5176 144.343 98.6469 143.92 99.7489H140.07C142.901 93.4799 146.379 86.4577 149.46 80.9391H149.683C152.762 86.4577 156.241 93.4799 159.072 99.7489H155.221C154.799 98.6201 154.303 97.5176 153.805 96.3882Z" fill="white"/>
<path d="M105.634 79.8728L104.392 77.1582C103.652 75.5425 101.936 74.6116 100.199 74.9084C100.097 74.9257 99.9937 74.946 99.8881 74.9692C99.8881 74.9692 99.8822 75.027 99.8763 75.1295C99.77 77.0342 101.032 78.7429 102.868 79.1934L105.634 79.8728Z" fill="white"/>
<path d="M93.9021 79.5644L96.7965 78.9291C98.5182 78.5507 99.7919 77.0614 99.8816 75.2842C99.8869 75.1811 99.8899 75.0738 99.8905 74.9642C99.8905 74.9642 99.8356 74.9463 99.7382 74.9183C97.9197 74.401 95.9939 75.2735 95.1599 76.9851L93.9021 79.5644Z" fill="white"/>
</svg>
