<svg width="75" height="40" viewBox="0 0 75 40" fill="none" xmlns="http://www.w3.org/2000/svg">
<path d="M73.1353 26.5848C72.5307 26.5848 72.0895 26.1216 72.0895 25.5385C72.0895 24.9637 72.5307 24.4929 73.1272 24.4929C73.7236 24.4929 74.1569 24.9637 74.1569 25.5466C74.1569 26.1216 73.7236 26.5848 73.1353 26.5848ZM73.1272 24.2293C72.3589 24.2293 71.7464 24.8124 71.7464 25.5385C71.7464 26.2811 72.3589 26.8641 73.1272 26.8641C73.9034 26.8641 74.5 26.2811 74.5 25.5385C74.5 24.8124 73.9034 24.2293 73.1272 24.2293Z" fill="#3A2212"/>
<path d="M73.07 25.4827H72.9229V25.1077C72.9556 25.0999 73.0129 25.0918 73.0947 25.0918C73.2903 25.0918 73.3804 25.1714 73.3804 25.291C73.3804 25.4269 73.2415 25.4827 73.07 25.4827ZM73.4377 25.5788V25.5628C73.6012 25.5147 73.7156 25.4031 73.7156 25.2593C73.7156 25.1316 73.6583 25.0276 73.5849 24.9716C73.4868 24.9161 73.3723 24.8763 73.1191 24.8763C72.8982 24.8763 72.727 24.892 72.6042 24.9161V26.225H72.9146V25.6982H73.062C73.2335 25.6982 73.3152 25.7621 73.3396 25.9058C73.3804 26.0575 73.405 26.1774 73.446 26.225H73.7808C73.7481 26.1774 73.7237 26.0977 73.6827 25.898C73.642 25.7223 73.5685 25.6267 73.4377 25.5788Z" fill="#3A2212"/>
<path d="M36.9799 18.7257C36.9799 18.7257 36.9282 18.7598 36.8399 18.8232C35.1941 20.0089 34.6541 22.1768 35.5484 23.9733L36.896 26.6802L38.2804 23.8558C39.1039 22.1751 38.6891 20.1551 37.2449 18.9383C37.1605 18.8675 37.0724 18.7965 36.9799 18.7257Z" fill="#3A2212"/>
<path d="M63.4612 12.3484C62.6538 14.0365 63.0886 16.0527 64.5446 17.2561C64.6295 17.3262 64.7183 17.3963 64.8115 17.4663C64.8115 17.4663 64.863 17.4318 64.9506 17.3674C66.5849 16.1667 67.1037 13.9935 66.1919 12.2054L64.8179 9.51118L63.4612 12.3484Z" fill="#3A2212"/>
<path d="M3.73493 7.63263L4.21561 4.53648C4.50158 2.69423 3.50142 0.880359 1.75681 0.128252C1.65506 0.084389 1.5494 0.0414791 1.43985 0C1.43985 0 1.40056 0.0474391 1.33493 0.133496C0.114918 1.73664 0.245703 3.96411 1.63749 5.42756L3.73493 7.63263Z" fill="#3A2212"/>
<path d="M0.5 8.44719C0.675193 10.5762 0.786214 28.524 0.786214 28.524H4.47381L4.24811 8.3733L0.5 8.44719Z" fill="#3A2212"/>
<path d="M21.69 8.30892C21.69 8.30892 22.614 17.3669 21.7798 22.4895C21.7798 22.4895 13.0438 12.8399 11.8265 11.6144C10.4069 10.185 9.73661 9.22289 8.32042 8.71274C8.32042 8.71274 5.47976 17.8946 6.95548 28.524H10.5845C10.5845 28.524 9.63242 20.2749 10.4598 15.2977C10.4598 15.2977 18.6156 24.4302 19.9749 25.754C21.4819 27.2217 23.0081 28.0983 24.0351 28.6175C24.0351 28.6175 26.8968 18.8024 25.1885 8.24813L21.69 8.30892Z" fill="#3A2212"/>
<path d="M36.9659 8.31499C36.9502 8.30712 36.9302 8.30712 36.9073 8.31499C36.9073 8.31499 29.5606 10.7723 26.4521 28.5239H30.1126C30.1126 28.5239 32.262 16.5679 36.9366 12.6109C41.7156 16.6976 43.7606 28.5239 43.7606 28.5239H47.415C44.3064 10.7723 36.9659 8.31499 36.9659 8.31499Z" fill="#3A2212"/>
<path d="M66.6762 4.06244L64.099 1.51314C54.1176 11.3477 42.9543 7.75932 42.4653 7.59674L42.6025 11.1587C42.8526 11.2433 44.2717 11.7804 48.2753 11.7804C48.591 11.7804 48.9141 11.7749 49.2447 11.7628C49.5241 16.4563 49.5492 28.5239 49.5492 28.5239L53.2048 28.5158L53.0499 11.3413C57.2838 10.5525 62.1331 8.53932 66.6762 4.06244Z" fill="#3A2212"/>
<path d="M74.1375 8.37176H70.5134C70.9511 24.3395 65.6624 25.0402 64.5146 25.0123C64.2996 25.0175 63.9326 24.997 63.4815 24.8552C62.4101 24.5896 61.579 23.8416 60.9307 22.8275C59.7548 20.9249 58.6907 17.726 58.5141 11.8028C57.397 12.2541 56.2495 12.6289 55.0746 12.9283C55.3557 21.5163 58.1981 25.4816 60.7399 27.2002C63.4576 29.0384 67.0666 28.9297 69.42 26.6621C74.5533 21.7156 74.1729 9.24258 74.1375 8.37176Z" fill="#3A2212"/>
<path d="M0.712768 36.3099C0.712768 36.3099 0.731068 36.2832 0.765228 36.2379C1.40329 35.3921 2.57035 35.1147 3.53733 35.5743L4.99451 36.2668L3.47389 36.9781C2.56938 37.401 1.48211 37.1881 0.827205 36.4458C0.788897 36.4026 0.750832 36.3574 0.712768 36.3099Z" fill="#3A2212"/>
<path d="M70.5928 36.3099C70.5928 36.3099 70.5748 36.2832 70.5404 36.2379C69.9023 35.3921 68.7353 35.1147 67.7683 35.5743L66.3111 36.2668L67.8317 36.9781C68.7362 37.401 69.8235 37.1881 70.4784 36.4458C70.5167 36.4026 70.5548 36.3574 70.5928 36.3099Z" fill="#3A2212"/>
<path d="M7.65681 37.3514H10.039C9.6486 36.5092 9.23794 35.6663 8.84754 34.8834C8.44689 35.6663 8.04648 36.5092 7.65681 37.3514ZM10.5931 38.5553H7.09195C6.88626 39.007 6.68129 39.4588 6.50659 39.8996H4.91472C6.0852 37.392 7.5231 34.5831 8.79654 32.3756H8.88902C10.162 34.5831 11.5999 37.392 12.7704 39.8996H11.1785C11.0038 39.448 10.7988 39.007 10.5931 38.5553Z" fill="#3A2212"/>
<path d="M22.1764 32.3756V39.8995H20.6977L20.7287 35.586C19.8042 36.5993 18.6234 38.1441 17.9461 39.0971H17.8639C17.1865 38.1341 16.0051 36.5993 15.0913 35.586L15.1225 39.8995H13.6331V32.3756C14.2905 32.3756 16.5597 35.1447 17.9046 36.8801C19.2503 35.1447 21.53 32.3756 22.1764 32.3756Z" fill="#3A2212"/>
<path d="M25.792 37.3514H28.1742C27.7838 36.5092 27.3732 35.6663 26.9828 34.8834C26.5821 35.6663 26.1817 36.5092 25.792 37.3514ZM28.7281 38.5553H25.2272C25.0215 39.007 24.8165 39.4588 24.6418 39.8996H23.05C24.2212 37.392 25.6583 34.5831 26.9313 32.3756H27.0243C28.2972 34.5831 29.7349 37.392 30.9053 39.8996H29.3142C29.139 39.448 28.9338 39.007 28.7281 38.5553Z" fill="#3A2212"/>
<path d="M36.913 38.6959V39.8997H31.2143C31.2143 38.7464 33.7607 35.4955 34.7465 33.6802H31.2755V32.4757H36.8512C36.8512 33.6299 34.2946 36.8801 33.3088 38.6959H36.913Z" fill="#3A2212"/>
<path d="M44.0705 36.1882C44.0705 34.6229 43.0847 33.5795 41.6161 33.5795C40.1377 33.5795 39.1519 34.6229 39.1519 36.1882C39.1519 37.7527 40.1377 38.7961 41.6161 38.7961C43.0847 38.7961 44.0705 37.7527 44.0705 36.1882ZM37.6113 36.1882C37.6113 33.9004 39.2132 32.3757 41.6161 32.3757C43.9985 32.3757 45.6104 33.9004 45.6104 36.1882C45.6104 38.4752 43.9985 40 41.6161 40C39.2132 40 37.6113 38.4752 37.6113 36.1882Z" fill="#3A2212"/>
<path d="M54.1644 40C53.4046 40 50.3036 36.8202 48.4863 35.1348L48.5065 39.8996H47.0176V32.3757C47.7779 32.3757 50.8682 35.556 52.6855 37.2414L52.6653 32.4758H54.1644V40Z" fill="#3A2212"/>
<path d="M57.5233 39.8996H56.0339V32.4755H57.5233V39.8996Z" fill="#3A2212"/>
<path d="M61.148 37.3514H63.5302C63.1398 36.5092 62.7291 35.6663 62.3387 34.8834C61.9381 35.6663 61.5377 36.5092 61.148 37.3514ZM64.0843 38.5553H60.5832C60.3775 39.007 60.1725 39.4588 59.9978 39.8996H58.4059C59.5764 37.392 61.0143 34.5831 62.2877 32.3756H62.3802C63.6532 34.5831 65.0911 37.392 66.2616 39.8996H64.6697C64.495 39.448 64.29 39.007 64.0843 38.5553Z" fill="#3A2212"/>
<path d="M44.1701 31.9491L43.6565 30.8633C43.3507 30.217 42.6412 29.8447 41.9228 29.9634C41.8809 29.9703 41.8382 29.9784 41.7945 29.9877C41.7945 29.9877 41.7921 30.0108 41.7896 30.0518C41.7457 30.8137 42.2674 31.4971 43.0265 31.6774L44.1701 31.9491Z" fill="#3A2212"/>
<path d="M39.3199 31.8258L40.5164 31.5716C41.2282 31.4203 41.7548 30.8245 41.7918 30.1137C41.794 30.0724 41.7953 30.0295 41.7955 29.9857C41.7955 29.9857 41.7728 29.9785 41.7326 29.9673C40.9808 29.7604 40.1846 30.1094 39.8398 30.794L39.3199 31.8258Z" fill="#3A2212"/>
</svg>
