<svg width="25" height="24" viewBox="0 0 25 24" fill="none" xmlns="http://www.w3.org/2000/svg">
<path d="M4.1855 0.234933C3.74021 -0.111934 3.10743 -0.0697474 2.70433 0.328681L0.829435 2.20364C0.43102 2.60206 0.388834 3.23486 0.731003 3.68485L4.4808 8.55974C4.69172 8.83629 5.02452 9.00035 5.37137 9.00035H7.90717L13.0163 14.1096C12.3272 15.469 12.5475 17.1752 13.6865 18.3095L18.9362 23.5594C19.5222 24.1453 20.4737 24.1453 21.0596 23.5594L24.0594 20.5595C24.6453 19.9735 24.6453 19.022 24.0594 18.4361L18.8097 13.1862C17.6754 12.0518 15.9692 11.8268 14.6099 12.5159L9.50083 7.40664V4.87545C9.50083 4.5239 9.33678 4.19578 9.06023 3.98485L4.1855 0.234933ZM1.43409 18.5673C0.83881 19.1626 0.501328 19.9735 0.501328 20.8173C0.501328 22.575 1.92625 24 3.68396 24C4.52767 24 5.33856 23.6625 5.93384 23.0672L11.4554 17.5455C11.0898 16.5658 11.0336 15.5018 11.2867 14.494L8.39464 11.6019L1.43409 18.5673ZM24.5 6.75041C24.5 6.25823 24.4484 5.78012 24.35 5.32075C24.2375 4.79576 23.5954 4.65983 23.2157 5.03951L20.2206 8.03475C20.0799 8.17537 19.8878 8.25506 19.6909 8.25506H17.0004C16.5879 8.25506 16.2505 7.91757 16.2505 7.50508V4.80983C16.2505 4.61296 16.3301 4.42077 16.4708 4.28015L19.4659 1.28491C19.8456 0.90523 19.7096 0.263057 19.1847 0.15056C18.7206 0.0521248 18.2425 0.000563478 17.7504 0.000563478C14.024 0.000563478 11.0007 3.02393 11.0007 6.75041V6.7879L14.999 10.7862C16.6864 10.3597 18.5519 10.8097 19.8737 12.1315L20.6096 12.8674C22.9063 11.7893 24.5 9.45503 24.5 6.75041ZM5.37606 20.2501C5.37606 20.8735 4.87452 21.3751 4.25112 21.3751C3.62772 21.3751 3.12618 20.8735 3.12618 20.2501C3.12618 19.6267 3.62772 19.1251 4.25112 19.1251C4.87452 19.1251 5.37606 19.6267 5.37606 20.2501Z" fill="white"/>
</svg>
