<svg width="31" height="40" viewBox="0 0 31 40" fill="none" xmlns="http://www.w3.org/2000/svg">
<path d="M15.3335 40C7.05225 40 0.333496 33.2812 0.333496 25C0.333496 17.875 10.5054 4.50781 13.3491 0.914062C13.8179 0.328125 14.5132 0 15.2632 0H15.4038C16.1538 0 16.8491 0.328125 17.3179 0.914062C20.1616 4.50781 30.3335 17.875 30.3335 25C30.3335 33.2812 23.6147 40 15.3335 40ZM7.8335 26.25C7.8335 25.5625 7.271 25 6.5835 25C5.896 25 5.3335 25.5625 5.3335 26.25C5.3335 31.0859 9.24756 35 14.0835 35C14.771 35 15.3335 34.4375 15.3335 33.75C15.3335 33.0625 14.771 32.5 14.0835 32.5C10.6304 32.5 7.8335 29.7031 7.8335 26.25Z" fill="#151313"/>
</svg>
