<svg width="25" height="24" viewBox="0 0 25 24" fill="none" xmlns="http://www.w3.org/2000/svg">
<path fill-rule="evenodd" clip-rule="evenodd" d="M9.5 24C14.4706 24 18.5 19.9706 18.5 15C18.5 10.0294 14.4706 6 9.5 6C4.52944 6 0.5 10.0294 0.5 15C0.5 19.9706 4.52944 24 9.5 24ZM6.31802 11.818C7.16193 10.9741 8.30653 10.5 9.5 10.5C9.99706 10.5 10.4 10.0971 10.4 9.6C10.4 9.10294 9.99706 8.7 9.5 8.7C7.82914 8.7 6.22671 9.36375 5.04523 10.5452C3.86375 11.7267 3.2 13.3291 3.2 15C3.2 15.4971 3.60294 15.9 4.1 15.9C4.59706 15.9 5 15.4971 5 15C5 13.8065 5.47411 12.6619 6.31802 11.818Z" fill="white"/>
<path d="M22.841 0H19.3598C16.7666 0 14.5339 1.83039 14.0254 4.37324C13.857 5.21482 14.5007 6 15.359 6H18.8402C21.4334 6 23.6661 4.16961 24.1747 1.62676C24.343 0.785181 23.6993 0 22.841 0Z" fill="white"/>
</svg>
