<svg width="336" height="200" viewBox="0 0 336 200" fill="none" xmlns="http://www.w3.org/2000/svg">
<rect width="336" height="200" rx="20" fill="#534B4B"/>
<path d="M233.552 84.8615C233.772 85.7767 234.119 86.5882 234.593 87.3073C235.067 88.0227 235.677 88.6072 236.421 89.0572C237.161 89.5071 238.056 89.734 239.097 89.734C240.254 89.734 241.234 89.5071 242.036 89.0572C242.834 88.6072 243.486 88.0227 243.983 87.3073C244.48 86.592 244.839 85.7767 245.063 84.8615C245.283 83.95 245.394 83.0309 245.394 82.1041C245.394 81.1773 245.283 80.262 245.063 79.3467C244.843 78.4353 244.484 77.62 243.983 76.9008C243.486 76.1855 242.834 75.601 242.036 75.151C241.234 74.7011 240.258 74.4742 239.097 74.4742C238.052 74.4742 237.161 74.7011 236.421 75.151C235.677 75.601 235.067 76.1855 234.593 76.9008C234.119 77.6161 233.772 78.4314 233.552 79.3467C233.332 80.2582 233.22 81.1811 233.22 82.1041C233.22 83.0271 233.328 83.9462 233.552 84.8615Z" fill="white"/>
<path d="M256.589 75.1357C255.799 75.5741 255.147 76.1548 254.622 76.8701C254.102 77.5854 253.708 78.4007 253.442 79.316C253.176 80.2313 253.041 81.1581 253.041 82.108C253.041 83.0579 253.172 83.9847 253.442 84.8999C253.708 85.8152 254.102 86.6267 254.622 87.3458C255.143 88.0611 255.799 88.6418 256.589 89.0802C257.376 89.5187 258.294 89.7379 259.335 89.7379C260.376 89.7379 261.294 89.5187 262.08 89.0802C262.867 88.6418 263.523 88.065 264.043 87.3458C264.564 86.6305 264.957 85.8152 265.227 84.8999C265.493 83.9885 265.628 83.0579 265.628 82.108C265.628 81.1581 265.493 80.2313 265.227 79.316C264.961 78.4045 264.568 77.5892 264.043 76.8701C263.523 76.1548 262.867 75.5741 262.08 75.1357C261.294 74.6973 260.376 74.4781 259.335 74.4781C258.294 74.4781 257.376 74.6973 256.589 75.1357Z" fill="white"/>
<path fill-rule="evenodd" clip-rule="evenodd" d="M97.9911 40.286C101.554 41.5099 110.633 38.0525 111.372 25.1567C111.372 25.1567 88.567 22.5359 96.4432 38.7274C96.4167 39.3646 96.4375 40.0175 96.506 40.6856C97.2285 47.7559 103.313 54.621 105.694 56.1655C105.66 56.4109 105.628 56.6581 105.599 56.9071C104.425 66.9686 107.915 77.4741 110.758 83.1561C106.282 79.4275 102.014 75.2331 97.7747 71.0671C94.6378 67.9838 91.5732 64.9719 88.4874 62.2116C88.8021 59.4875 89.4574 48.4079 79.928 44.7121C73.6579 42.2795 68.7905 43.6473 65.5573 44.5558C63.1731 45.2257 61.6776 45.6459 61.1637 44.1084C61.1637 44.1084 66.1382 60.1911 70.2412 62.8216C77.1057 67.2225 84.7643 64.495 87.4284 63.2989C90.4961 66.0399 93.5504 69.04 96.6777 72.1118L96.7162 72.1496C101.868 77.2121 107.192 82.4434 112.995 86.8191C113.18 87.0369 113.347 87.1986 113.489 87.2998C113.592 87.3737 113.705 87.418 113.822 87.4346C117.082 89.8275 120.496 91.9394 124.117 93.5929V111.924C124.117 113.635 123.92 115.085 123.534 116.285C123.149 117.485 122.582 118.461 121.837 119.219C121.093 119.977 120.179 120.53 119.103 120.873C118.028 121.215 116.77 121.388 115.417 121.388C114.063 121.388 112.849 121.219 111.773 120.873C110.697 120.527 109.783 119.977 109.039 119.219C108.291 118.461 107.724 117.485 107.338 116.285C106.952 115.085 106.76 113.631 106.76 111.924V93.6605H103.945V112.543C103.945 114.058 104.157 115.496 104.585 116.862C105.013 118.223 105.688 119.415 106.613 120.434C107.539 121.457 108.726 122.261 110.176 122.853C111.626 123.446 113.346 123.742 115.417 123.742C117.488 123.742 119.25 123.446 120.7 122.853C122.15 122.261 123.338 121.453 124.263 120.434C125.185 119.419 125.863 118.227 126.291 116.862C126.719 115.496 126.935 114.058 126.935 112.543V94.7686C130.761 96.2123 134.818 97.126 139.164 97.3183C139.269 97.3471 139.371 97.3738 139.472 97.3985C139.534 97.4139 139.591 97.4216 139.653 97.4216H139.657C139.775 97.4216 139.888 97.395 139.99 97.3461C140.288 97.3529 140.587 97.3564 140.887 97.3564C153.293 97.3564 168.035 91.4801 186.375 75.4973C186.486 75.4014 186.562 75.2803 186.602 75.1499C195.473 71.2267 211.849 67.2425 217.684 68.5402C225.08 70.1862 228.705 72.6936 227.968 82.0733C227.064 86.9594 227.851 91.3322 229.781 95.0113C229.671 94.9682 229.559 94.9256 229.445 94.8834C228.928 94.695 228.381 94.5988 227.81 94.5988C227.289 94.5988 226.823 94.7142 226.399 94.9449C225.978 95.1757 225.608 95.4757 225.296 95.841C224.983 96.2063 224.737 96.6217 224.559 97.0832C224.382 97.5446 224.266 98.0215 224.212 98.5099H225.805C225.805 97.8292 226.005 97.3139 226.399 96.9601C226.792 96.6063 227.301 96.4294 227.93 96.4294C228.284 96.4294 228.666 96.5255 229.075 96.714C229.484 96.9062 229.919 97.1216 230.382 97.3677C230.792 97.5856 231.223 97.7824 231.675 97.9555C238.299 106.524 251.687 109.991 261.969 105.117C274.567 99.1444 278.091 85.4229 268.682 70.9323C257.297 53.3972 235.243 54.1188 222.139 56.2653C222.413 56.1374 222.67 56.0012 222.909 55.8571C223.688 55.3879 224.301 54.8572 224.748 54.2726C225.196 53.6881 225.539 53.1074 225.782 52.5344C226.029 51.9613 226.179 51.4229 226.244 50.9115C226.306 50.4 226.341 49.9962 226.341 49.6885C226.341 48.5694 226.156 47.6118 225.786 46.8235C225.415 46.0351 224.906 45.3659 224.255 44.8199C223.603 44.2738 222.851 43.8161 221.995 43.4469C221.139 43.0816 220.229 42.7662 219.257 42.5124L212.593 40.8703C212.03 40.7434 211.502 40.578 211.005 40.3742C210.507 40.1742 210.068 39.905 209.682 39.5743C209.3 39.2436 208.999 38.8436 208.784 38.3706C208.564 37.8976 208.456 37.3476 208.456 36.7092C208.456 35.694 208.649 34.8402 209.03 34.1518C209.412 33.4635 209.917 32.9097 210.542 32.4905C211.167 32.0713 211.895 31.7675 212.725 31.5752C213.554 31.3868 214.414 31.2906 215.308 31.2906C216.276 31.2906 217.202 31.4252 218.085 31.6906C218.964 31.9598 219.743 32.352 220.418 32.8751C221.093 33.3942 221.644 34.0442 222.064 34.821C222.489 35.5978 222.724 36.5093 222.774 37.5514H225.377C225.377 36.1516 225.103 34.9248 224.555 33.8673C224.008 32.8097 223.271 31.9252 222.354 31.2137C221.436 30.5023 220.364 29.9677 219.137 29.61C217.911 29.2524 216.623 29.0755 215.27 29.0755C213.357 29.0755 211.788 29.3524 210.561 29.8985C209.335 30.4446 208.371 31.1137 207.669 31.9021C206.967 32.6905 206.489 33.5288 206.235 34.421C205.976 35.3132 205.849 36.0901 205.849 36.7515C205.849 37.8206 206.022 38.7244 206.366 39.4628C206.713 40.2011 207.164 40.828 207.727 41.3356C208.286 41.8471 208.945 42.2548 209.697 42.5586C210.449 42.8662 211.225 43.12 212.015 43.3239L218.104 44.8122C218.74 44.966 219.392 45.1621 220.055 45.4044C220.719 45.6467 221.324 45.9582 221.875 46.3389C222.423 46.7196 222.87 47.1927 223.214 47.7503C223.557 48.3079 223.73 48.9732 223.73 49.7347C223.73 50.7269 223.487 51.5729 223.001 52.2728C222.519 52.9728 221.91 53.5458 221.185 53.9919C220.456 54.438 219.67 54.761 218.829 54.9648C217.984 55.1725 217.206 55.2725 216.492 55.2725C215.239 55.2725 214.063 55.1533 212.968 54.911C211.868 54.6687 210.916 54.2688 210.114 53.7073C209.308 53.1458 208.676 52.3959 208.217 51.4537L208.221 51.446C207.762 50.5038 207.542 49.3309 207.569 47.931H204.966C204.889 49.6116 205.112 51.0499 205.637 52.2459C206.161 53.4458 206.906 54.4264 207.877 55.1879C208.849 55.9532 210.021 56.5185 211.402 56.8877C212.782 57.2569 214.275 57.4415 215.883 57.4415C215.923 57.4415 215.964 57.4414 216.004 57.4412C216.054 57.441 216.104 57.4406 216.154 57.4401C214.959 57.7121 213.966 57.9589 213.218 58.1452C204.704 60.2641 192.629 68.9537 186.039 74.189C185.813 74.1399 185.568 74.1944 185.38 74.359C166.838 90.5181 152.23 96.2678 139.974 95.9809C139.931 95.9611 139.886 95.9451 139.838 95.9333C136.032 94.9988 128.725 90.857 128.297 81.8618C128.116 78.1155 128.934 74.8786 130.289 72.2052C133.264 74.6172 146.373 75.9441 151.202 66.4596C154.469 60.0372 152.247 57.8221 152.247 57.8221C152.247 57.8221 131.727 49.1798 129.776 70.0259C127.82 73.1716 126.551 77.1725 126.777 81.931C127.112 88.9138 131.222 93.2379 135.081 95.5367C127.293 94.2964 120.461 90.6219 114.111 85.8224C112.575 84.0747 108.059 75.1805 107.068 64.9997C107.648 65.0632 108.388 65.1252 109.231 65.1252C110.662 65.1252 112.396 64.9478 114.17 64.302C120.368 67.9112 123.258 63.2207 125.304 59.5491C127.408 55.7741 126.224 55.6899 120.537 55.2855C120.407 55.2763 120.275 55.2669 120.141 55.2573C114.574 54.8592 111.151 60.8765 112.701 63.1874C110.664 63.7225 108.639 63.6553 106.947 63.4637C106.82 61.3607 106.853 59.2162 107.103 57.0802C107.743 51.603 109.732 47.051 113.042 43.4605C115.212 45.9617 132.227 47.2608 137.787 33.798C137.787 33.798 118.212 21.5975 113.202 41.1405C109.452 44.6238 107.034 49.0861 105.974 54.4914C103.758 52.6656 98.654 46.7916 98.0137 40.5318C98.0054 40.4496 97.9978 40.3677 97.9911 40.286ZM245.564 91.0531V87.6535H245.495C245.263 88.2303 244.92 88.761 244.469 89.2494C244.018 89.734 243.501 90.1455 242.923 90.4801C242.344 90.8146 241.723 91.0761 241.06 91.2607C240.401 91.4453 239.745 91.5376 239.097 91.5376C237.728 91.5376 236.541 91.2877 235.534 90.7916C234.528 90.2955 233.683 89.6109 233.012 88.7456C232.337 87.8804 231.84 86.8728 231.516 85.7306C231.192 84.5846 231.03 83.377 231.03 82.1079C231.03 80.8389 231.192 79.6275 231.516 78.4853C231.84 77.3392 232.337 76.3355 233.012 75.4664C233.683 74.6011 234.524 73.9127 235.534 73.4051C236.544 72.8974 237.732 72.6436 239.097 72.6436C239.768 72.6436 240.424 72.7244 241.06 72.8859C241.696 73.0474 242.294 73.2974 242.849 73.632C243.405 73.9666 243.898 74.3781 244.326 74.8626C244.754 75.3472 245.086 75.9163 245.317 76.5624H245.387V66.2982H247.577V91.0569H245.56L245.564 91.0531ZM262.967 73.4013C264.024 73.9089 264.911 74.5934 265.628 75.4472C266.345 76.3048 266.889 77.3008 267.263 78.4468C267.633 79.5929 267.818 80.812 267.818 82.1041C267.818 83.3963 267.633 84.6192 267.263 85.7614C266.893 86.9074 266.349 87.9073 265.628 88.761C264.907 89.6186 264.024 90.2916 262.967 90.7916C261.911 91.2915 260.7 91.5377 259.335 91.5377C257.97 91.5377 256.755 91.2877 255.702 90.7916C254.646 90.2955 253.762 89.6186 253.041 88.761C252.324 87.9073 251.776 86.9074 251.406 85.7614C251.036 84.6154 250.851 83.4001 250.851 82.1041C250.851 80.8081 251.036 79.589 251.406 78.4468C251.776 77.3008 252.32 76.3048 253.041 75.4472C253.759 74.5934 254.646 73.9089 255.702 73.4013C256.755 72.8936 257.966 72.6398 259.335 72.6398C260.704 72.6398 261.915 72.8936 262.967 73.4013Z" fill="white"/>
<path d="M96.4226 144.624C96.4226 144.197 96.5738 143.832 96.8761 143.531C97.1784 143.229 97.5405 143.079 97.9624 143.079C98.3906 143.079 98.7559 143.229 99.0582 143.531C99.3605 143.832 99.5116 144.197 99.5116 144.624C99.5116 145.044 99.3605 145.409 99.0582 145.716C98.7559 146.018 98.3906 146.169 97.9624 146.169C97.5405 146.169 97.1784 146.018 96.8761 145.716C96.5738 145.409 96.4226 145.044 96.4226 144.624Z" fill="white"/>
<path d="M99.3794 147.516V156.409H96.5738V147.516H99.3794Z" fill="white"/>
<path fill-rule="evenodd" clip-rule="evenodd" d="M52.2246 143.248L58.0814 156.409H54.5484L53.4621 153.809H47.558L46.5756 156.409H43.0898L48.4082 143.248H52.2246ZM52.4891 151.51L50.3636 146.395L48.4271 151.51H52.4891Z" fill="white"/>
<path d="M65.3434 147.996V149.984C64.2728 149.331 63.281 149.004 62.3678 149.004C61.6939 149.004 61.357 149.234 61.357 149.692C61.357 149.811 61.4263 149.931 61.5648 150.05C61.7097 150.163 62.2544 150.408 63.1991 150.785C64.1437 151.155 64.8113 151.586 65.2017 152.075C65.5922 152.565 65.7874 153.102 65.7874 153.686C65.7874 154.61 65.4725 155.322 64.8428 155.825C64.213 156.327 63.3156 156.579 62.1505 156.579C60.954 156.579 59.8897 156.362 58.9576 155.929V153.96C60.1038 154.462 61.0642 154.713 61.8388 154.713C62.7457 154.713 63.1991 154.493 63.1991 154.054C63.1991 153.884 63.1141 153.724 62.944 153.573C62.7803 153.423 62.2198 153.162 61.2626 152.791C60.3053 152.421 59.6504 152.013 59.2977 151.567C58.945 151.121 58.7687 150.625 58.7687 150.078C58.7687 149.268 59.1056 148.609 59.7795 148.1C60.4596 147.591 61.3539 147.337 62.4623 147.337C63.5266 147.337 64.4869 147.557 65.3434 147.996Z" fill="white"/>
<path d="M73.5029 149.984V147.996C72.6464 147.557 71.686 147.337 70.6217 147.337C69.5133 147.337 68.6191 147.591 67.9389 148.1C67.2651 148.609 66.9282 149.268 66.9282 150.078C66.9282 150.625 67.1045 151.121 67.4572 151.567C67.8098 152.013 68.4648 152.421 69.422 152.791C70.3793 153.162 70.9398 153.423 71.1035 153.573C71.2735 153.724 71.3586 153.884 71.3586 154.054C71.3586 154.493 70.9051 154.713 69.9983 154.713C69.2237 154.713 68.2633 154.462 67.1171 153.96V155.929C68.0491 156.362 69.1134 156.579 70.31 156.579C71.4751 156.579 72.3725 156.327 73.0022 155.825C73.632 155.322 73.9469 154.61 73.9469 153.686C73.9469 153.102 73.7517 152.565 73.3612 152.075C72.9707 151.586 72.3032 151.155 71.3586 150.785C70.4139 150.408 69.8692 150.163 69.7243 150.05C69.5858 149.931 69.5165 149.811 69.5165 149.692C69.5165 149.234 69.8534 149.004 70.5273 149.004C71.4404 149.004 72.4323 149.331 73.5029 149.984Z" fill="white"/>
<path fill-rule="evenodd" clip-rule="evenodd" d="M80.132 147.337C81.5301 147.337 82.7141 147.745 83.6839 148.562C84.66 149.378 85.1481 150.515 85.1481 151.972C85.1481 153.435 84.6537 154.569 83.665 155.373C82.6763 156.177 81.4986 156.579 80.132 156.579C78.6521 156.579 77.4398 156.151 76.4952 155.297C75.5568 154.437 75.0876 153.322 75.0876 151.953C75.0876 150.559 75.5663 149.441 76.5235 148.599C77.487 147.758 78.6899 147.337 80.132 147.337ZM80.132 154.921C81.4734 154.921 82.1441 153.912 82.1441 151.896C82.1441 149.968 81.4734 149.004 80.132 149.004C79.4897 149.004 78.9859 149.259 78.6206 149.767C78.2616 150.276 78.0822 151.005 78.0822 151.953C78.0822 153.931 78.7655 154.921 80.132 154.921Z" fill="white"/>
<path d="M94.734 155.985V153.978C93.6508 154.387 92.8132 154.591 92.2212 154.591C91.4214 154.591 90.7759 154.352 90.2847 153.875C89.7935 153.391 89.5479 152.757 89.5479 151.972C89.5479 151.193 89.7998 150.571 90.3036 150.107C90.8074 149.642 91.4781 149.409 92.3157 149.409C93.0651 149.409 93.8271 149.607 94.6017 150.003V147.921C93.5437 147.532 92.5424 147.337 91.5978 147.337C90.1304 147.337 88.9213 147.776 87.9703 148.656C87.0257 149.529 86.5534 150.64 86.5534 151.991C86.5534 153.372 87.0225 154.484 87.9609 155.326C88.8992 156.161 90.1525 156.579 91.7206 156.579C92.6337 156.579 93.6382 156.381 94.734 155.985Z" fill="white"/>
<path fill-rule="evenodd" clip-rule="evenodd" d="M110.779 155.768V154.214C110.307 154.547 109.954 154.713 109.721 154.713C109.412 154.713 109.258 154.506 109.258 154.091V150.041C109.258 148.238 107.999 147.337 105.48 147.337C104.075 147.337 102.787 147.698 101.616 148.42V150.7C102.617 149.708 103.713 149.212 104.903 149.212C105.999 149.212 106.515 149.708 106.453 150.7C103.921 151.447 102.403 152.06 101.899 152.537C101.402 153.008 101.153 153.63 101.153 154.402C101.153 154.98 101.396 155.489 101.88 155.929C102.365 156.362 102.954 156.579 103.647 156.579C104.629 156.579 105.609 156.246 106.585 155.58C106.749 156.246 107.271 156.579 108.153 156.579C108.972 156.579 109.847 156.309 110.779 155.768ZM106.453 152.104V154.252C105.949 154.698 105.432 154.921 104.903 154.921C104.651 154.921 104.437 154.829 104.261 154.647C104.085 154.459 103.996 154.236 103.996 153.978C103.996 153.576 104.17 153.247 104.516 152.989C104.869 152.725 105.514 152.43 106.453 152.104Z" fill="white"/>
<path d="M119.647 153.978V155.985C118.576 156.381 117.506 156.579 116.435 156.579L116.322 156.852C117.122 157.141 117.521 157.612 117.521 158.265C117.521 158.748 117.336 159.135 116.964 159.424C116.593 159.719 116.076 159.866 115.415 159.866C114.785 159.866 114.307 159.807 113.979 159.687V158.708C114.962 158.739 115.453 158.538 115.453 158.105C115.453 157.747 115.188 157.568 114.659 157.568L115.292 156.447C114.077 156.221 113.135 155.712 112.468 154.921C111.8 154.123 111.466 153.146 111.466 151.991C111.466 150.64 111.939 149.529 112.883 148.656C113.834 147.776 115.043 147.337 116.511 147.337C117.455 147.337 118.457 147.532 119.515 147.921V150.003C118.74 149.607 117.978 149.409 117.229 149.409C116.391 149.409 115.72 149.642 115.217 150.107C114.713 150.571 114.461 151.193 114.461 151.972C114.461 152.757 114.706 153.391 115.198 153.875C115.689 154.352 116.334 154.591 117.134 154.591C117.726 154.591 118.564 154.387 119.647 153.978Z" fill="white"/>
<path fill-rule="evenodd" clip-rule="evenodd" d="M130.536 155.768V154.214C130.064 154.547 129.711 154.713 129.478 154.713C129.17 154.713 129.016 154.506 129.016 154.091V150.041C129.016 148.238 127.756 147.337 125.237 147.337C123.833 147.337 122.545 147.698 121.373 148.42V150.7C122.375 149.708 123.47 149.212 124.661 149.212C125.757 149.212 126.273 149.708 126.21 150.7C123.678 151.447 122.161 152.06 121.657 152.537C121.159 153.008 120.91 153.63 120.91 154.402C120.91 154.98 121.153 155.489 121.638 155.929C122.123 156.362 122.712 156.579 123.404 156.579C124.387 156.579 125.366 156.246 126.342 155.58C126.506 156.246 127.029 156.579 127.91 156.579C128.729 156.579 129.604 156.309 130.536 155.768ZM126.21 152.104V154.252C125.706 154.698 125.19 154.921 124.661 154.921C124.409 154.921 124.195 154.829 124.018 154.647C123.842 154.459 123.754 154.236 123.754 153.978C123.754 153.576 123.927 153.247 124.273 152.989C124.626 152.725 125.272 152.43 126.21 152.104Z" fill="white"/>
<path d="M129.167 143.465H127.854C127.74 144.156 127.457 144.501 127.003 144.501C126.745 144.501 126.273 144.328 125.586 143.983C124.906 143.638 124.358 143.465 123.943 143.465C123.3 143.465 122.775 143.713 122.365 144.209C121.956 144.705 121.717 145.415 121.647 146.338H122.923C123.011 145.666 123.3 145.33 123.792 145.33C124.037 145.33 124.519 145.506 125.237 145.858C125.955 146.203 126.512 146.376 126.909 146.376C128.282 146.376 129.034 145.406 129.167 143.465Z" fill="white"/>
<path fill-rule="evenodd" clip-rule="evenodd" d="M136.211 147.337C137.61 147.337 138.794 147.745 139.763 148.562C140.739 149.378 141.228 150.515 141.228 151.972C141.228 153.435 140.733 154.569 139.744 155.373C138.756 156.177 137.578 156.579 136.211 156.579C134.732 156.579 133.519 156.151 132.575 155.297C131.636 154.437 131.167 153.322 131.167 151.953C131.167 150.559 131.646 149.441 132.603 148.599C133.566 147.758 134.769 147.337 136.211 147.337ZM136.211 154.921C137.553 154.921 138.224 153.912 138.224 151.896C138.224 149.968 137.553 149.004 136.211 149.004C135.569 149.004 135.065 149.259 134.7 149.767C134.341 150.276 134.162 151.005 134.162 151.953C134.162 153.931 134.845 154.921 136.211 154.921Z" fill="white"/>
<path fill-rule="evenodd" clip-rule="evenodd" d="M160.248 156.409L154.391 143.248H150.575L145.257 156.409H148.742L149.725 153.809H155.629L156.715 156.409H160.248ZM152.53 146.395L154.656 151.51H150.594L152.53 146.395Z" fill="white"/>
<path fill-rule="evenodd" clip-rule="evenodd" d="M170.467 147.516V149.391H169.192C169.488 149.893 169.636 150.386 169.636 150.87C169.636 151.56 169.377 152.198 168.861 152.782C168.345 153.366 167.58 153.715 166.566 153.828C165.558 153.934 164.985 154.038 164.846 154.139C164.714 154.233 164.648 154.358 164.648 154.515C164.648 154.672 164.736 154.801 164.912 154.902C165.089 154.996 165.782 155.096 166.991 155.203C168.206 155.304 169.05 155.621 169.522 156.155C170.001 156.682 170.24 157.251 170.24 157.86C170.24 158.833 169.834 159.574 169.022 160.083C168.216 160.592 167.047 160.846 165.517 160.846C163.955 160.846 162.771 160.611 161.965 160.14C161.159 159.669 160.756 159.044 160.756 158.265C160.756 157.185 161.55 156.431 163.137 156.004C162.419 155.79 162.06 155.404 162.06 154.845C162.06 154.192 162.601 153.743 163.684 153.498C162.96 153.372 162.362 153.058 161.89 152.556C161.417 152.053 161.181 151.454 161.181 150.757C161.181 149.902 161.521 149.149 162.201 148.496C162.881 147.842 163.87 147.516 165.168 147.516H170.467ZM165.423 149.174C164.963 149.174 164.576 149.331 164.261 149.645C163.952 149.959 163.798 150.342 163.798 150.794C163.798 151.228 163.958 151.604 164.28 151.925C164.601 152.239 164.982 152.396 165.423 152.396C165.863 152.396 166.241 152.229 166.556 151.896C166.871 151.564 167.028 151.165 167.028 150.7C167.028 150.279 166.874 149.921 166.566 149.626C166.263 149.325 165.882 149.174 165.423 149.174ZM165.649 159.188C166.248 159.188 166.732 159.078 167.104 158.858C167.476 158.639 167.661 158.375 167.661 158.067C167.661 157.414 166.934 157.087 165.479 157.087C164.818 157.087 164.298 157.181 163.921 157.37C163.543 157.565 163.354 157.822 163.354 158.142C163.354 158.84 164.119 159.188 165.649 159.188Z" fill="white"/>
<path d="M174.65 150.059V147.516H171.844V156.409H174.65V152.565C174.65 152.433 174.87 151.969 175.311 151.171C175.758 150.367 176.306 149.965 176.954 149.965C177.37 149.965 177.924 150.185 178.617 150.625L179.392 148.147C178.667 147.607 178.047 147.337 177.531 147.337C176.447 147.337 175.5 148.244 174.687 150.059H174.65Z" fill="white"/>
<path fill-rule="evenodd" clip-rule="evenodd" d="M184.453 147.337C185.851 147.337 187.035 147.745 188.005 148.562C188.981 149.378 189.469 150.515 189.469 151.972C189.469 153.435 188.974 154.569 187.986 155.373C186.997 156.177 185.819 156.579 184.453 156.579C182.973 156.579 181.76 156.151 180.816 155.297C179.877 154.437 179.408 153.322 179.408 151.953C179.408 150.559 179.887 149.441 180.844 148.599C181.808 147.758 183.01 147.337 184.453 147.337ZM184.453 154.921C185.794 154.921 186.465 153.912 186.465 151.896C186.465 149.968 185.794 149.004 184.453 149.004C183.81 149.004 183.306 149.259 182.941 149.767C182.582 150.276 182.403 151.005 182.403 151.953C182.403 153.931 183.086 154.921 184.453 154.921Z" fill="white"/>
<path fill-rule="evenodd" clip-rule="evenodd" d="M199.961 155.41V153.649C198.809 154.497 197.707 154.921 196.655 154.921C195.786 154.921 195.093 154.704 194.577 154.27C194.061 153.837 193.774 153.218 193.717 152.415H200.122C200.179 150.87 199.766 149.639 198.885 148.722C198.009 147.798 196.885 147.337 195.512 147.337C194.146 147.337 193.021 147.773 192.14 148.646C191.258 149.519 190.817 150.634 190.817 151.991C190.817 153.372 191.286 154.484 192.225 155.326C193.163 156.161 194.416 156.579 195.985 156.579C197.565 156.579 198.891 156.189 199.961 155.41ZM197.647 150.945H193.774C193.913 149.651 194.558 149.004 195.711 149.004C196.85 149.004 197.496 149.651 197.647 150.945Z" fill="white"/>
<path d="M210.842 147.516L207.318 151.859L211.106 156.409H207.856L205.75 153.649L203.719 156.409H200.564L204.201 151.859L200.564 147.516H203.832L205.75 150.078L207.573 147.516H210.842Z" fill="white"/>
<path d="M218.633 149.428V147.516H215.383V144.718H215.033L211.302 148.882V149.428H212.577V153.244C212.577 154.336 212.88 155.165 213.484 155.731C214.089 156.296 214.939 156.579 216.035 156.579C216.872 156.579 217.738 156.393 218.633 156.023V153.997C217.959 154.343 217.332 154.515 216.753 154.515C216.324 154.515 215.988 154.39 215.742 154.139C215.503 153.881 215.383 153.533 215.383 153.093V149.428H218.633Z" fill="white"/>
<path d="M222.872 147.516V150.059H222.91C223.722 148.244 224.67 147.337 225.753 147.337C226.269 147.337 226.89 147.607 227.614 148.147L226.839 150.625C226.147 150.185 225.592 149.965 225.177 149.965C224.528 149.965 223.98 150.367 223.533 151.171C223.092 151.969 222.872 152.433 222.872 152.565V156.409H220.066V147.516H222.872Z" fill="white"/>
<path fill-rule="evenodd" clip-rule="evenodd" d="M237.672 155.768V154.214C237.2 154.547 236.847 154.713 236.614 154.713C236.305 154.713 236.151 154.506 236.151 154.091V150.041C236.151 148.238 234.892 147.337 232.373 147.337C230.968 147.337 229.68 147.698 228.509 148.42V150.7C229.51 149.708 230.606 149.212 231.796 149.212C232.892 149.212 233.409 149.708 233.346 150.7C230.814 151.447 229.296 152.06 228.792 152.537C228.295 153.008 228.046 153.63 228.046 154.402C228.046 154.98 228.289 155.489 228.774 155.929C229.258 156.362 229.847 156.579 230.54 156.579C231.522 156.579 232.502 156.246 233.478 155.58C233.642 156.246 234.164 156.579 235.046 156.579C235.865 156.579 236.74 156.309 237.672 155.768ZM233.346 152.104V154.252C232.842 154.698 232.325 154.921 231.796 154.921C231.544 154.921 231.33 154.829 231.154 154.647C230.978 154.459 230.89 154.236 230.89 153.978C230.89 153.576 231.063 153.247 231.409 152.989C231.762 152.725 232.407 152.43 233.346 152.104Z" fill="white"/>
<path d="M245.151 147.516V149.428H241.902V153.093C241.902 153.533 242.021 153.881 242.261 154.139C242.506 154.39 242.843 154.515 243.272 154.515C243.851 154.515 244.478 154.343 245.151 153.997V156.023C244.257 156.393 243.391 156.579 242.554 156.579C241.458 156.579 240.608 156.296 240.003 155.731C239.399 155.165 239.096 154.336 239.096 153.244V149.428H237.821V148.882L241.552 144.718H241.902V147.516H245.151Z" fill="white"/>
<path d="M246.868 143.531C246.566 143.832 246.415 144.197 246.415 144.624C246.415 145.044 246.566 145.409 246.868 145.716C247.171 146.018 247.533 146.169 247.955 146.169C248.383 146.169 248.748 146.018 249.051 145.716C249.353 145.409 249.504 145.044 249.504 144.624C249.504 144.197 249.353 143.832 249.051 143.531C248.748 143.229 248.383 143.079 247.955 143.079C247.533 143.079 247.171 143.229 246.868 143.531Z" fill="white"/>
<path d="M249.372 156.409V147.516H246.566V156.409H249.372Z" fill="white"/>
<path d="M254.659 156.579L250.541 147.516H253.545L255.434 152.415L257.352 147.516H260.327L256.228 156.579H254.659Z" fill="white"/>
<path d="M261.789 143.531C261.487 143.832 261.336 144.197 261.336 144.624C261.336 145.044 261.487 145.409 261.789 145.716C262.092 146.018 262.454 146.169 262.876 146.169C263.304 146.169 263.669 146.018 263.971 145.716C264.274 145.409 264.425 145.044 264.425 144.624C264.425 144.197 264.274 143.832 263.971 143.531C263.669 143.229 263.304 143.079 262.876 143.079C262.454 143.079 262.092 143.229 261.789 143.531Z" fill="white"/>
<path d="M264.293 156.409V147.516H261.487V156.409H264.293Z" fill="white"/>
<path d="M272.717 147.996V149.984C271.646 149.331 270.654 149.004 269.741 149.004C269.067 149.004 268.73 149.234 268.73 149.692C268.73 149.811 268.799 149.931 268.938 150.05C269.083 150.163 269.628 150.408 270.572 150.785C271.517 151.155 272.184 151.586 272.575 152.075C272.965 152.565 273.161 153.102 273.161 153.686C273.161 154.61 272.846 155.322 272.216 155.825C271.586 156.327 270.689 156.579 269.524 156.579C268.327 156.579 267.263 156.362 266.331 155.929V153.96C267.477 154.462 268.437 154.713 269.212 154.713C270.119 154.713 270.572 154.493 270.572 154.054C270.572 153.884 270.487 153.724 270.317 153.573C270.153 153.423 269.593 153.162 268.636 152.791C267.678 152.421 267.023 152.013 266.671 151.567C266.318 151.121 266.142 150.625 266.142 150.078C266.142 149.268 266.479 148.609 267.153 148.1C267.833 147.591 268.727 147.337 269.835 147.337C270.9 147.337 271.86 147.557 272.717 147.996Z" fill="white"/>
<path d="M281.15 149.428V147.516H277.9V144.718H277.551L273.82 148.882V149.428H275.095V153.244C275.095 154.336 275.397 155.165 276.002 155.731C276.606 156.296 277.456 156.579 278.552 156.579C279.39 156.579 280.256 156.393 281.15 156.023V153.997C280.476 154.343 279.85 154.515 279.27 154.515C278.842 154.515 278.505 154.39 278.259 154.139C278.02 153.881 277.9 153.533 277.9 153.093V149.428H281.15Z" fill="white"/>
<path fill-rule="evenodd" clip-rule="evenodd" d="M291.614 154.214V155.768C290.682 156.309 289.807 156.579 288.988 156.579C288.107 156.579 287.584 156.246 287.42 155.58C286.444 156.246 285.465 156.579 284.482 156.579C283.79 156.579 283.201 156.362 282.716 155.929C282.231 155.489 281.988 154.98 281.988 154.402C281.988 153.63 282.237 153.008 282.735 152.537C283.239 152.06 284.756 151.447 287.288 150.7C287.351 149.708 286.834 149.212 285.739 149.212C284.548 149.212 283.453 149.708 282.451 150.7V148.42C283.623 147.698 284.911 147.337 286.315 147.337C288.834 147.337 290.094 148.238 290.094 150.041V154.091C290.094 154.506 290.248 154.713 290.556 154.713C290.789 154.713 291.142 154.547 291.614 154.214ZM287.288 154.252V152.104C286.35 152.43 285.704 152.725 285.351 152.989C285.005 153.247 284.832 153.576 284.832 153.978C284.832 154.236 284.92 154.459 285.096 154.647C285.273 154.829 285.487 154.921 285.739 154.921C286.268 154.921 286.784 154.698 287.288 154.252Z" fill="white"/>
<path fill-rule="evenodd" clip-rule="evenodd" d="M48.1205 174.872V164.962H46.0078V168.466C45.434 168.183 44.8507 168.041 44.2579 168.041C43.3047 168.041 42.5223 168.365 41.9105 169.013C41.3035 169.661 41 170.495 41 171.517C41 172.515 41.2988 173.345 41.8963 174.007C42.4986 174.669 43.2478 175 44.1441 175C44.846 175 45.4672 174.778 46.0078 174.333V174.872H48.1205ZM46.0078 169.843V173.042C45.6047 173.411 45.1874 173.595 44.7559 173.595C44.2674 173.595 43.8762 173.411 43.5822 173.042C43.2881 172.668 43.1411 172.174 43.1411 171.559C43.1411 170.893 43.2881 170.375 43.5822 170.006C43.8809 169.637 44.2959 169.452 44.827 169.452C45.2301 169.452 45.6237 169.583 46.0078 169.843Z" fill="white"/>
<path fill-rule="evenodd" clip-rule="evenodd" d="M56.6406 173.219V174.39C55.9388 174.797 55.2796 175 54.6631 175C53.9992 175 53.6056 174.749 53.4823 174.248C52.7472 174.749 52.0098 175 51.27 175C50.7484 175 50.305 174.837 49.9398 174.511C49.5747 174.179 49.3921 173.796 49.3921 173.361C49.3921 172.78 49.5794 172.311 49.954 171.957C50.3334 171.597 51.4763 171.136 53.3827 170.573C53.4301 169.826 53.0412 169.452 52.2161 169.452C51.3198 169.452 50.4947 169.826 49.7406 170.573V168.857C50.6227 168.313 51.5925 168.041 52.65 168.041C54.5469 168.041 55.4954 168.719 55.4954 170.077V173.127C55.4954 173.439 55.6115 173.595 55.8439 173.595C56.0194 173.595 56.2849 173.47 56.6406 173.219ZM53.3827 173.248V171.63C52.6761 171.876 52.19 172.099 51.9244 172.297C51.6636 172.491 51.5332 172.739 51.5332 173.042C51.5332 173.236 51.5996 173.404 51.7324 173.546C51.8652 173.683 52.0264 173.751 52.2161 173.751C52.6144 173.751 53.0033 173.584 53.3827 173.248Z" fill="white"/>
<path d="M62.0664 170.034V168.537C61.4215 168.206 60.6983 168.041 59.8968 168.041C59.0622 168.041 58.3888 168.232 57.8766 168.615C57.3692 168.998 57.1155 169.495 57.1155 170.105C57.1155 170.517 57.2483 170.89 57.5139 171.226C57.7794 171.562 58.2726 171.869 58.9934 172.148C59.7143 172.427 60.1363 172.624 60.2596 172.737C60.3877 172.851 60.4517 172.971 60.4517 173.099C60.4517 173.43 60.1102 173.595 59.4274 173.595C58.8441 173.595 58.1209 173.406 57.2578 173.028V174.511C57.9596 174.837 58.7611 175 59.6621 175C60.5394 175 61.2152 174.811 61.6894 174.432C62.1636 174.054 62.4007 173.517 62.4007 172.822C62.4007 172.382 62.2537 171.978 61.9597 171.609C61.6657 171.24 61.163 170.916 60.4517 170.637C59.7403 170.353 59.3301 170.169 59.2211 170.084C59.1167 169.994 59.0646 169.904 59.0646 169.814C59.0646 169.469 59.3183 169.296 59.8257 169.296C60.5133 169.296 61.2602 169.542 62.0664 170.034Z" fill="white"/>
<path d="M77.0722 171.85V174.014C75.8298 174.671 74.528 175 73.167 175C71.4029 175 69.9968 174.515 68.9488 173.546C67.9055 172.571 67.3838 171.373 67.3838 169.949C67.3838 168.526 67.9339 167.317 69.0341 166.324C70.1391 165.331 71.5807 164.834 73.359 164.834C74.777 164.834 75.9768 165.125 76.9584 165.707V167.913C75.7539 167.237 74.6134 166.899 73.5369 166.899C72.4794 166.899 71.6139 167.182 70.9405 167.75C70.2718 168.313 69.9375 169.032 69.9375 169.907C69.9375 170.786 70.2671 171.512 70.9263 172.084C71.5902 172.657 72.4391 172.943 73.4729 172.943C73.985 172.943 74.4782 172.877 74.9524 172.744C75.4267 172.607 76.1333 172.309 77.0722 171.85Z" fill="white"/>
<path fill-rule="evenodd" clip-rule="evenodd" d="M84.881 168.963C84.1507 168.348 83.2592 168.041 82.2064 168.041C81.1204 168.041 80.2146 168.358 79.4891 168.991C78.7682 169.625 78.4078 170.467 78.4078 171.517C78.4078 172.548 78.7611 173.387 79.4677 174.035C80.1791 174.678 81.092 175 82.2064 175C83.2355 175 84.1223 174.697 84.8668 174.092C85.6113 173.487 85.9836 172.633 85.9836 171.531C85.9836 170.434 85.6161 169.578 84.881 168.963ZM83.7215 171.474C83.7215 172.992 83.2165 173.751 82.2064 173.751C81.1773 173.751 80.6628 173.007 80.6628 171.517C80.6628 170.803 80.7979 170.254 81.0682 169.871C81.3433 169.488 81.7227 169.296 82.2064 169.296C83.2165 169.296 83.7215 170.022 83.7215 171.474Z" fill="white"/>
<path d="M89.4888 168.176V169.034C90.2049 168.372 90.9826 168.041 91.822 168.041C92.9743 168.041 93.7805 168.516 94.2405 169.467C95.0514 168.516 95.9335 168.041 96.8867 168.041C97.6597 168.041 98.2904 168.275 98.7789 168.743C99.2673 169.211 99.5115 169.821 99.5115 170.573V174.872H97.3989V170.949C97.3989 170.476 97.2898 170.11 97.0716 169.85C96.8535 169.585 96.55 169.452 96.1611 169.452C95.5446 169.452 94.9898 169.831 94.4966 170.588V174.872H92.391V170.907C92.391 170.439 92.2725 170.079 92.0354 169.828C91.803 169.578 91.4924 169.452 91.1035 169.452C90.5487 169.452 90.0104 169.762 89.4888 170.382V174.872H87.3761V168.176H89.4888Z" fill="white"/>
<path d="M105.706 173.915V174.872H107.818V168.176H105.691V172.446C105.691 172.593 105.549 172.822 105.265 173.134C104.985 173.442 104.646 173.595 104.247 173.595C103.541 173.595 103.187 173.17 103.187 172.318V168.176H101.075V172.46C101.075 173.255 101.302 173.877 101.758 174.326C102.213 174.775 102.806 175 103.536 175C104.361 175 105.084 174.638 105.706 173.915Z" fill="white"/>
<path d="M111.608 168.176V169.133C112.229 168.405 112.957 168.041 113.792 168.041C114.489 168.041 115.07 168.263 115.535 168.708C116.004 169.152 116.239 169.788 116.239 170.616V174.872H114.126V170.793C114.126 169.899 113.778 169.452 113.08 169.452C112.583 169.452 112.092 169.821 111.608 170.559V174.872H109.495V168.176H111.608Z" fill="white"/>
<path d="M118.186 165.175C117.959 165.402 117.845 165.676 117.845 165.998C117.845 166.315 117.959 166.589 118.186 166.821C118.414 167.048 118.686 167.161 119.004 167.161C119.327 167.161 119.602 167.048 119.829 166.821C120.057 166.589 120.171 166.315 120.171 165.998C120.171 165.676 120.057 165.402 119.829 165.175C119.602 164.948 119.327 164.834 119.004 164.834C118.686 164.834 118.414 164.948 118.186 165.175Z" fill="white"/>
<path d="M120.071 174.872V168.176H117.959V174.872H120.071Z" fill="white"/>
<path fill-rule="evenodd" clip-rule="evenodd" d="M128.556 164.962V174.872H126.443V174.333C125.902 174.778 125.281 175 124.579 175C123.683 175 122.934 174.669 122.332 174.007C121.734 173.345 121.435 172.515 121.435 171.517C121.435 170.495 121.739 169.661 122.346 169.013C122.958 168.365 123.74 168.041 124.693 168.041C125.286 168.041 125.869 168.183 126.443 168.466V164.962H128.556ZM126.443 173.042V169.843C126.059 169.583 125.665 169.452 125.262 169.452C124.731 169.452 124.316 169.637 124.017 170.006C123.723 170.375 123.576 170.893 123.576 171.559C123.576 172.174 123.723 172.668 124.017 173.042C124.311 173.411 124.703 173.595 125.191 173.595C125.623 173.595 126.04 173.411 126.443 173.042Z" fill="white"/>
<path fill-rule="evenodd" clip-rule="evenodd" d="M137.076 174.39V173.219C136.72 173.47 136.455 173.595 136.279 173.595C136.047 173.595 135.931 173.439 135.931 173.127V170.077C135.931 168.719 134.982 168.041 133.085 168.041C132.028 168.041 131.058 168.313 130.176 168.857V170.573C130.93 169.826 131.755 169.452 132.651 169.452C133.476 169.452 133.865 169.826 133.818 170.573C131.912 171.136 130.769 171.597 130.389 171.957C130.015 172.311 129.827 172.78 129.827 173.361C129.827 173.796 130.01 174.179 130.375 174.511C130.74 174.837 131.184 175 131.705 175C132.445 175 133.182 174.749 133.918 174.248C134.041 174.749 134.434 175 135.098 175C135.715 175 136.374 174.797 137.076 174.39ZM133.818 171.63V173.248C133.439 173.584 133.05 173.751 132.651 173.751C132.462 173.751 132.3 173.683 132.168 173.546C132.035 173.404 131.968 173.236 131.968 173.042C131.968 172.739 132.099 172.491 132.36 172.297C132.625 172.099 133.111 171.876 133.818 171.63Z" fill="white"/>
<path fill-rule="evenodd" clip-rule="evenodd" d="M144.643 164.962V174.872H142.53V174.333C141.989 174.778 141.368 175 140.666 175C139.77 175 139.021 174.669 138.419 174.007C137.821 173.345 137.522 172.515 137.522 171.517C137.522 170.495 137.826 169.661 138.433 169.013C139.045 168.365 139.827 168.041 140.78 168.041C141.373 168.041 141.956 168.183 142.53 168.466V164.962H144.643ZM142.53 173.042V169.843C142.146 169.583 141.752 169.452 141.349 169.452C140.818 169.452 140.403 169.637 140.104 170.006C139.81 170.375 139.663 170.893 139.663 171.559C139.663 172.174 139.81 172.668 140.104 173.042C140.398 173.411 140.79 173.595 141.278 173.595C141.71 173.595 142.127 173.411 142.53 173.042Z" fill="white"/>
<path fill-rule="evenodd" clip-rule="evenodd" d="M152.857 174.12V172.794C151.989 173.432 151.159 173.751 150.367 173.751C149.713 173.751 149.191 173.588 148.802 173.262C148.414 172.936 148.198 172.47 148.155 171.864H152.978C153.021 170.701 152.71 169.774 152.046 169.084C151.387 168.388 150.54 168.041 149.507 168.041C148.478 168.041 147.631 168.369 146.967 169.027C146.303 169.684 145.971 170.524 145.971 171.545C145.971 172.586 146.325 173.423 147.031 174.057C147.738 174.685 148.681 175 149.862 175C151.053 175 152.051 174.707 152.857 174.12ZM149.656 169.296C150.514 169.296 151 169.784 151.114 170.758H148.198C148.302 169.784 148.788 169.296 149.656 169.296Z" fill="white"/>
<path d="M158.887 168.537V170.034C158.081 169.542 157.334 169.296 156.647 169.296C156.139 169.296 155.886 169.469 155.886 169.814C155.886 169.904 155.938 169.994 156.042 170.084C156.151 170.169 156.561 170.353 157.273 170.637C157.984 170.916 158.487 171.24 158.781 171.609C159.075 171.978 159.222 172.382 159.222 172.822C159.222 173.517 158.985 174.054 158.51 174.432C158.036 174.811 157.36 175 156.483 175C155.582 175 154.781 174.837 154.079 174.511V173.028C154.942 173.406 155.665 173.595 156.248 173.595C156.931 173.595 157.273 173.43 157.273 173.099C157.273 172.971 157.209 172.851 157.081 172.737C156.957 172.624 156.535 172.427 155.814 172.148C155.094 171.869 154.6 171.562 154.335 171.226C154.069 170.89 153.937 170.517 153.937 170.105C153.937 169.495 154.19 168.998 154.698 168.615C155.21 168.232 155.883 168.041 156.718 168.041C157.519 168.041 158.243 168.206 158.887 168.537Z" fill="white"/>
<path fill-rule="evenodd" clip-rule="evenodd" d="M171.155 174.872V164.962H169.042V168.466C168.468 168.183 167.885 168.041 167.292 168.041C166.339 168.041 165.556 168.365 164.945 169.013C164.338 169.661 164.034 170.495 164.034 171.517C164.034 172.515 164.333 173.345 164.93 174.007C165.533 174.669 166.282 175 167.178 175C167.88 175 168.501 174.778 169.042 174.333V174.872H171.155ZM169.042 169.843V173.042C168.639 173.411 168.222 173.595 167.79 173.595C167.302 173.595 166.91 173.411 166.616 173.042C166.322 172.668 166.175 172.174 166.175 171.559C166.175 170.893 166.322 170.375 166.616 170.006C166.915 169.637 167.33 169.452 167.861 169.452C168.264 169.452 168.658 169.583 169.042 169.843Z" fill="white"/>
<path fill-rule="evenodd" clip-rule="evenodd" d="M179.675 173.219V174.39C178.973 174.797 178.314 175 177.697 175C177.033 175 176.64 174.749 176.516 174.248C175.781 174.749 175.044 175 174.304 175C173.783 175 173.339 174.837 172.974 174.511C172.609 174.179 172.426 173.796 172.426 173.361C172.426 172.78 172.614 172.311 172.988 171.957C173.368 171.597 174.51 171.136 176.417 170.573C176.464 169.826 176.075 169.452 175.25 169.452C174.354 169.452 173.529 169.826 172.775 170.573V168.857C173.657 168.313 174.627 168.041 175.684 168.041C177.581 168.041 178.53 168.719 178.53 170.077V173.127C178.53 173.439 178.646 173.595 178.878 173.595C179.054 173.595 179.319 173.47 179.675 173.219ZM176.417 173.248V171.63C175.71 171.876 175.224 172.099 174.959 172.297C174.698 172.491 174.567 172.739 174.567 173.042C174.567 173.236 174.634 173.404 174.767 173.546C174.899 173.683 175.061 173.751 175.25 173.751C175.649 173.751 176.037 173.584 176.417 173.248Z" fill="white"/>
<path fill-rule="evenodd" clip-rule="evenodd" d="M189.139 164.962H184.701V174.872H187.176V170.85H187.887C188.215 170.85 188.52 170.98 188.805 171.24C189.094 171.5 189.438 172.089 189.836 173.007C190.239 173.924 190.522 174.546 190.683 174.872H193.407C192.99 173.993 192.556 173.056 192.106 172.063C191.66 171.07 191.186 170.462 190.683 170.24C191.821 169.715 192.39 168.906 192.39 167.814C192.39 167.024 192.089 166.352 191.487 165.799C190.884 165.241 190.102 164.962 189.139 164.962ZM187.176 169.034V166.778H188.428C189.372 166.778 189.843 167.152 189.843 167.899C189.843 168.263 189.72 168.544 189.474 168.743C189.232 168.937 188.902 169.034 188.485 169.034H187.176Z" fill="white"/>
<path fill-rule="evenodd" clip-rule="evenodd" d="M194.473 164.962H198.854C200.547 164.962 201.885 165.425 202.866 166.352C203.853 167.275 204.346 168.469 204.346 169.935C204.346 171.472 203.846 172.68 202.845 173.56C201.849 174.435 200.426 174.872 198.577 174.872H194.473V164.962ZM196.948 166.778V173.056H198.563C199.611 173.056 200.412 172.77 200.967 172.198C201.522 171.621 201.799 170.862 201.799 169.921C201.799 168.946 201.517 168.18 200.953 167.622C200.393 167.059 199.587 166.778 198.534 166.778H196.948Z" fill="white"/>
<path d="M212.838 167.537V165.6C211.657 165.09 210.535 164.834 209.473 164.834C208.321 164.834 207.401 165.097 206.713 165.622C206.025 166.142 205.682 166.828 205.682 167.679C205.682 168.336 205.838 168.876 206.151 169.296C206.469 169.717 206.843 170.041 207.275 170.268C207.711 170.495 208.299 170.741 209.039 171.006C209.784 171.271 210.253 171.496 210.448 171.68C210.642 171.864 210.739 172.061 210.739 172.269C210.739 172.879 210.253 173.184 209.281 173.184C208.707 173.184 208.164 173.082 207.652 172.879C207.14 172.676 206.552 172.352 205.888 171.907V174.042C207.045 174.681 208.24 175 209.473 175C210.616 175 211.536 174.728 212.233 174.184C212.935 173.64 213.286 172.91 213.286 171.992C213.286 171.349 213.125 170.817 212.802 170.396C212.484 169.975 212.105 169.649 211.664 169.417C211.223 169.185 210.635 168.935 209.9 168.665C209.165 168.395 208.702 168.176 208.513 168.005C208.323 167.835 208.228 167.655 208.228 167.466C208.228 167.22 208.359 167.024 208.619 166.877C208.885 166.726 209.241 166.65 209.686 166.65C210.469 166.65 211.519 166.946 212.838 167.537Z" fill="white"/>
<path fill-rule="evenodd" clip-rule="evenodd" d="M225.332 164.962V174.872H223.22V174.333C222.679 174.778 222.058 175 221.356 175C220.46 175 219.71 174.669 219.108 174.007C218.511 173.345 218.212 172.515 218.212 171.517C218.212 170.495 218.515 169.661 219.122 169.013C219.734 168.365 220.517 168.041 221.47 168.041C222.063 168.041 222.646 168.183 223.22 168.466V164.962H225.332ZM223.22 173.042V169.843C222.836 169.583 222.442 169.452 222.039 169.452C221.508 169.452 221.093 169.637 220.794 170.006C220.5 170.375 220.353 170.893 220.353 171.559C220.353 172.174 220.5 172.668 220.794 173.042C221.088 173.411 221.479 173.595 221.968 173.595C222.399 173.595 222.817 173.411 223.22 173.042Z" fill="white"/>
<path fill-rule="evenodd" clip-rule="evenodd" d="M233.134 168.963C232.404 168.348 231.512 168.041 230.459 168.041C229.373 168.041 228.468 168.358 227.742 168.991C227.021 169.625 226.661 170.467 226.661 171.517C226.661 172.548 227.014 173.387 227.721 174.035C228.432 174.678 229.345 175 230.459 175C231.489 175 232.375 174.697 233.12 174.092C233.864 173.487 234.237 172.633 234.237 171.531C234.237 170.434 233.869 169.578 233.134 168.963ZM231.975 171.474C231.975 172.992 231.47 173.751 230.459 173.751C229.43 173.751 228.916 173.007 228.916 171.517C228.916 170.803 229.051 170.254 229.321 169.871C229.596 169.488 229.976 169.296 230.459 169.296C231.47 169.296 231.975 170.022 231.975 171.474Z" fill="white"/>
<path d="M247.172 164.962H249.648V170.588C249.648 172.035 249.219 173.132 248.36 173.879C247.502 174.626 246.276 175 244.683 175C243.108 175 241.885 174.622 241.012 173.865C240.144 173.108 239.711 172.021 239.711 170.602V164.962H242.193V170.658C242.193 171.349 242.418 171.902 242.869 172.318C243.324 172.735 243.919 172.943 244.654 172.943C245.418 172.943 246.027 172.73 246.482 172.304C246.942 171.879 247.172 171.273 247.172 170.488V164.962Z" fill="white"/>
<path fill-rule="evenodd" clip-rule="evenodd" d="M258.346 174.39V173.219C257.99 173.47 257.725 173.595 257.549 173.595C257.317 173.595 257.201 173.439 257.201 173.127V170.077C257.201 168.719 256.252 168.041 254.355 168.041C253.298 168.041 252.328 168.313 251.446 168.857V170.573C252.2 169.826 253.025 169.452 253.921 169.452C254.747 169.452 255.135 169.826 255.088 170.573C253.182 171.136 252.039 171.597 251.659 171.957C251.285 172.311 251.097 172.78 251.097 173.361C251.097 173.796 251.28 174.179 251.645 174.511C252.01 174.837 252.454 175 252.975 175C253.715 175 254.453 174.749 255.188 174.248C255.311 174.749 255.704 175 256.368 175C256.985 175 257.644 174.797 258.346 174.39ZM255.088 171.63V173.248C254.709 173.584 254.32 173.751 253.921 173.751C253.732 173.751 253.57 173.683 253.438 173.546C253.305 173.404 253.238 173.236 253.238 173.042C253.238 172.739 253.369 172.491 253.63 172.297C253.895 172.099 254.381 171.876 255.088 171.63Z" fill="white"/>
<path d="M263.978 168.176V169.616H261.531V172.375C261.531 172.706 261.621 172.969 261.801 173.163C261.986 173.352 262.24 173.446 262.562 173.446C262.999 173.446 263.471 173.316 263.978 173.056V174.581C263.305 174.86 262.653 175 262.022 175C261.197 175 260.556 174.787 260.101 174.362C259.646 173.936 259.418 173.312 259.418 172.489V169.616H258.458V169.204L261.268 166.069H261.531V168.176H263.978Z" fill="white"/>
<path d="M269.631 173.915V174.872H271.744V168.176H269.617V172.446C269.617 172.593 269.475 172.822 269.19 173.134C268.911 173.442 268.572 173.595 268.173 173.595C267.467 173.595 267.113 173.17 267.113 172.318V168.176H265.001V172.46C265.001 173.255 265.228 173.877 265.684 174.326C266.139 174.775 266.732 175 267.462 175C268.287 175 269.01 174.638 269.631 173.915Z" fill="white"/>
<path d="M275.576 168.176V169.034C276.293 168.372 277.07 168.041 277.91 168.041C279.062 168.041 279.868 168.516 280.328 169.467C281.139 168.516 282.021 168.041 282.974 168.041C283.747 168.041 284.378 168.275 284.867 168.743C285.355 169.211 285.599 169.821 285.599 170.573V174.872H283.487V170.949C283.487 170.476 283.377 170.11 283.159 169.85C282.941 169.585 282.638 169.452 282.249 169.452C281.632 169.452 281.078 169.831 280.584 170.588V174.872H278.479V170.907C278.479 170.439 278.36 170.079 278.123 169.828C277.891 169.578 277.58 169.452 277.191 169.452C276.636 169.452 276.098 169.762 275.576 170.382V174.872H273.464V168.176H275.576Z" fill="white"/>
<path fill-rule="evenodd" clip-rule="evenodd" d="M294.162 174.39V173.219C293.806 173.47 293.541 173.595 293.365 173.595C293.133 173.595 293.017 173.439 293.017 173.127V170.077C293.017 168.719 292.068 168.041 290.171 168.041C289.114 168.041 288.144 168.313 287.262 168.857V170.573C288.016 169.826 288.841 169.452 289.738 169.452C290.563 169.452 290.952 169.826 290.904 170.573C288.998 171.136 287.855 171.597 287.475 171.957C287.101 172.311 286.914 172.78 286.914 173.361C286.914 173.796 287.096 174.179 287.461 174.511C287.826 174.837 288.27 175 288.791 175C289.531 175 290.269 174.749 291.004 174.248C291.127 174.749 291.521 175 292.185 175C292.801 175 293.46 174.797 294.162 174.39ZM290.904 171.63V173.248C290.525 173.584 290.136 173.751 289.738 173.751C289.548 173.751 289.387 173.683 289.254 173.546C289.121 173.404 289.055 173.236 289.055 173.042C289.055 172.739 289.185 172.491 289.446 172.297C289.711 172.099 290.198 171.876 290.904 171.63Z" fill="white"/>
<path d="M293.131 165.125H292.142C292.056 165.645 291.843 165.905 291.502 165.905C291.307 165.905 290.952 165.775 290.435 165.515C289.922 165.255 289.51 165.125 289.197 165.125C288.713 165.125 288.317 165.312 288.009 165.686C287.701 166.059 287.521 166.594 287.468 167.289H288.429C288.495 166.783 288.713 166.53 289.083 166.53C289.268 166.53 289.631 166.662 290.171 166.927C290.712 167.187 291.132 167.317 291.431 167.317C292.464 167.317 293.031 166.587 293.131 165.125Z" fill="white"/>
<path fill-rule="evenodd" clip-rule="evenodd" d="M170.283 30.064C169.277 29.7871 168.208 29.6448 167.086 29.6448H154.557V56.9186H157.16V44.8123H167.04C168.266 44.7623 169.23 44.9662 169.932 45.4238C170.634 45.8814 171.17 46.4891 171.54 47.239C171.91 47.9889 172.153 48.8426 172.269 49.7964C172.381 50.7501 172.466 51.7115 172.516 52.6807C172.542 52.9498 172.564 53.2648 172.59 53.6258L172.593 53.6729C172.62 54.0574 172.651 54.442 172.689 54.8381C172.728 55.2342 172.793 55.6149 172.882 55.9841C172.975 56.3533 173.094 56.6648 173.248 56.9186H176.121C175.84 56.5918 175.616 56.1264 175.45 55.5265C175.285 54.9266 175.165 54.2882 175.088 53.6152C175.011 52.9422 174.957 52.273 174.934 51.6116C174.907 50.9501 174.883 50.3886 174.856 49.931C174.806 49.1157 174.698 48.3581 174.533 47.6582C174.363 46.9582 174.097 46.3391 173.727 45.8045C173.356 45.27 172.878 44.8316 172.292 44.4854C171.706 44.1393 170.966 43.9047 170.071 43.7778V43.7009C171.833 43.3433 173.16 42.528 174.054 41.255C174.949 39.9821 175.396 38.4784 175.396 36.7479C175.396 35.5288 175.173 34.4635 174.725 33.5598C174.278 32.656 173.676 31.9176 172.925 31.3446C172.173 30.7716 171.289 30.3447 170.283 30.064ZM169.153 42.2319C168.44 42.4741 167.684 42.5933 166.893 42.5933L166.897 42.5972H157.172V31.8638H166.897C168.887 31.8638 170.368 32.3445 171.34 33.3136C172.308 34.2828 172.793 35.6057 172.793 37.2863C172.793 38.1285 172.635 38.8707 172.315 39.5206C171.995 40.1705 171.567 40.7243 171.031 41.182C170.495 41.6396 169.867 41.9896 169.153 42.2319Z" fill="white"/>
<path fill-rule="evenodd" clip-rule="evenodd" d="M189.564 29.6448C193.725 29.7487 196.86 30.9139 198.966 33.1406C201.071 35.3673 202.124 38.7476 202.124 43.2817C202.124 47.8158 201.071 51.1924 198.966 53.4229C196.86 55.6496 193.725 56.8148 189.564 56.9186H180.105V29.6448H189.564ZM188.261 54.6997C190.227 54.6997 191.916 54.4881 193.335 54.069C194.751 53.6498 195.919 52.9806 196.841 52.0653C197.759 51.1501 198.437 49.9656 198.869 48.5119C199.301 47.0621 199.521 45.3161 199.521 43.2817C199.521 41.2474 199.305 39.5014 198.869 38.0477C198.433 36.5979 197.759 35.4134 196.841 34.4943C195.923 33.579 194.755 32.9098 193.335 32.4907C191.92 32.0715 190.227 31.86 188.261 31.86H182.708V54.6997H188.261Z" fill="white"/>
<path fill-rule="evenodd" clip-rule="evenodd" d="M134.455 102.917C133.695 103.494 133.094 104.24 132.654 105.148L132.646 105.151C132.207 106.059 131.941 107.136 131.86 108.374H134.47C134.528 106.64 135.08 105.378 136.129 104.594C137.178 103.809 138.531 103.417 140.189 103.417C140.96 103.417 141.685 103.479 142.364 103.602C143.039 103.725 143.633 103.952 144.146 104.282C144.659 104.613 145.06 105.059 145.349 105.624C145.642 106.19 145.785 106.913 145.785 107.793C145.785 108.37 145.708 108.839 145.557 109.197C145.407 109.555 145.191 109.835 144.917 110.043C144.639 110.251 144.296 110.397 143.88 110.478C143.467 110.562 142.981 110.632 142.43 110.685C141.018 110.851 139.63 111.024 138.265 111.201C136.9 111.381 135.67 111.693 134.578 112.131C133.487 112.574 132.612 113.216 131.949 114.054C131.285 114.896 130.954 116.058 130.954 117.546C130.954 118.619 131.139 119.55 131.513 120.334C131.883 121.119 132.396 121.769 133.044 122.276C133.692 122.788 134.451 123.157 135.323 123.392C136.19 123.626 137.124 123.742 138.118 123.742C139.167 123.742 140.074 123.645 140.833 123.453C141.589 123.261 142.268 122.984 142.862 122.626C143.455 122.269 143.995 121.823 144.477 121.284C144.963 120.746 145.438 120.134 145.908 119.446H145.993C145.993 119.996 146.028 120.5 146.097 120.953C146.166 121.407 146.309 121.8 146.533 122.13C146.753 122.461 147.065 122.719 147.466 122.896C147.867 123.076 148.399 123.165 149.062 123.165C149.421 123.165 149.718 123.149 149.953 123.122C150.185 123.096 150.455 123.057 150.759 122.999V120.807C150.512 120.919 150.235 120.973 149.93 120.973C148.908 120.973 148.399 120.45 148.399 119.404V108.082C148.399 106.647 148.164 105.486 147.693 104.59C147.223 103.694 146.614 102.998 145.869 102.502C145.125 102.006 144.281 101.671 143.344 101.49C142.403 101.31 141.462 101.221 140.525 101.221C139.283 101.221 138.149 101.36 137.127 101.636C136.106 101.913 135.215 102.34 134.455 102.917ZM144.755 112.174C145.222 112.035 145.542 111.816 145.708 111.512L145.704 111.505H145.785V114.893C145.785 115.942 145.584 116.877 145.183 117.704C144.782 118.531 144.242 119.234 143.567 119.811C142.889 120.392 142.094 120.83 141.184 121.134C140.274 121.438 139.322 121.588 138.327 121.588C137.717 121.588 137.124 121.492 136.545 121.3C135.967 121.107 135.454 120.827 135.014 120.453C134.575 120.08 134.22 119.642 133.958 119.131C133.695 118.619 133.564 118.035 133.564 117.373C133.564 116.327 133.877 115.523 134.497 114.958C135.118 114.396 135.913 113.962 136.881 113.658C137.849 113.358 138.921 113.127 140.093 112.977C141.269 112.827 142.407 112.654 143.513 112.462C143.872 112.408 144.285 112.312 144.755 112.174Z" fill="white"/>
<path d="M162.112 101.84V104.032H157.762V118.412C157.762 119.265 157.878 119.935 158.113 120.415C158.348 120.9 158.934 121.169 159.875 121.223C160.619 121.223 161.368 121.181 162.112 121.1V123.292C161.726 123.292 161.337 123.307 160.951 123.334C160.565 123.361 160.176 123.376 159.79 123.376C158.051 123.376 156.833 123.042 156.142 122.365C155.452 121.692 155.12 120.442 155.147 118.627V104.04H151.418V101.848H155.147V95.445H157.758V101.848H162.108L162.112 101.84Z" fill="white"/>
<path d="M180.799 119.319V123.161L180.807 123.165H183.209V101.844H180.599V113.043C180.599 114.116 180.471 115.17 180.225 116.204C179.974 117.235 179.588 118.15 179.064 118.95C178.539 119.75 177.876 120.392 177.074 120.873C176.272 121.357 175.308 121.596 174.174 121.596C172.099 121.596 170.646 121.1 169.801 120.107C168.961 119.115 168.509 117.658 168.455 115.727V101.844H165.845V115.685C165.845 116.954 165.984 118.081 166.261 119.073C166.535 120.065 166.971 120.903 167.565 121.592C168.158 122.284 168.934 122.811 169.886 123.184C170.838 123.557 171.992 123.742 173.345 123.742C174.945 123.742 176.403 123.361 177.714 122.603C179.025 121.846 180.028 120.753 180.718 119.319H180.799Z" fill="white"/>
<path d="M190.536 101.84V105.436H190.659C191.35 104.113 192.256 103.082 193.374 102.336C194.492 101.594 195.923 101.221 197.662 101.221C199.07 101.221 200.346 101.567 201.495 102.256C202.641 102.944 203.408 103.99 203.794 105.394C204.43 103.99 205.367 102.944 206.613 102.256C207.854 101.567 209.181 101.221 210.588 101.221C215.312 101.221 217.672 103.713 217.672 108.701V123.161H215.062V108.824C215.062 107.063 214.687 105.717 213.943 104.794C213.195 103.871 211.884 103.409 210.006 103.409C208.872 103.409 207.935 103.625 207.187 104.052C206.443 104.478 205.845 105.051 205.406 105.767C204.962 106.482 204.654 107.301 204.472 108.224C204.291 109.147 204.202 110.105 204.202 111.097V123.161H201.592V108.701C201.592 107.986 201.515 107.305 201.364 106.655C201.21 106.009 200.963 105.444 200.62 104.963C200.273 104.482 199.81 104.102 199.232 103.828C198.653 103.552 197.948 103.413 197.119 103.413C196.012 103.413 195.052 103.613 194.238 104.013C193.424 104.413 192.761 104.963 192.248 105.667C191.735 106.37 191.357 107.197 191.111 108.147C190.86 109.097 190.736 110.139 190.736 111.266V123.165H188.126V101.844H190.528L190.536 101.84Z" fill="white"/>
<path fill-rule="evenodd" clip-rule="evenodd" d="M224.987 102.917C224.228 103.494 223.626 104.24 223.187 105.148V105.151C222.747 106.059 222.485 107.136 222.4 108.374H225.011C225.061 106.64 225.616 105.378 226.665 104.594C227.714 103.809 229.067 103.417 230.725 103.417C231.497 103.417 232.222 103.479 232.9 103.602C233.575 103.725 234.169 103.952 234.682 104.282C235.195 104.613 235.596 105.059 235.885 105.624C236.174 106.19 236.321 106.913 236.321 107.793C236.321 108.37 236.244 108.839 236.093 109.197C235.943 109.555 235.727 109.835 235.453 110.043C235.176 110.251 234.832 110.397 234.416 110.478C233.999 110.562 233.517 110.632 232.966 110.685C231.558 110.851 230.17 111.024 228.801 111.201C227.436 111.381 226.206 111.693 225.115 112.131C224.023 112.574 223.148 113.216 222.485 114.054C221.821 114.896 221.49 116.058 221.49 117.546C221.49 118.619 221.675 119.55 222.049 120.334C222.423 121.119 222.936 121.769 223.584 122.276C224.232 122.788 224.991 123.157 225.863 123.392C226.73 123.626 227.664 123.742 228.659 123.742C229.707 123.742 230.614 123.645 231.373 123.453C232.129 123.261 232.808 122.984 233.402 122.626C233.996 122.269 234.535 121.823 235.017 121.284C235.503 120.746 235.978 120.134 236.448 119.446H236.533C236.533 119.996 236.568 120.5 236.637 120.953C236.706 121.407 236.849 121.8 237.073 122.13C237.293 122.461 237.601 122.719 238.002 122.896C238.403 123.076 238.935 123.165 239.599 123.165C239.957 123.165 240.254 123.149 240.489 123.122C240.721 123.096 240.991 123.057 241.295 122.999V120.807C241.045 120.919 240.771 120.973 240.466 120.973C239.444 120.973 238.931 120.45 238.931 119.404V108.082C238.931 106.647 238.696 105.486 238.226 104.59C237.755 103.694 237.146 102.998 236.402 102.502C235.658 102.006 234.813 101.671 233.876 101.49C232.935 101.31 231.994 101.221 231.057 101.221C229.812 101.221 228.682 101.36 227.66 101.636C226.638 101.913 225.747 102.34 224.987 102.917ZM235.283 112.174C235.754 112.035 236.07 111.816 236.236 111.512V111.505H236.321V114.893C236.321 115.942 236.12 116.877 235.719 117.704C235.318 118.531 234.778 119.234 234.104 119.811C233.425 120.392 232.63 120.83 231.72 121.134C230.81 121.438 229.858 121.588 228.863 121.588C228.257 121.588 227.66 121.492 227.081 121.3C226.499 121.107 225.99 120.827 225.547 120.453C225.103 120.08 224.752 119.642 224.49 119.131C224.228 118.619 224.097 118.035 224.097 117.373C224.097 116.327 224.409 115.523 225.03 114.958C225.655 114.396 226.445 113.962 227.413 113.658C228.381 113.358 229.453 113.127 230.625 112.977C231.797 112.827 232.939 112.654 234.042 112.462C234.4 112.408 234.813 112.312 235.283 112.174Z" fill="white"/>
</svg>
