<svg width="335" height="144" viewBox="0 0 335 144" fill="none" xmlns="http://www.w3.org/2000/svg">
<g clip-path="url(#clip0_2564_4217)">
<path opacity="0.3" d="M174.775 83.4026C175.001 81.2277 175.294 79.0528 175.519 76.8779C176.332 76.4429 176.27 76.0079 175.601 75.5108C178.787 61.2184 188.127 51.0273 201.939 44.5647C214.195 38.7856 226.914 33.8765 239.366 28.5945C240.043 28.2838 240.656 27.7245 241.998 28.1595C240.312 34.56 238.625 41.0848 236.804 47.5474C234.912 54.2586 233.021 60.9698 230.995 67.681C227.293 79.8606 218.781 88.2496 206.728 93.9666C202.733 95.8308 198.872 97.8193 194.227 97.5086C193.42 97.3222 193.01 97.8815 192.735 98.4407C190.711 98.6272 188.688 98.8136 186.598 99C186.066 98.3164 185.595 98.3164 185.049 99C176.025 98.6893 176.025 98.6893 175.169 90.5488C174.985 88.9332 174.867 87.3797 174.682 85.764C175.499 85.0183 175.507 84.2726 174.706 83.5269L174.775 83.4026Z" fill="#BE6A14"/>
<path opacity="0.2" d="M150.49 75.2271C162.828 88.0168 164.552 106.566 154.34 116.658C144.128 126.75 125.848 124.563 113.51 111.773C101.172 98.9832 99.4483 80.4341 109.66 70.3423C119.872 60.2504 138.152 62.4375 150.49 75.2271Z" fill="#FFA400"/>
<path d="M192.588 95.4185C188.642 96.1979 184.978 97.7665 181.127 98.9008C176.747 99.8658 172.427 101.057 168.001 101.723C164.441 102.261 160.782 101.788 157.184 102.44C155.631 102.717 154.714 103.17 154.026 104.737C150.844 111.846 149.389 119.461 147.259 126.876C146.898 128.114 146.538 129.351 145.554 130.202C141.853 133.44 139.432 137.58 137.019 141.752C136.452 142.733 135.784 144.502 134.678 143.865C133.426 143.197 134.74 141.774 135.202 140.786C137.184 136.556 139.911 132.784 142.556 128.965C147.348 122.047 146.996 115.054 140.34 109.99C133.603 104.879 128.871 98.4706 125.72 90.9823C123.895 86.6307 123.472 81.6966 122.557 76.9976C121.812 73.1868 121.228 69.3327 120.644 65.4786C120.479 64.3474 119.228 62.7808 120.733 62.0668C122.335 61.327 122.279 63.3125 122.918 64.1442C127.597 70.3593 132.108 76.723 137.509 82.3993C143.545 88.7697 145.243 96.6471 145.214 105.056C145.204 108.377 145.307 111.599 146.993 114.916C148.21 113 148.477 111.027 149.072 109.243C150.628 104.333 152.644 99.7137 156.839 96.3784C158.263 95.2365 157.69 92.97 155.523 91.4755C151.6 88.7228 148.642 85.0546 145.414 81.6664C138.461 74.3314 136.63 65.3141 136.436 55.6859C136.343 51.0784 136.112 46.4731 136.481 41.9144C136.621 40.1137 136.312 38.5718 136.082 36.9394C135.99 36.3415 135.888 35.5737 136.564 35.2544C137.458 34.8424 137.868 35.5969 138.226 36.1579C144.265 46.0195 150.873 55.5556 154.806 66.6031C157.309 73.6082 158.241 80.8262 158.445 88.1698C158.477 89.5788 158.614 90.994 158.816 92.392C158.898 92.9576 158.815 93.8096 159.613 93.9419C160.296 94.0357 160.665 93.3491 161.014 92.8409C164.629 87.8629 168.031 82.7346 171.065 77.3938C171.884 75.93 171.719 74.7987 171.093 73.2378C169.652 69.544 167.111 67.0434 163.927 64.8533C159.536 61.7763 158.242 56.6949 156.339 52.0531C153.606 45.3515 152.453 38.4694 153.459 31.2511C153.547 30.6745 153.301 30.0144 153.242 29.4079C154.654 27.0592 154.626 24.3703 155.142 21.7776C155.872 17.9175 156.277 14.0063 156.893 10.1077C157.026 9.3116 156.949 8.12212 158.035 8.03899C159.153 7.94722 159.535 8.98571 159.713 9.90617C160.464 13.6116 161.789 17.1291 163.145 20.638C163.943 22.7064 165.119 24.6387 166.166 26.6057C167.623 29.3271 168.725 32.1437 169.488 35.1199C170.304 38.2896 171.12 41.4593 172.299 44.5661C173.267 47.1419 173.421 50.0393 173.922 52.8093C174.376 58.1155 174.481 63.4115 172.824 68.5913C172.238 70.4076 172.384 70.4376 173.576 72.8152C174.84 64.4909 179.963 57.519 177.509 49.0145C176.432 45.2578 177.216 41.2106 176.429 37.3761C176.935 37.0679 176.799 36.6894 176.549 36.2724C176.411 34.8572 177.244 33.701 177.441 32.3692C177.82 32.2332 177.92 31.9641 177.793 31.618C178.284 31.3829 178.505 31.047 178.068 30.5765C178.815 30.653 178.95 29.9946 179.178 29.5533C183.602 19.0695 192.004 12.1881 200.669 5.51289C202.959 3.72453 205.497 2.21551 207.945 0.627006C208.651 0.161462 209.559 -0.323717 210.381 0.286151C211.383 1.05497 210.464 1.88864 210.135 2.59893C207.606 8.01222 206.658 13.9011 205.318 19.6183C201.796 34.4935 194.039 46.4916 181.714 55.5291C181.361 55.7619 181.146 55.9923 181.015 56.4077C179.579 60.7332 178.184 65.0825 177.465 70.1493C180.144 68.7756 182.411 68.0649 183.91 65.5204C186.047 61.8715 189.368 59.1504 192.697 56.4616C198.965 51.4307 205.048 46.1032 212.783 43.4453C220.445 40.7724 228.156 38.1554 236.274 37.0544C236.905 36.9547 237.609 36.8699 237.914 37.6181C238.218 38.3663 237.659 38.8618 237.153 39.17C233.691 41.2374 231.409 44.4756 229.084 47.5525C223.823 54.5267 217.038 59.1775 208.795 62.006C203.657 63.7614 198.673 65.9597 193.578 67.8765C189.87 69.2837 186.033 70.2072 182.054 70.4768C178.821 70.6853 176.489 71.9316 175.108 75.1708C172.33 81.7224 168.209 87.5271 164.088 93.3318C162.329 95.8078 159.713 97.545 157.349 100.218C160.745 99.5851 163.338 98.4072 165.084 96.142C169.245 90.7417 174.958 87.5185 180.693 84.1167C188.075 79.7555 196.255 79.018 204.44 78.0374C208.763 77.5027 213.008 76.6777 217.138 75.2957C217.96 75.0064 218.893 74.4803 219.413 75.5165C219.933 76.5527 218.992 77.0465 218.245 77.4884C216.904 78.2968 216.048 79.4939 215.332 80.8264C212.942 85.3382 209.367 88.4038 204.689 90.4512C200.718 92.1707 196.841 94.1073 192.685 95.3926L192.588 95.4185ZM169.387 44.5505C168.764 42.7465 168.151 40.9748 167.528 39.1708C167.399 39.2054 167.229 39.2163 167.091 39.2187C167.019 40.2405 166.923 41.3033 166.851 42.3252C166.643 43.487 166.5 44.6316 166.26 45.8021C165.432 50.0689 165.697 54.2847 167.306 58.3483C168.077 60.3199 168.946 62.2655 170.824 63.9754C171.732 57.6822 171.14 51.8599 169.664 46.1011C169.858 45.5308 169.751 45.0061 169.387 44.5505ZM161.332 36.3349C160.617 38.7042 160.6 41.0941 161.103 43.4834C161.947 41.5979 162.809 39.777 162.912 37.7096C163.941 35.2216 163.715 32.8277 162.492 30.078C162.159 32.4489 161.233 34.2872 161.332 36.3349ZM181.951 93.8403C184.726 94.3767 187.187 93.0957 189.788 92.4686C196.069 89.6813 202.265 86.7092 208.11 83.0706C203.92 82.8092 200.041 83.1906 196.83 86.1934C194.594 88.313 191.819 89.7126 188.983 90.8864C186.743 91.313 184.552 90.7587 182.324 90.4561C179.523 89.8229 177.155 90.8026 174.249 92.6175C177.256 92.988 179.534 93.8649 181.975 93.7994L181.951 93.8403ZM156.316 31.8347C155.828 34.1435 155.932 36.4666 156.604 38.8449C156.977 36.8783 157.349 34.9117 157.69 32.9537C159.318 28.4386 160.629 23.9045 158.036 19.2743C157.824 23.5144 156.465 27.6119 156.316 31.8347ZM186.168 86.9728C190.903 87.3303 194.293 84.8672 197.37 81.6237C193.166 82.4723 188.905 82.8521 185.08 84.9823C184.141 85.0953 183.286 85.3933 182.373 86.1215C183.731 86.7952 184.912 87.0669 186.2 86.9642L186.168 86.9728ZM182.108 49.5119C182.108 49.5119 182.005 49.6433 181.926 49.7337C181.958 49.7251 182.022 49.7078 182.055 49.6992C182.078 49.6583 182.061 49.5937 182.076 49.5206C189.894 44.5931 195.583 37.9195 199.229 29.4416C199.267 29.3276 199.069 29.1041 198.842 28.6462C194.783 35.1951 189.053 39.9091 183.555 44.8379C182.156 46.0766 181.885 47.7741 182.117 49.5442L182.108 49.5119ZM147.02 78.7475C147.399 76.6755 147.737 74.5798 148.107 72.4756C149.089 66.7158 148.045 61.5329 143.659 57.3137C142.827 56.5339 142.026 55.7455 141.633 54.537C141.451 53.8597 140.808 52.7527 139.8 53.1261C138.922 53.4649 139.005 54.549 139.06 55.3986C139.112 56.1106 139.391 56.762 139.573 57.4394C140.161 59.6328 141.098 61.8365 141.249 64.0778C141.554 68.698 143.504 72.7396 145.051 76.9581C145.34 77.7795 145.835 78.7189 147.02 78.7475ZM186.506 36.477C192.431 34.3032 202.552 19.6326 202.49 13.4611C195.345 19.8677 190.988 28.0174 186.506 36.477ZM229.319 43.6522C222.471 45.4851 215.201 45.8751 209.363 51.3443C213.235 50.5499 216.574 50.3477 219.904 50.6317C221.863 50.8336 223.452 50.3045 224.734 48.8896C226.279 47.1624 227.815 45.403 229.319 43.6522ZM142.375 107.51C143.571 101.9 142.062 93.1771 139.415 89.6333C138.594 95.8682 139.592 101.651 142.375 107.51ZM155.632 88.7843C155.684 83.1698 155.461 78.0785 154.057 72.7154C152.416 79.3773 152.917 85.5009 155.632 88.7843ZM126.307 72.2603C126.097 73.803 126.301 74.8202 126.814 75.4434C128.214 77.1775 129.156 79.1381 130.041 81.1483C131.011 83.3434 132.519 83.2855 134.577 82.6999C131.842 79.2143 129.232 75.9372 126.307 72.2603ZM146.731 53.7948C144.277 49.6807 142.123 46.0395 139.669 41.9254C139.176 45.3764 143.17 51.8784 146.731 53.7948ZM185.331 66.5576C189.923 66.6421 190.451 66.1553 192.204 60.431C189.457 62.0651 187.258 63.9329 185.331 66.5576ZM199.496 27.9871L199.652 28.0493L199.608 27.888L199.496 27.9871Z" fill="#653024"/>
<path d="M288.5 2.99985L247.5 23.4998L303.5 14.9998L288.5 2.99985Z" fill="#FFA400"/>
<path d="M79.5 0L114 23L63 9.5L79.5 0Z" fill="#FFA400"/>
<path d="M35 128.5L86 116L50 140L35 128.5Z" fill="#FFA400"/>
<path d="M243.5 144L209.728 120.876L258 132L243.5 144Z" fill="#FFA400"/>
<path d="M335 68L260 56.9998L328 49L335 68Z" fill="#FFA400"/>
<path d="M12.5 20L81.5 48.5L0 37.5L12.5 20Z" fill="#FFA400"/>
<path d="M249.5 92.5L319 108L305.5 122.5L249.5 92.5Z" fill="#FFA400"/>
<path d="M10 99.5L1.5 81H73L10 99.5Z" fill="#FFA400"/>
<path d="M152.5 127.414L156.904 106.846C172.584 108.078 181.828 105.482 198.5 99.5M167.213 13L173.085 32.5885L178.468 21.3251M182.5 72.5C182.5 72.5 199.628 76.9074 223.606 58.7881" stroke="#FFA400" stroke-width="1.5" stroke-linecap="round" stroke-linejoin="round"/>
</g>
<defs>
<clipPath id="clip0_2564_4217">
<rect width="335" height="144" fill="white"/>
</clipPath>
</defs>
</svg>
