<svg width="301" height="280" viewBox="0 0 301 280" fill="none" xmlns="http://www.w3.org/2000/svg">
<path d="M141 98.5C152.985 49.5848 65.5 56.5 65.5 56.5C74 80.5 89.9998 96.5 89.9998 96.5L101.355 96.3985L92.9998 100.5C92.9998 100.5 117.5 106.5 135.5 99L101 75.9998C101 75.9998 120.485 75.0845 141 98.5Z" fill="#00491E"/>
<path d="M124.574 175.675C91.0853 147.653 65.6206 206.433 65.6206 206.433C65.6206 206.433 96.1743 207.691 114.898 199.288C114.898 199.288 122.537 193.259 128.14 179.695L95.669 188.347L101.147 183.714C101.147 183.714 117.385 176.072 124.574 175.675Z" fill="#653024"/>
<path d="M214.444 191.98L257 211.5L247.348 179.292M136.475 113.876C136.475 113.876 88.5 122 70 131.368C76.5 147 116.294 156.332 116.294 156.332M189.315 88.5L195.018 99.724L225.974 97.772" stroke="#653024" stroke-width="2" stroke-linecap="round" stroke-linejoin="round"/>
<path fill-rule="evenodd" clip-rule="evenodd" d="M192.513 104.863L247.107 103.125L239.729 116.437L228.692 130.038L217.443 139.282L249 201.167L206.177 182.012L187.636 169.868L135.1 230.1L130.661 233.5L139.345 193.271L143.93 157.725L136.672 152.791L102.873 142.667L86.9801 138.295L78.5921 133.372L150.993 114.98L156.733 85.8352L158.116 63.4912L177.04 83.6494L192.513 104.863ZM157.615 115.465L164.238 80.9778L172.625 89.2354L157.615 115.465ZM134.217 142.667L96.6924 133.923L118.222 130.038L134.217 142.667ZM149.582 178.233L154.505 146.175L137.662 135.488L161.943 138.888L159.954 159.29L149.582 178.233Z" fill="#FFA400"/>
<path d="M155 220.5L178 188L168.5 217.5L155 220.5Z" fill="#653024"/>
<path d="M74.5278 158.18L74.0324 154.294L92.3982 160.123L45 177.021L51.5 153.5L74.5278 158.18Z" fill="#FFA400"/>
<path d="M131 46L144.5 49L149.5 76.5L131 46Z" fill="#BE6A14"/>
<path d="M108.903 221.909L127.727 202.536L116.838 232.567L108.903 221.909Z" fill="#D6A461"/>
</svg>
