<svg width="200" height="200" viewBox="0 0 200 200" fill="none" xmlns="http://www.w3.org/2000/svg">
<path fill-rule="evenodd" clip-rule="evenodd" d="M135.1 8.31941C117.469 2.93012 81.3764 -1.39898 44.9831 34.9943C6.13257 73.8448 -8.72141 124.656 11.4696 159.563C13.5758 163.205 14.9904 167.259 14.9904 171.465V174.994C14.9904 180.517 19.4676 184.994 24.9904 184.994L28.5199 184.994C32.7262 184.994 36.7798 186.409 40.421 188.515C75.3282 208.703 126.133 193.844 164.983 154.994C201.377 118.601 197.053 82.5172 191.666 64.8874C190.674 61.642 190.243 58.2318 190.723 54.8725L193.582 34.9C194.474 28.6653 192.377 22.3746 187.923 17.922L182.063 12.0642C177.612 7.615 171.327 5.52022 165.096 6.40974L145.11 9.26333C141.752 9.74277 138.344 9.31101 135.1 8.31941ZM155 77.4951H170C174.142 77.4951 177.5 74.1373 177.5 69.9951C177.5 65.853 174.142 62.4951 170 62.4951L162.5 62.4951V54.9951C162.5 50.853 159.142 47.4951 155 47.4951C150.858 47.4951 147.5 50.853 147.5 54.9951V69.9951C147.5 74.1373 150.858 77.4951 155 77.4951ZM150 117.495L165 117.495C169.142 117.495 172.5 114.137 172.5 109.995C172.5 105.853 169.142 102.495 165 102.495H157.5V94.9951C157.5 90.853 154.142 87.4951 150 87.4951C145.858 87.4951 142.5 90.853 142.5 94.9951V109.995C142.5 114.137 145.858 117.495 150 117.495ZM130 82.4951C134.142 82.4951 137.5 79.1373 137.5 74.9951C137.5 70.853 134.142 67.4951 130 67.4951H122.5V59.9951C122.5 55.853 119.142 52.4951 115 52.4951C110.858 52.4951 107.5 55.853 107.5 59.9951V74.9951C107.5 79.1373 110.858 82.4951 115 82.4951H130ZM90 142.495C94.1422 142.495 97.5 139.137 97.5 134.995C97.5 130.853 94.1422 127.495 90 127.495H82.5L82.5 119.995C82.5 115.853 79.1422 112.495 75 112.495C70.8579 112.495 67.5 115.853 67.5 119.995L67.5 134.995C67.5 139.137 70.8579 142.495 75 142.495H90ZM55 107.495C59.1422 107.495 62.5 104.137 62.5 99.9951C62.5 95.853 59.1422 92.4951 55 92.4951H47.5L47.5 84.9951C47.5 80.853 44.1422 77.4951 40 77.4951C35.8579 77.4951 32.5 80.853 32.5 84.9951L32.5 99.9951C32.5 104.137 35.8579 107.495 40 107.495H55ZM35 147.495H50C54.1422 147.495 57.5 144.137 57.5 139.995C57.5 135.853 54.1421 132.495 50 132.495H42.5L42.5 124.995C42.5 120.853 39.1421 117.495 35 117.495C30.8579 117.495 27.5 120.853 27.5 124.995L27.5 139.995C27.5 144.137 30.8579 147.495 35 147.495Z" fill="#653024"/>
</svg>
