<svg width="200" height="200" viewBox="0 0 200 200" fill="none" xmlns="http://www.w3.org/2000/svg">
<g clip-path="url(#clip0_1787_3791)">
<path d="M125.344 79.8852C132.584 83.1582 138.793 88.1869 143.643 95.3C152.557 108.374 155 126.01 155 145C155 163.99 152.557 181.626 143.643 194.7C143.405 195.049 143.164 195.393 142.919 195.733C182.463 200.057 200 165.874 200 120.001C200 88.7056 189.288 72.7134 174.449 66.6364C168.659 69.6296 162.402 71.9035 155.783 73.3291L125.344 79.8852Z" fill="#653024"/>
<path d="M90.3277 40.3142C76.3156 41.2759 65.4066 44.4762 57.3821 50.3432C67.125 52.3727 76.7137 56.116 85.4838 60.8772C86.2476 53.7199 87.8996 46.8281 90.3277 40.3142Z" fill="#653024"/>
<path d="M170 0C136.747 0 108.91 23.1865 101.773 54.274C100.613 59.329 100 64.5929 100 70L152.625 58.6654C175.223 53.7981 192.537 36.574 198.102 15C199.343 10.1869 200 5.15724 200 0H170Z" fill="#653024"/>
<path d="M0 120.001C0 52.6084 49.677 56.1795 83.2687 76.9136C72.2914 79.6618 63.0351 85.5044 56.3563 95.3C47.4422 108.374 44.9997 126.01 44.9997 145C44.9997 163.99 47.4422 181.626 56.3563 194.7C56.6249 195.094 56.8977 195.482 57.1746 195.863C17.5648 200.51 0 166.759 0 120.001Z" fill="#653024"/>
<path d="M99.9997 90C69.9997 90 59.9997 108.333 59.9997 145C59.9997 181.667 69.9997 200 99.9997 200C130 200 140 181.667 140 145C140 108.333 130 90 99.9997 90Z" fill="#653024"/>
</g>
<defs>
<clipPath id="clip0_1787_3791">
<rect width="200" height="200" fill="white"/>
</clipPath>
</defs>
</svg>
